<svg id="OBJECTS" xmlns="http://www.w3.org/2000/svg" xmlns:xlink="http://www.w3.org/1999/xlink" viewBox="0 0 291.56 243"><defs><style>.cls-1{fill:#adcdfc;}.cls-2{fill:#e2edff;}.cls-3{fill:#c7d8f2;}.cls-4{fill:#7baeff;}.cls-5{fill:#4da5dc;}.cls-6{fill:#3aaeef;}.cls-7{fill:#e1e8f2;}.cls-8{fill:#e16b40;}.cls-9{fill:#ff8654;}.cls-10{fill:#0046a6;}.cls-11{fill:#003783;}.cls-12{fill:#ff9f75;}.cls-13{fill:#cfdae4;}.cls-14{fill:#00a5ff;}.cls-15{fill:#382747;}.cls-16{fill:#94a3c0;}.cls-17{fill:#fff;}.cls-18{fill:#ff5668;}.cls-19{fill:#b391ff;}.cls-20{fill:#d4d9df;}.cls-21{fill:#f2f8fd;}.cls-22{fill:url(#linear-gradient);}.cls-23{fill:url(#linear-gradient-2);}.cls-24{fill:#05ccff;}.cls-25{fill:#540cc7;}.cls-26{fill:#3f0995;}.cls-27{fill:#7974f5;}.cls-28{fill:#2689fd;}.cls-29{fill:#3548db;}.cls-30{fill:#58affb;}.cls-31{fill:#ee2c6a;}.cls-32{fill:#ee428c;}.cls-33{fill:#ff3d9d;}.cls-34{fill:#7cccff;}.cls-35{fill:#3eabff;}.cls-36{fill:#cc096a;}.cls-37,.cls-45{fill:none;}.cls-38{fill:#3278cc;}.cls-39{fill:#e2a029;}.cls-40{fill:#ffbe3d;}.cls-41{fill:url(#linear-gradient-3);}.cls-42{fill:url(#linear-gradient-4);}.cls-43{fill:#343996;}.cls-44{fill:#1ae5ff;}.cls-45{stroke:#16c5dc;stroke-miterlimit:10;}.cls-46{fill:#f1f1f1;}.cls-47{fill:#fdb913;}.cls-48{opacity:0.53;}.cls-49{fill:#ff4272;}.cls-50{fill:#212973;}.cls-51{fill:#1ce5ff;}.cls-52{fill:#00a935;}.cls-53{fill:#61e041;}.cls-54{fill:#00cc41;}.cls-55{fill:#14347c;}.cls-56{fill:#18388f;}.cls-57{fill:#ce7c56;}.cls-58{fill:#ffaa83;}.cls-59{fill:#4d2c63;}</style><linearGradient id="linear-gradient" x1="-43.16" y1="36.91" x2="-47.23" y2="5.63" gradientTransform="translate(110.87 167.82) rotate(180)" gradientUnits="userSpaceOnUse"><stop offset="0" stop-color="#c6e6ff"/><stop offset="1" stop-color="#8d9fff"/></linearGradient><linearGradient id="linear-gradient-2" x1="393.95" y1="-18.02" x2="405.55" y2="7.97" gradientTransform="matrix(1, 0, 0, -1, -242.47, 167.82)" gradientUnits="userSpaceOnUse"><stop offset="0" stop-color="#1ae5ff"/><stop offset="1" stop-color="#eaeeee"/></linearGradient><linearGradient id="linear-gradient-3" x1="-344.54" y1="44.24" x2="-326.4" y2="178.99" gradientTransform="translate(-126.24 167.82) rotate(180)" gradientUnits="userSpaceOnUse"><stop offset="0" stop-color="#1ae5ff"/><stop offset="0.26" stop-color="#64e8f9"/><stop offset="0.7" stop-color="#eaeeee"/></linearGradient><linearGradient id="linear-gradient-4" x1="-379.81" y1="81.57" x2="-372.55" y2="81.57" gradientTransform="translate(-126.24 167.82) rotate(180)" gradientUnits="userSpaceOnUse"><stop offset="0" stop-color="#5155d4"/><stop offset="1" stop-color="#45f7ff"/></linearGradient></defs><path class="cls-1" d="M100.52,156.8c-.35,3.89-4,6.53-7.31,8a28.1,28.1,0,0,1-11.45,2.12,27.2,27.2,0,0,1-11.64-2.58c-3.14-1.54-6.46-4.33-6.45-8.14,0,2.77.18,5.06,2.17,7.22,2.57,2.78,6.44,4.28,10.08,5,7.11,1.47,16.77.76,22.17-4.7,2.17-2.2,2.48-4.52,2.48-7.43C100.56,156.45,100.54,156.62,100.52,156.8Z"/><path class="cls-2" d="M95.12,148.65c7.22,4.18,7.27,10.94.09,15.12s-18.87,4.17-26.1,0-7.25-10.94-.07-15.12S87.89,144.48,95.12,148.65Z"/><polygon class="cls-3" points="85.4 140.22 85.35 156.34 82.53 157.98 82.58 141.86 85.4 140.22"/><polygon class="cls-4" points="82.58 141.86 82.53 157.98 79.69 156.34 79.74 140.22 82.58 141.86"/><polygon class="cls-5" points="85.4 140.22 82.58 141.86 79.74 140.22 82.56 138.57 85.4 140.22"/><path class="cls-6" d="M64.23,87.93s-5.78,1.54-7.32,5-1.16,29.68,6.94,40.48S87,145.75,90.47,144.21s23.53-11.57,25.06-16.58-6.19-8.86-10.41-10.79-6.94-4.62-9.25-11.56-3.46-18.89-6.19-20.82S80.43,79.45,64.23,87.93Z"/><path class="cls-7" d="M98.8,81s-9.49-7.85-11.42-8c-2.32-.18-5.2.62-6,3.89a6.06,6.06,0,0,0,2.74,6.73c1.74,1,17,8.2,19.71,8.19s4.42-2.34,2.66-5.22S98.8,81,98.8,81Z"/><path class="cls-8" d="M82.4,71.13a.81.81,0,0,0,0,.31c.14.7.58,2.47.69,3.25s-.66,2-2.63,2.08-5.33-.62-6.55-2.88A55.13,55.13,0,0,0,73.26,67Z"/><path class="cls-9" d="M86.62,56.85c-1.42-6-6.34-9.12-11.66-7.59,0,0-5.79.87-8.13,6.11s1.68,9.37,4.25,12c1.08,1.07,1.9,1.86,2.41,2.41.19.2.37.39.56.57l.06.06h0a12.2,12.2,0,0,0,5.13,2.78c2.37.58,5.13,0,6.55-1.62S88,62.79,86.62,56.85Z"/><path class="cls-10" d="M74.36,71.59S65,79,64.18,81.33s-.73,8.76,1.47,12.93,2.25,19.91,3.1,22.95,9.2,3.6,14.28,2.35,13.14-5.5,11.52-11.26c-2.4-8.51-1.83-17.09-1.64-19.81a46.23,46.23,0,0,0-2-13.93c-.3-.94-3.63-2.26-3.63-2.26S83.88,70.7,74.36,71.59Z"/><path class="cls-11" d="M76.05,106.82c-3.85-4.89,1.81-21.59-4.88-26.22A7.5,7.5,0,0,0,65.93,79a8.68,8.68,0,0,0-1.76,2.32c-.84,2.34-.73,8.76,1.48,12.93s2.24,19.91,3.09,22.94c.79,2.77,7.77,3.48,12.84,2.64l7.3-7.63S79.91,111.7,76.05,106.82Z"/><path class="cls-7" d="M74,72.84c8.12-.75,11.86.65,12.79,1.08a24.13,24.13,0,0,1-.12,5.76c-.62,3.84-2.17,14.38-2.17,14.38s-5-8.67-8.31-12.23c-2.32-2.51-4.6-4.87-5.75-6C72.43,74.13,74,72.84,74,72.84Z"/><path class="cls-9" d="M82.4,71.13a.81.81,0,0,0,0,.31c.14.7.58,2.47.69,3.25s-.66,2-2.63,2.08-5.33-.62-6.55-2.88A55.13,55.13,0,0,0,73.26,67Z"/><path class="cls-12" d="M86.62,56.85c-1.42-6-6.34-9.12-11.66-7.59,0,0-5.79.87-8.13,6.11s1.68,9.37,4.25,12c1.08,1.07,1.9,1.86,2.41,2.41.19.2.37.39.56.57l.06.06h0a12.2,12.2,0,0,0,5.13,2.78c2.37.58,5.13,0,6.55-1.62S88,62.79,86.62,56.85Z"/><path class="cls-13" d="M85.68,81.84l-3.62-3.2L79.17,83.7l-2.92-1.86c3.3,3.58,8.31,12.22,8.31,12.22s1.27-8.79,2-13.24Z"/><path class="cls-14" d="M85.43,88l-1.61-5.69.25-2-2-1.77L80.66,81.1l1.61,1.47L82.71,91c1.1,1.78,1.86,3.06,1.86,3.06S85,91.27,85.43,88Z"/><path class="cls-8" d="M66.16,54.77a8.83,8.83,0,0,0,.58,8.67c2.89,4.44,6,6.41,6.75,6.29s1.15-.31,1-.9-1.15-2.47-1.15-2.47S70,66,70,63.88s1.16-2.47,2.48-1.92S74,63.5,74.8,64.27s1,2.7,1.55,2.48a1.67,1.67,0,0,0,1-1.74,4,4,0,0,0-1.16-3.27c-1.15-1.16.2-3.1-1-4.63A11.36,11.36,0,0,0,73.26,55s.78,1.15,4.63.38,5.57-.57,7.13-1.54A2.45,2.45,0,0,0,85.21,50c-1-.76-3.27-1.16-6-2.12s-4.24-.38-7.52.39S65.39,52.46,66.16,54.77Z"/><path class="cls-15" d="M120.51,170.81a4.07,4.07,0,0,0,1.93,3.35c2.06,1.41,2.44,2.31,4.11,3s3.21,2.83,2.44,4.37-4.37,1.8-6.68,1.16-2.7-2.7-4.88-3.47a8,8,0,0,1-3.6-2.31c-.62-.62-.39-3.22-.39-3.22l7.84-2.57"/><path class="cls-15" d="M130.54,163.36a4,4,0,0,0,1.92,3.34c2.06,1.41,2.44,2.32,4.12,3s3.21,2.82,2.43,4.37-4.37,1.8-6.68,1.15-2.7-2.7-4.88-3.46a8.13,8.13,0,0,1-3.6-2.32c-.62-.62-.38-3.21-.38-3.21l7.84-2.57"/><path class="cls-16" d="M69.37,117.29a14.15,14.15,0,0,1,.39,2.89c0,1.35-1,5.21,1,9.83s14.86,5.57,19.09,7.52a41.75,41.75,0,0,1,7.51,4.24c.78.58,1.86,8.74,5.21,13.62s9,14.65,10.28,18.76a9.77,9.77,0,0,0,6.94-1.29c1.72-1.13,1.54-1.81,1.54-1.81s-6.68-14.64-8.22-20.81-3.35-13.37-6.19-15.16S95.06,126.85,93,125.57s-7.59-5.35-8.66-7.82S72.74,111.31,69.37,117.29Z"/><path class="cls-16" d="M80,110.94a14.15,14.15,0,0,1,.39,2.89c0,1.35-1,5.21,1,9.84s14.86,5.57,19.09,7.51a43,43,0,0,1,7.51,4.24c.78.58,1.86,8.74,5.21,13.62s9,14.65,10.28,18.76a9.7,9.7,0,0,0,6.91-1.3c1.72-1.12,1.54-1.8,1.54-1.8s-6.68-14.65-8.22-20.81-3.35-13.37-6.2-15.17-11.82-8.22-13.88-9.51-7.59-5.35-8.67-7.81S83.32,105,80,110.94Z"/><polygon class="cls-3" points="132.01 159.66 131.9 198.87 125.04 202.85 125.15 163.65 132.01 159.66"/><polygon class="cls-4" points="125.15 163.65 125.04 202.85 118.14 198.87 118.25 159.66 125.15 163.65"/><polygon class="cls-5" points="132.01 159.66 125.15 163.65 118.25 159.66 125.11 155.68 132.01 159.66"/><path class="cls-1" d="M244.78,132.82a1,1,0,0,1,0,.34c0,.11,0,.18-.06.28s-.06.21-.1.32a1.56,1.56,0,0,1-.11.26,2.52,2.52,0,0,1-.16.34,2.34,2.34,0,0,1-.15.25c0,.08-.16.25-.25.37s-.19.24-.29.36l-.07.08c-.14.16-.3.31-.46.46l-.33.27c-.11.1-.2.16-.31.25s-.26.17-.39.26l-.41.26-88.18,51.24a12.66,12.66,0,0,1-2.38,1.05,15.11,15.11,0,0,1-2.06.51c-.46.08-.93.15-1.39.19s-.81.07-1.21.08-.74,0-1.11,0a7.53,7.53,0,0,1-1.07-.05v6.28c.35,0,.71.05,1.07.06h1.11a9.58,9.58,0,0,0,1.21-.08c.47,0,.93-.11,1.39-.19a16.79,16.79,0,0,0,2.06-.52,12,12,0,0,0,2.38-1l88.18-51.25.11-.06L242,143l.4-.26c.12-.08.2-.16.3-.24a4.09,4.09,0,0,0,.33-.28l.07,0a4.89,4.89,0,0,0,.39-.4l.08-.09.21-.24.07-.12a4,4,0,0,0,.25-.37c.08-.13.08-.11.11-.16l0-.09a3.54,3.54,0,0,0,.16-.34c.05-.11.07-.13.09-.19s0-.05,0-.07.06-.22.09-.33.05-.15.07-.22,0,0,0-.05a1.31,1.31,0,0,1,0-.34c0-.11,0-.15,0-.23v-6.37A.38.38,0,0,1,244.78,132.82Z"/><path class="cls-1" d="M143.19,189.83c-.37-.05-.72-.11-1.08-.19s-.73-.17-1.13-.28-.9-.28-1.32-.44a12.62,12.62,0,0,1-1.57-.76L49.33,137c-2.15-1.24-3.22-2.87-3.22-4.49v6.28c0,1.62,1.07,3.25,3.22,4.49l88.75,51.24a12.62,12.62,0,0,0,1.57.76c.43.16.87.31,1.32.44s.75.2,1.13.28.72.14,1.08.19.71.08,1.06.11V190Z"/><path class="cls-2" d="M241.6,128.28c4.27,2.47,4.28,6.45.05,8.91l-88.18,51.23a16.89,16.89,0,0,1-15.38,0L49.33,137.17c-4.27-2.48-4.29-6.45,0-8.92L137.45,77a16.91,16.91,0,0,1,15.39,0Z"/><polygon class="cls-17" points="146.2 146.81 170.5 160.93 187.59 151.07 163.29 136.95 146.2 146.81"/><path class="cls-18" d="M166.84,143.3,163,145.53l-4.84-1.43c1.35-1.54,4.62-2.16,7.29-1.37A6.1,6.1,0,0,1,166.84,143.3Z"/><path class="cls-19" d="M167.73,143.59c2.57,1.49,2.58,3.89,0,5.37a10.21,10.21,0,0,1-9.29,0c-2.05-1.19-2.54-2.91-1.24-4.4l5.86,1.72Z"/><path class="cls-1" d="M164.22,154.15a.25.25,0,0,0-.14.31.25.25,0,0,0,.14.13.85.85,0,0,0,.76,0l10.85-6.26a.22.22,0,0,0,.13-.3.25.25,0,0,0-.13-.14.85.85,0,0,0-.76,0Z"/><path class="cls-20" d="M171.71,151.27a.24.24,0,0,0-.13.31.21.21,0,0,0,.13.13.81.81,0,0,0,.77,0l4.6-2.65a.24.24,0,0,0,0-.45.85.85,0,0,0-.76,0Z"/><path class="cls-20" d="M170.28,153.45a.24.24,0,0,0-.15.3.28.28,0,0,0,.15.15.87.87,0,0,0,.77,0l7.2-4.16a.25.25,0,0,0,.14-.31.25.25,0,0,0-.14-.13.85.85,0,0,0-.76,0Z"/><path class="cls-21" d="M174.81,166.92a.65.65,0,0,1,.42.82.63.63,0,0,1-.42.42l-17.33,10.07a2.35,2.35,0,0,1-2.13,0l-12.11-7a.65.65,0,0,1-.42-.82.67.67,0,0,1,.42-.42l17.34-10.07a2.35,2.35,0,0,1,2.13,0Z"/><path class="cls-22" d="M175.25,167.59v.25l0,.06h0l-.07.06h0l0,0,0,0-.06,0,0,0-17.34,10.06a1,1,0,0,1-.21.1h-.06l-.14,0-.27.11-.18,0h-.62l-.24,0h0l-.22-.07h0a1,1,0,0,1-.23-.11l-12.11-7a.86.86,0,0,1-.41-.45.48.48,0,0,1,0-.17v.78a.8.8,0,0,0,.44.54l12.1,7,.22.11h0l.13,0H157l.15,0h.2a1,1,0,0,0,.21-.1l17.34-10.06h0l.06,0,0,0,0,0h0l.06-.07h0l0-.05h0v0h0v0h0v0h0v-.71A2.25,2.25,0,0,1,175.25,167.59Z"/><path class="cls-23" d="M173,167.15a.21.21,0,0,1,.12.27.18.18,0,0,1-.12.12l-16.47,9.57a.76.76,0,0,1-.69,0l-10.9-6.3a.21.21,0,0,1-.13-.27.2.2,0,0,1,.13-.12l16.46-9.57a.76.76,0,0,1,.69,0Z"/><polygon class="cls-17" points="92.23 109.8 116.53 123.93 133.62 114.06 109.32 99.94 92.23 109.8"/><path class="cls-19" d="M112.89,106.29l-3.82,2.23-4.84-1.43c1.34-1.55,4.61-2.16,7.28-1.37A5.91,5.91,0,0,1,112.89,106.29Z"/><path class="cls-24" d="M113.76,106.61c2.57,1.48,2.58,3.89,0,5.37a10.21,10.21,0,0,1-9.29,0c-2-1.19-2.54-2.91-1.24-4.41l5.86,1.73Z"/><path class="cls-1" d="M110.25,117.13a.23.23,0,0,0,0,.44.79.79,0,0,0,.76,0l10.85-6.26a.22.22,0,0,0,.13-.3.25.25,0,0,0-.13-.14.85.85,0,0,0-.76,0Z"/><path class="cls-20" d="M117.74,114.26a.23.23,0,0,0-.13.3.2.2,0,0,0,.13.14.87.87,0,0,0,.77,0l4.6-2.66a.23.23,0,0,0,.15-.29.25.25,0,0,0-.15-.15.85.85,0,0,0-.76,0Z"/><path class="cls-24" d="M116.31,116.45a.23.23,0,0,0-.15.29.25.25,0,0,0,.15.15.81.81,0,0,0,.77,0l7.2-4.16a.22.22,0,0,0,.13-.3.25.25,0,0,0-.13-.14.85.85,0,0,0-.76,0Z"/><polygon class="cls-25" points="131.31 153.33 131.31 154.79 127.94 156.75 127.94 155.28 131.31 153.33"/><polygon class="cls-26" points="127.94 155.28 127.94 156.75 99.31 140.22 99.31 138.76 127.94 155.28"/><polygon class="cls-27" points="131.31 153.33 127.94 155.28 99.31 138.76 102.68 136.8 131.31 153.33"/><polygon class="cls-28" points="118.58 153.61 118.58 155.07 115.22 157.03 115.22 155.56 118.58 153.61"/><polygon class="cls-29" points="115.22 155.56 115.22 157.03 92.73 144.04 92.73 142.58 115.22 155.56"/><polygon class="cls-30" points="118.58 153.61 115.22 155.56 92.73 142.58 96.1 140.63 118.58 153.61"/><polygon class="cls-31" points="99.8 150.39 99.8 151.85 96.44 153.81 96.44 152.35 99.8 150.39"/><polygon class="cls-32" points="96.44 152.35 96.44 153.81 86.15 147.87 86.15 146.41 96.44 152.35"/><polygon class="cls-33" points="99.8 150.39 96.44 152.35 86.15 146.41 89.51 144.45 99.8 150.39"/><path class="cls-1" d="M77.07,142.33a.36.36,0,0,0-.23.46.37.37,0,0,0,.23.24,1.33,1.33,0,0,0,1.2,0l17.1-9.87a.37.37,0,0,0,.23-.46.42.42,0,0,0-.23-.24,1.36,1.36,0,0,0-1.21,0Z"/><path class="cls-1" d="M88.91,137.79a.38.38,0,0,0-.21.48.41.41,0,0,0,.21.22,1.36,1.36,0,0,0,1.24,0l7.26-4.19a.38.38,0,0,0,.22-.48.34.34,0,0,0-.22-.22,1.27,1.27,0,0,0-1.2,0Z"/><path class="cls-1" d="M86.66,141.24a.37.37,0,0,0-.22.47.36.36,0,0,0,.22.23,1.36,1.36,0,0,0,1.24,0l11.35-6.56a.37.37,0,0,0,.24-.46.37.37,0,0,0-.24-.23,1.27,1.27,0,0,0-1.2,0Z"/><path class="cls-34" d="M85.63,125.42,82.91,127a9.81,9.81,0,0,0-8.74.08l-.14.08-2.74-1.58.15-.08A15.82,15.82,0,0,1,85.63,125.42Z"/><path class="cls-34" d="M86.05,125.67c3.23,2,3.56,5,1,7.25l-2.81-1.63c1.13-1.29.83-2.9-.89-4Z"/><path class="cls-35" d="M86.7,133.23a8.57,8.57,0,0,1-.89.59,15.87,15.87,0,0,1-14,.17l2.72-1.58a9.87,9.87,0,0,0,8.57-.17,5.06,5.06,0,0,0,.84-.62Z"/><path class="cls-35" d="M73.65,127.42c-1.86,1.4-1.71,3.4.43,4.72l-2.72,1.57c-3.65-2.18-3.81-5.57-.46-7.87Z"/><path class="cls-30" d="M139.45,52.46a4.94,4.94,0,0,1,2.26,3.91V78.21c0,1.44-1,2-2.27,1.3L133.34,76l-.29.42-1.19,1.67-1.18-3-.29-.76-6.09-3.51A5,5,0,0,1,122,66.86V45c0-1.44,1-2,2.27-1.29Z"/><path class="cls-17" d="M128.89,52.69v.62a.47.47,0,0,1-.47.47.46.46,0,0,1-.23-.06L125.29,52a.47.47,0,0,1-.24-.41V51a.47.47,0,0,1,.47-.47.48.48,0,0,1,.24.06l2.9,1.69A.47.47,0,0,1,128.89,52.69Z"/><path class="cls-1" d="M138.07,61.05v.62a.47.47,0,0,1-.47.47.4.4,0,0,1-.24-.07l-12.08-7a.47.47,0,0,1-.24-.41v-.62a.47.47,0,0,1,.47-.47.53.53,0,0,1,.24.06l12.08,7A.46.46,0,0,1,138.07,61.05Z"/><polygon class="cls-17" points="128.16 60.8 128.16 61.51 126.52 67.09 125.82 66.69 127.45 61.11 125.31 59.88 125.31 59.16 128.16 60.8"/><path class="cls-17" d="M131.49,62.72v.72l-1.86-1.06-.11,2.16a.63.63,0,0,1,.87-.12.23.23,0,0,1,.07.07,2.58,2.58,0,0,1,1.17,2.38v1.41c0,1.11-.47,1.56-1.42,1a2.9,2.9,0,0,1-1.41-2.64v-.48l.66.38v.53a1.57,1.57,0,0,0,.73,1.47c.5.29.74,0,.74-.62v-1.4a1.58,1.58,0,0,0-.73-1.47c-.39-.22-.62-.12-.71.37v.16l-.67-.38.19-3.92Z"/><path class="cls-17" d="M136.26,68.15a1.88,1.88,0,0,1,.89,1.68V72.1c0,.7-.28,1-.9.65a1.85,1.85,0,0,1-.89-1.69V68.79C135.36,68.09,135.65,67.79,136.26,68.15Zm.43,3.72V69.52a1,1,0,0,0-.44-.91c-.32-.18-.46,0-.46.39v2.35a1,1,0,0,0,.46.91c.31.18.44,0,.44-.4"/><path class="cls-17" d="M134.07,67.6c0,.7-.29,1-.91.62a1.87,1.87,0,0,1-.89-1.68V64.26c0-.69.29-1,.9-.62a1.86,1.86,0,0,1,.9,1.68V67.6Zm-.45-.22V65a1,1,0,0,0-.46-.92c-.32-.18-.44,0-.44.4v2.36a1,1,0,0,0,.44.91c.32.18.46,0,.46-.39"/><polygon class="cls-17" points="135.73 65.18 136.14 65.42 133.65 71.21 133.23 70.97 135.73 65.18"/><path class="cls-1" d="M167.07,97.77c7.23,4.17,7.28,10.94.1,15.11s-18.87,4.17-26.1,0-7.26-10.94-.07-15.11S159.85,93.61,167.07,97.77Z"/><polygon class="cls-36" points="167.24 93.29 167.24 95.95 162.64 98.61 162.65 95.96 167.24 93.29"/><path class="cls-36" d="M148.77,97.84l.09,0c.26-.1.53-.19.79-.27l.56-.17.44-.11.62-.13.44-.1h.19l.76-.1h.22l.89-.08h2.47l.51,0,.55.06.49.07.58.1.62.12.14,0,.83.22.23.08.67.23.19.07c.2.07.39.16.58.24l.29.13c.28.13.54.27.8.42v-3.1c-.26-.15-.52-.29-.8-.42l-.29-.12-.49-.22-.09,0-.19-.07-.67-.23L160,94.4l-.15-.05-.67-.17-.15,0-.32-.08-.28,0-.58-.1-.23,0h-.26l-.55-.06h-3l-.74.05h-.37L152,94h-.27l-.36.07-.62.13-.43.12-.56.16-.13,0-.67.23-.09,0c-.24.09-.47.19-.7.3l-.2.09c-.26.12-.5.25-.75.39l-.13.08-.12.08-.2.12-.17.12-.19.13-.16.12-.17.14-.15.12-.16.14-.07.05-.05.06-.25.25-.08.08-.29.34h0l0,.08-.16.21-.07.12-.12.19,0,0,0,.08-.09.17-.06.14-.07.16,0,.08v.07l-.06.16,0,.14,0,.16v3.1l0-.16,0-.14.05-.16.06-.14.07-.17.06-.14.08-.16.08-.13.12-.2.07-.11.16-.21.06-.1.29-.33.08-.08.25-.25.11-.11.16-.14.15-.12.18-.14.16-.12.18-.13.18-.12.2-.12.25-.16.74-.39.2-.09A2,2,0,0,1,148.77,97.84Z"/><polygon class="cls-36" points="147.18 104.95 147.18 107.61 142.58 110.28 142.59 107.62 147.18 104.95"/><path class="cls-37" d="M137.42,103.07v-2.65c0,2.6,1.71,5.22,5.16,7.21v2.66C139.13,108.29,137.41,105.67,137.42,103.07Z"/><path class="cls-36" d="M142.59,107.62v2.66c-3.45-2-5.17-4.61-5.16-7.21v-2.65c0,2.6,1.71,5.22,5.16,7.21"/><path class="cls-18" d="M167.25,93.3,162.65,96a17.12,17.12,0,0,0-15.52,0c-4.27,2.47-4.25,6.5.05,9l-4.59,2.66c-6.86-4-6.89-10.37-.08-14.32S160.39,89.33,167.25,93.3Z"/><path class="cls-38" d="M162.65,96.78v1.85c2.16,1.24,3.25,2.89,3.24,4.53V100.5C165.9,98.85,164.81,98,162.65,96.78Z"/><polygon class="cls-38" points="167.19 108.51 167.18 110.35 162.55 107.69 162.56 105.84 167.19 108.51"/><path class="cls-38" d="M172.42,100.81v.5a.52.52,0,0,1,0,.26,1.06,1.06,0,0,0-.05.23,1.29,1.29,0,0,1-.06.25l-.07.23a.73.73,0,0,1-.08.25l-.09.23-.11.26-.11.23-.13.26-.12.21-.19.31-.13.18-.24.34-.11.15-.46.53-.13.13c-.12.14-.26.27-.39.4l-.19.18-.26.22-.24.2-.27.22-.26.19-.3.21-.28.19-.31.19-.41.25-.13.08v2.65l.13-.07.21-.13.2-.12.32-.2.28-.19.29-.21.26-.19.28-.22.24-.2.25-.22.11-.09.08-.09.4-.4.13-.13.45-.53h0l.09-.13c.09-.11.17-.22.25-.34l.13-.18.19-.31.05-.09.07-.13.13-.26.11-.22.11-.27.05-.12,0-.1a.87.87,0,0,1,.08-.26,2,2,0,0,0,.07-.23c0-.07,0-.16.06-.25s0-.09,0-.14,0-.06,0-.09a.6.6,0,0,1,0-.26c0-.09,0-.15,0-.23v-3.23A1,1,0,0,1,172.42,100.81Z"/><path class="cls-30" d="M167.25,94.11c6.85,4,6.88,10.37.08,14.32l-.14.08-4.62-2.67.13-.07c4.27-2.48,4.25-6.51,0-9Z"/><path class="cls-39" d="M164.59,111.56l.57-.23.34-.14.58-.27.28-.13.83-.44v-.62l-.83.44-.28.13-.58.27-.33.14-.57.23-.36.13-.61.21-.38.12-.29.09-.54.15-.29.08-.57.14-.27.07-.85.17v.62l.84-.17.26-.07.57-.14.3-.08.53-.15.3-.09.14,0,.23-.08.62-.21Z"/><path class="cls-40" d="M167.19,109.76a21.87,21.87,0,0,1-6.7,2.37l-2.14-3.57a14,14,0,0,0,4.22-1.47Z"/><path class="cls-27" d="M159.73,111.75l-.53.09-.61.08-.53.06-1,.09H157c-.37,0-.73,0-1.1.05h-2.5a9.28,9.28,0,0,1-1-.08h-.28l-.81-.08-.29,0-1-.16h0l-1-.2-.36-.08-.68-.17-.38-.1-.58-.16-.53-.17-.53-.18-.52-.18-.76-.31-.08,0-.86-.4-.2-.1c-.29-.15-.57-.29-.83-.45v1.11l.83.45.2.1.86.4h.08l.56.24.2.07.52.19.53.18.53.16.32.1.26.07.38.1.68.17.36.08.16,0,.86.16h0l.85.13H151l.29,0,.81.09h.42l.91.06H156l1,0H157l.86-.07H158l.53-.07.62-.08.52-.08.46-.08.3,0v-1.06Z"/><path class="cls-19" d="M158.35,108.05l2.14,3.57c-6.08,1.17-13.05.36-17.9-2.47l4.6-2.67A17,17,0,0,0,158.35,108.05Z"/><path class="cls-41" d="M168.23,5.78l-.15-.09-.18-.09-.18-.08-.17-.08-.18-.07h0l-.13,0-.18,0-.19,0-.19,0H166l-.25,0h0l-.29.08a2.32,2.32,0,0,0-.36.16l-2.89,1.68a2.22,2.22,0,0,1,.62-.24h0a2.56,2.56,0,0,1,.73,0h0a3.16,3.16,0,0,1,.81.17h0a4.7,4.7,0,0,1,.88.41l81,46.76,2.89-1.69Z"/><path class="cls-42" d="M253.57,59.89v-.64a.83.83,0,0,0,0-.22h0a.53.53,0,0,0,0-.21l0-.23-.05-.22-.07-.23,0-.18h0v0l-.08-.23-.08-.22-.08-.21L252.9,57l-.06-.17h0v0l-.1-.21-.11-.23-.14-.26-.15-.28v-.05l0-.06c-.1-.17-.21-.34-.32-.51s-.2-.3-.28-.4l-.19-.25-.17-.21-.16-.2L251,54l0,0h0l-.13-.14-.18-.18-.19-.18-.2-.16-.1-.08h0l-.07-.07-.19-.15-.19-.13-.19-.13-.19-.11h0l-2.9,1.69a6.65,6.65,0,0,1,.88.62h0a8.07,8.07,0,0,1,.8.75h0a9.53,9.53,0,0,1,1.37,1.85v0a9.7,9.7,0,0,1,.51,1h0a8.09,8.09,0,0,1,.4,1.07h0a7.71,7.71,0,0,1,.25,1.08h0a6.23,6.23,0,0,1,.08,1.06l-.17,55.33a4.91,4.91,0,0,1-.09.94h0a3.29,3.29,0,0,1-.24.77h0a2.78,2.78,0,0,1-.33.51.93.93,0,0,1-.13.15,2,2,0,0,1-.47.4l2.9-1.69a2.22,2.22,0,0,0,.47-.4,1.79,1.79,0,0,0,.13-.14l.15-.2c.06-.1.12-.2.17-.3h0l.09-.22a2.09,2.09,0,0,0,.08-.23c0-.08,0-.15.05-.22v-.1h0v-.1a.56.56,0,0,1,0-.21c0-.07,0-.13,0-.21v-.41h0l.16-55.33A.59.59,0,0,0,253.57,59.89Z"/><path class="cls-43" d="M246.32,54.22a9.61,9.61,0,0,1,4.33,7.55l-.13,55.36c0,2.78-2,3.9-4.39,2.48l-81-46.76a9.61,9.61,0,0,1-4.34-7.54L161,10c0-2.77,2-3.89,4.39-2.47Z"/><path class="cls-28" d="M222.85,31.54a3,3,0,0,1,1.37,2.37l-.05,17.39a.84.84,0,0,1-1.38.79l-25.45-14.7A3,3,0,0,1,196,35L196,17.63a.84.84,0,0,1,1.37-.8Z"/><path class="cls-17" d="M174.66,23.82v.79a.61.61,0,0,1-.64.59.68.68,0,0,1-.27-.07L170,23a.6.6,0,0,1-.3-.53v-.78a.62.62,0,0,1,.64-.6.7.7,0,0,1,.27.08l3.71,2.16A.59.59,0,0,1,174.66,23.82Z"/><path class="cls-44" d="M186.44,34.55v.79a.61.61,0,0,1-.64.59.6.6,0,0,1-.27-.07L170,26.9a.63.63,0,0,1-.3-.53v-.79a.62.62,0,0,1,.65-.59.59.59,0,0,1,.26.07l15.52,9A.63.63,0,0,1,186.44,34.55Z"/><polyline class="cls-45" points="167.52 60.4 173.7 57.24 177.74 63.78 182.24 68.36 186.75 65.64 196.38 62.53 200.74 68.75 205.09 72.32 209.05 78.15 214.41 66.89 220.94 69.99 224.36 67.19 231.43 69.06 241.91 68.12"/><path class="cls-46" d="M204.05,24.84c-2.35-1.36-4.56-1-5.48,1.13-1.15,2.66.15,7.16,2.92,10.27l.62-1.49c-1.86-2.19-2.74-5.27-2-7.12.62-1.5,2.21-1.74,3.86-.79a6.19,6.19,0,0,1,1.24.91l.62-1.49A9.65,9.65,0,0,0,204.05,24.84Z"/><path class="cls-47" d="M205.89,26.25l-.62,1.49.31.3c2.13,2.19,3.16,5.57,2.32,7.52a2,2,0,0,1-.1.21l0,.06a2.29,2.29,0,0,1-3.09.83,4.48,4.48,0,0,1-.62-.31l-.17-.09-.25-.17h0c-.17-.12-.33-.25-.5-.39l-.06-.06-.19-.16-.09-.07-.24-.24c-.13-.13-.25-.27-.37-.41l-.62,1.5c.13.13.25.27.37.4l.35.34.1.09.27.24.08.08c.24.2.48.39.71.55l.06,0,.33.22h0l.22.13.53.28.37.16c2,.8,3.78.3,4.58-1.56,1.19-2.79-.28-7.57-3.3-10.68Z"/><path class="cls-17" d="M215.06,34.47v.46a.34.34,0,0,1-.34.35.24.24,0,0,1-.18-.05L212.38,34a.36.36,0,0,1-.17-.31v-.47a.35.35,0,0,1,.34-.35.34.34,0,0,1,.19.05l2.15,1.24A.33.33,0,0,1,215.06,34.47Z"/><path class="cls-17" d="M221.87,40.68v.45a.34.34,0,0,1-.34.36.37.37,0,0,1-.18-.05l-9-5.18a.34.34,0,0,1-.17-.3V35.5a.35.35,0,0,1,.34-.35.34.34,0,0,1,.19.05l9,5.16A.35.35,0,0,1,221.87,40.68Z"/><g class="cls-48"><path class="cls-17" d="M218.17,43.08v.46a.36.36,0,0,1-.34.36.41.41,0,0,1-.19,0l-5.27-3a.36.36,0,0,1-.17-.31V40a.35.35,0,0,1,.34-.35.37.37,0,0,1,.18.05l5.27,3A.35.35,0,0,1,218.17,43.08Z"/></g><path class="cls-30" d="M220.47,42.14v.46a.35.35,0,0,1-.34.36.37.37,0,0,1-.18-.05l-7.57-4.41a.35.35,0,0,1-.18-.3v-.46a.35.35,0,0,1,.34-.35.32.32,0,0,1,.19,0l7.58,4.38A.32.32,0,0,1,220.47,42.14Z"/><path class="cls-49" d="M241.94,62.39c-2.61-1.51-4.74-.29-4.75,2.71a10.38,10.38,0,0,0,4.72,8.16c2.61,1.51,4.73.3,4.74-2.7A10.37,10.37,0,0,0,241.94,62.39Z"/><path class="cls-50" d="M241.93,65.37c-1.18-.68-2.14-.13-2.15,1.24a4.68,4.68,0,0,0,2.14,3.71c1.18.68,2.14.14,2.14-1.24A4.69,4.69,0,0,0,241.93,65.37Z"/><path class="cls-51" d="M175,34.05v.81a.63.63,0,0,1-.62.63.62.62,0,0,1-.32-.09l-3.85-2.22a.61.61,0,0,1-.31-.53v-.82a.62.62,0,0,1,.94-.54l3.85,2.22A.62.62,0,0,1,175,34.05Z"/><path class="cls-51" d="M187.17,45.07v.81a.62.62,0,0,1-.61.63.57.57,0,0,1-.32-.09l-16-9.16a.59.59,0,0,1-.32-.53v-.82a.62.62,0,0,1,.94-.54l16,9.19A.64.64,0,0,1,187.17,45.07Z"/><g class="cls-48"><path class="cls-51" d="M180.56,49.39v.81a.61.61,0,0,1-.61.63.62.62,0,0,1-.32-.09l-9.42-5.43a.6.6,0,0,1-.32-.53V44a.62.62,0,0,1,.94-.54l9.42,5.4A.6.6,0,0,1,180.56,49.39Z"/></g><path class="cls-51" d="M184.69,47.7v.81a.62.62,0,0,1-.61.63.63.63,0,0,1-.33-.09l-13.54-7.76a.62.62,0,0,1-.32-.54v-.82a.61.61,0,0,1,.61-.62.73.73,0,0,1,.33.08l13.54,7.78A.65.65,0,0,1,184.69,47.7Z"/><polygon class="cls-52" points="230.31 103.03 232.49 101.76 232.45 116.6 230.26 117.87 230.31 103.03"/><path class="cls-53" d="M234.77,102.63v-.13h0v-.16h0L228,88.79h0v0l0-.06h-.28L225.46,90a.28.28,0,0,1,.13,0h0a.33.33,0,0,1,.15,0,.7.7,0,0,1,.16.13h0a.9.9,0,0,1,.14.2l6.81,13.55a1.07,1.07,0,0,1,.07.19h0a.48.48,0,0,1,0,.17h0a.33.33,0,0,1,0,.13h0a.18.18,0,0,1-.07.08L235,103.2l.07-.06h0V103h0v0Z"/><path class="cls-54" d="M225.4,89.7a.77.77,0,0,1,.29.33l6.81,13.55c.2.4,0,.73-.29.55l-1.9-1.1,0,14.86-9.94-5.74,0-14.86-1.86-1.06a.67.67,0,0,1-.3-.88l6.86-5.66A.27.27,0,0,1,225.4,89.7Z"/><polygon class="cls-17" points="154.84 121.34 174.5 141.42 193.6 136.45 173.94 116.37 154.84 121.34"/><path class="cls-2" d="M176,122.57l-1.86.71a6.29,6.29,0,0,0-5.53-.87l-.1,0-1.56-1.29.1,0A10.13,10.13,0,0,1,176,122.57Z"/><path class="cls-2" d="M176.19,122.77c1.86,1.62,1.72,3.56-.13,4.69l-1.61-1.32c.85-.7.83-1.75-.14-2.65Z"/><path class="cls-35" d="M175.81,127.6c-.2.1-.41.2-.62.28a10.13,10.13,0,0,1-8.87-1.37l1.86-.71a6.29,6.29,0,0,0,5.43.79,2.84,2.84,0,0,0,.61-.29Z"/><path class="cls-35" d="M168.17,122.58c-1.32.68-1.44,2-.22,3l-1.86.71c-2.08-1.77-1.82-3.94.53-5Z"/><path class="cls-16" d="M174,220.64s-1.54,1.05-.1,3.56,2.7,1,6,3.47,4.43,3,6.19,2.79,2.79-1.06,3.09-2a4.45,4.45,0,0,0-.57-2.6Z"/><path class="cls-15" d="M187.9,220.73s.67,3.28,1,5.79c.1,1.15-1.44,2.73-3.66,2.63s-3.47-.78-4.24-1.74-5.57-2.82-6.46-3.59a4,4,0,0,1-.67-3.67,2.89,2.89,0,0,1,3.37-.86c1.54.67,2.79,1.92,5.88,2.11A9.65,9.65,0,0,0,187.9,220.73Z"/><path class="cls-16" d="M189.29,212.28s-1.54,1.06-.09,3.57,2.7,1,6,3.47,4.43,3,6.19,2.79,2.79-1.06,3.1-2a4.54,4.54,0,0,0-.58-2.6Z"/><path class="cls-15" d="M203.18,212.38s.67,3.28,1,5.78c.1,1.16-1.44,2.74-3.66,2.64s-3.47-.78-4.24-1.74-5.57-2.83-6.46-3.59a4,4,0,0,1-.67-3.67,2.91,2.91,0,0,1,3.37-.87c1.54.68,2.79,1.93,5.88,2.12A9.65,9.65,0,0,0,203.18,212.38Z"/><path class="cls-55" d="M191.19,185.72c.77,6.19,3.86,22.35,4.37,28,0,0,1.29,2.06,5.14,1.54l1.86-.76a1.76,1.76,0,0,0,1.08-1.86c-.39-3.09-1.24-11-.85-15.62a21.41,21.41,0,0,0-1-9.51c.13-1.93.38-8.61-3.47-10.41,0,0-9.44-1.73-7.07,8.61"/><path class="cls-56" d="M199,179.93,198,182s-15.8.77-20,5.4c0,0-2.82.51-2.05,6.68s3.86,22.35,4.37,28c0,0,1.29,2.06,5.14,1.55l1.86-.77a1.76,1.76,0,0,0,1.08-1.85c-.39-3.1-1.24-11-.85-15.63a21.44,21.44,0,0,0-1-9.51,81.23,81.23,0,0,1,14.39,4.37c7.43,3.1,13.88-.51,16.72-2.05a19.21,19.21,0,0,0,3.86-2.57,11.87,11.87,0,0,0,6.94-2.83c3.34-2.83,3.85-10.28.26-14.65S199,179.93,199,179.93Z"/><path class="cls-57" d="M204.69,140.87a4.18,4.18,0,0,0,2.38-4.33c-.77-3.36-1.71-3.59-1.71-3.59s3.57-3.3,7.88-2.26c0,0,2.66,5.4,5.67,7.72C218.91,138.38,216.51,144.72,204.69,140.87Z"/><path class="cls-39" d="M210.28,142.8s9.44-7.9,11.37-8.1c2.32-.19,5.21.57,6,3.86a6,6,0,0,1-2.7,6.74c-1.74,1-17,8.29-19.67,8.29s-4.43-2.31-2.7-5.2S210.28,142.8,210.28,142.8Z"/><path class="cls-40" d="M213.17,137.53s-10,3.34-12.85,8-2.31,9.76-.26,17-2.05,13.62-1,17.48,8.23,7.43,18.76,5.65,11.31-5.91,12.08-8.22-2.05-13.37.52-22.36a15.88,15.88,0,0,0-4.63-16.71C223.71,136.74,219.59,134.7,213.17,137.53Z"/><path class="cls-39" d="M225.76,138.3c-2-1.54-6.19-3.6-12.59-.77,0,0-10,3.34-12.85,8a12.9,12.9,0,0,0-1.48,3.48c4.06-5.28,9.82-7.59,13.56,1.4,3.5,8.4-5.4,33.08-13.18,25.32a9.79,9.79,0,0,0-.18,4.24c1,3.86,8.22,7.43,18.76,5.65s11.31-5.91,12.08-8.22-2.06-13.37.51-22.36A15.88,15.88,0,0,0,225.76,138.3Z"/><path class="cls-17" d="M203.59,141.9s2.7,1.73,9.44.77,7.13-5.78,6.55-6.19a12.62,12.62,0,0,1-1.73-1.92s-7.13,3.27-9.64,4.24-3.86,1.54-3.86,1.54Z"/><path class="cls-58" d="M199.16,120.89s-.58,6.94,3.09,11.56,7.32,1.93,9.63.78,3.28-3.09,4.05-8.67.77-11-3.28-12.72-8.48-2.12-11,2.12S199.16,120.89,199.16,120.89Z"/><path class="cls-59" d="M201.86,112.6s-3.28,2.48-3.1,6.19-1,4.24-.57,6.19,3.46,2.48,3.66,5.21,4.24,3.67,6.36,4.43,5.57-1.73,6.55-3.09.77-4.82,1.93-7.9.57-6.94-.39-9.64a5,5,0,0,0-2.89-3.28,4.69,4.69,0,0,0-3.28-2.47C207.83,107.78,200.7,108.17,201.86,112.6Z"/><path class="cls-1" d="M232.75,226.58c-.36,3.89-4,6.53-7.32,7.95A27.91,27.91,0,0,1,214,236.66a27.23,27.23,0,0,1-11.64-2.58c-3.13-1.55-6.46-4.34-6.45-8.15,0,2.77.18,5.06,2.18,7.22,2.57,2.79,6.44,4.29,10.08,5,7.1,1.47,16.76.75,22.16-4.71,2.18-2.2,2.48-4.52,2.48-7.43A4.91,4.91,0,0,1,232.75,226.58Z"/><path class="cls-2" d="M227.34,218.42c7.23,4.18,7.28,10.94.09,15.12s-18.87,4.17-26.09,0-7.26-10.94-.08-15.12S220.09,214.25,227.34,218.42Z"/><polygon class="cls-3" points="217.63 209.99 217.58 226.12 214.76 227.75 214.81 211.63 217.63 209.99"/><polygon class="cls-4" points="214.81 211.63 214.76 227.75 211.92 226.12 211.97 209.99 214.81 211.63"/><polygon class="cls-5" points="217.63 209.99 214.81 211.63 211.97 209.99 214.79 208.35 217.63 209.99"/><path class="cls-38" d="M250.52,154.9a3.32,3.32,0,0,0-3.43-3.2,3.62,3.62,0,0,0-1,.19c-9.22,3.23-30.33,10.89-31.7,13.62s-5.48,17-7.53,24.28a3.33,3.33,0,0,1-4.11,2.28,3.12,3.12,0,0,1-.77-.34l-12.77-7.52a3.33,3.33,0,0,0-4.55,1.18,3.37,3.37,0,0,0-.41,2.22l2,12.3a3.37,3.37,0,0,0,1.62,2.34l13.67,7.85a26.32,26.32,0,0,0,24.84.72L237,205.55a26.27,26.27,0,0,0,14.51-24.47Z"/><path class="cls-6" d="M214.41,165.52c-1.3,2.59-5.48,17-7.53,24.28a3.33,3.33,0,0,1-4.11,2.28,3.51,3.51,0,0,1-.77-.33l-12.77-7.53a3.33,3.33,0,0,0-4.55,1.18,3.38,3.38,0,0,0-.41,2.22l2,12.3a3.27,3.27,0,0,0,.26.82l.5.77a3.25,3.25,0,0,0,.86.75l13.67,7.85a26.22,26.22,0,0,0,9.24,3.21c11.09-8.6,9.69-44.51,5.67-47.52a5.36,5.36,0,0,0-1.59-.87A2,2,0,0,0,214.41,165.52Z"/><path class="cls-40" d="M189.72,154.62s9.44-7.9,11.37-8.1c2.31-.19,5.21.57,6,3.86a6,6,0,0,1-2.7,6.74c-1.73,1-17,8.29-19.65,8.29s-4.44-2.31-2.7-5.2S189.72,154.62,189.72,154.62Z"/><path class="cls-58" d="M176.42,142.09a6.81,6.81,0,0,1-.58-1.64,11.75,11.75,0,0,0-.1-3.1c-.39-1.55-1.06-2.89-1.35-3.95-.77-1-1.44.78-.86,2.22s.38,2.32-.2,2.41-3-1.35-3.66-2.12-4.53-4.53-4.92-4-.38,1,1,2.41,1.86,2.12,1.92,2.48a6.39,6.39,0,0,0,.49,1.92c.48,1.16.1,1.93,1,3s2.48,1.24,3.28,1.93l.77.67Z"/><path class="cls-40" d="M184.7,165.43s-4,.77-6.23-3.72S172.55,145.14,172,144a4.87,4.87,0,0,1,4.49-2.7s3.6,7.07,5.66,10.28S191.58,164.13,184.7,165.43Z"/><path class="cls-12" d="M125.13,88.8s1.24-.8,2-.57a33.86,33.86,0,0,0,4.11.68c.8.06,2.4-1.36,2.69-1.59s.45-.75.79-1.09.52-.28.52-.91.62-1.2.91-1.49,1.43-1,1.32-1.49-.69-.22-1-.11-1.65,1.32-2.23,1.66a7.13,7.13,0,0,1-2.63.85,5.81,5.81,0,0,1-1.31-.17s-.17,0,.52-.23a9.06,9.06,0,0,1,1.65-.18c.57-.11.85-.45.8-.74s-.8-.28-1.09-.28a24,24,0,0,1-2.68-.06c-.68-.11-1.85,1-2,1.24a5.53,5.53,0,0,1-2.06.62C124.74,85,125.13,88.8,125.13,88.8Z"/><path class="cls-7" d="M100.56,88.18s1.19,3.95,6.19,3.79,17.43-2.47,18.69-2.54a4.84,4.84,0,0,0,.31-5.23s-7.93.09-11.74-.25S98.51,81.5,100.56,88.18Z"/><path class="cls-7" d="M74.1,96.08S72,84,70.67,82.55c-1.64-1.64-4.34-2.92-7.05-.92a6,6,0,0,0-2.31,6.89c.7,1.85,7.57,17.29,9.62,19s4.88,1.1,5.43-2.23S74.1,96.08,74.1,96.08Z"/><path class="cls-12" d="M95.17,102.54s1.64.1,2.21.1,5-.38,5.79-.38a.82.82,0,0,1,.77.86,5.89,5.89,0,0,1,.77,1.74,4.8,4.8,0,0,0,.2,1.64,1.5,1.5,0,0,1-.29,1.24,2.89,2.89,0,0,1-1.16.86,1.55,1.55,0,0,1-1.45.1c-.38-.19-.38-.29.1-.57a4.84,4.84,0,0,0,.87-.68,2.69,2.69,0,0,1-1.44.68,6.33,6.33,0,0,1-3-.3l-2.12-1-1.54-.2Z"/><path class="cls-7" d="M70.62,105.91s1.19,4,6.19,3.79,17.43-2.47,18.69-2.53a4.86,4.86,0,0,0,.3-5.24s-7.93.09-11.73-.24S68.57,99.23,70.62,105.91Z"/></svg>