<svg id="OBJECTS" xmlns="http://www.w3.org/2000/svg" viewBox="0 0 166.86 187.22"><defs><style>.cls-1{fill:#e5e5ef;}.cls-2{fill:#aeb9e5;}.cls-3{fill:#929cd7;}.cls-4{fill:#edeff9;}.cls-5{fill:#7f8ecc;}.cls-6{fill:#dce0f1;}.cls-7{fill:#200a78;}.cls-8{fill:#ba1f69;}.cls-9{fill:#d04583;}.cls-10{fill:#fff;}.cls-11{fill:#e05a9a;}.cls-12{fill:#ea9cc2;}.cls-13{fill:#e2658a;}.cls-14{fill:#1e017e;}.cls-15{fill:#bec1d0;}.cls-16{fill:#5d619c;}.cls-17{fill:#b8b9b9;}.cls-18{fill:#a8b3dd;}.cls-19{fill:#d4dbec;}.cls-20{fill:#f9f9f9;}.cls-21{fill:#5994a8;}.cls-22{fill:#3f6876;}.cls-23{fill:none;}.cls-24{fill:#843e4c;}.cls-25{fill:#793945;}.cls-26{fill:#7d3b47;}.cls-27{fill:#803d4a;}.cls-28{fill:#893f4e;}.cls-29{fill:#8d4150;}.cls-30{fill:#914352;}.cls-31{fill:#954554;}.cls-32{fill:#6c333f;}.cls-33{fill:#713541;}.cls-34{fill:#753743;}.cls-35{fill:#7d3041;}.cls-36{fill:#8b414f;}.cls-37{fill:#712b3b;}.cls-38{fill:#662836;}.cls-39{fill:#823243;}.cls-40{fill:#f0bd86;}.cls-41{fill:#3312a0;}.cls-42{fill:#eedacc;}.cls-43{fill:#7a9d43;}.cls-44{fill:#4d4d78;}.cls-45{fill:#8cb04d;}.cls-46{fill:#9bc154;}.cls-47{fill:#8cb24b;}.cls-48{fill:#47283d;}.cls-49{fill:#a1a1a1;}.cls-50{fill:#a4a4a4;}.cls-51{fill:#a7a7a7;}.cls-52{fill:#aaa;}.cls-53{fill:#adadad;}.cls-54{fill:#b0b0b0;}.cls-55{fill:#b4b4b4;}.cls-56{fill:#b7b7b7;}.cls-57{fill:#bababa;}.cls-58{fill:#bdbdbd;}.cls-59{fill:#a9a9a9;}.cls-60{fill:#9b9b9b;}.cls-61{fill:#9e9e9e;}.cls-62{fill:#959595;}.cls-63{fill:#989898;}.cls-64{fill:#4d4d4d;}.cls-65{fill:#a5a5a5;}.cls-66{fill:#80bfeb;}.cls-67{fill:#95cae1;}.cls-68{fill:#848484;}.cls-69{fill:#888;}.cls-70{fill:#8c8c8c;}.cls-71{fill:#909090;}.cls-72{fill:#949494;}.cls-73{fill:#9c9c9c;}.cls-74{fill:#a0a0a0;}.cls-75{fill:#a8a8a8;}.cls-76{fill:#838383;}.cls-77{fill:#858585;}.cls-78{fill:#878787;}.cls-79{fill:#929292;}.cls-80{fill:#8f8f8f;}.cls-81{fill:#898989;}.cls-82{fill:#868686;}.cls-83{fill:#c3d2eb;}.cls-84{fill:#dfe9f7;}.cls-85{fill:#3a23af;}</style></defs><path class="cls-1" d="M189.19,186.38c-1.05-.61-2.15-1.17-3.3-1.71a2.94,2.94,0,0,1-.25-5.19l3.83-2.22a8.79,8.79,0,0,0,0-15.21L178,155.39a2.93,2.93,0,0,1-1.07-4,2.9,2.9,0,0,1,1.52-1.28,42.24,42.24,0,0,0,6.36-3c14.92-8.63,15-22.58.18-31.2s-38.92-8.62-53.84,0a25.76,25.76,0,0,0-8.51,7.47l-.07,0a5.8,5.8,0,0,0-2-.71,2.92,2.92,0,0,1-1.81-1,27.28,27.28,0,0,0-7.1-5.73c-14.82-8.63-38.92-8.63-53.84,0s-15,22.57-.18,31.17a39.72,39.72,0,0,0,4.81,2.37A2.93,2.93,0,0,1,64,153.32a3,3,0,0,1-1.23,1.41L50.25,162a8.78,8.78,0,0,0-3.2,12,8.69,8.69,0,0,0,3.2,3.2h0a2.93,2.93,0,0,1,1.14,4A2.9,2.9,0,0,1,50,182.42a38.7,38.7,0,0,0-3.63,1.85c-14.91,8.62-15,22.57-.17,31.18s38.92,8.62,53.83,0a30.35,30.35,0,0,0,5.45-4,2.91,2.91,0,0,1,3.46-.39l6.77,3.9a8.76,8.76,0,0,0,8.8,0l2.27-1.32a2.92,2.92,0,0,1,3.42.34,30.22,30.22,0,0,0,5,3.55c14.83,8.63,38.93,8.63,53.84,0S204,195,189.19,186.38Z" transform="translate(-35.17 -36.82)"/><polygon class="cls-2" points="43.42 94.33 51.45 89.67 51.46 86.45 40.65 92.73 43.42 94.33"/><polygon class="cls-3" points="22.79 86.45 22.78 89.67 30.89 94.35 33.67 92.73 22.79 86.45"/><polygon class="cls-2" points="48.05 101.04 48.04 104.26 51.52 102.23 51.53 99.01 48.05 101.04"/><polygon class="cls-3" points="37.17 94.75 37.16 97.97 48.04 104.26 48.05 101.04 37.17 94.75"/><polygon class="cls-4" points="37.17 94.75 48.05 101.04 51.53 99.01 43.42 94.33 40.65 92.73 51.46 86.45 47.96 84.43 37.15 90.71 26.27 84.43 22.79 86.45 33.67 92.73 30.89 94.35 22.86 99.01 26.36 101.04 37.17 94.75"/><polygon class="cls-2" points="26.36 101.04 26.35 104.26 37.16 97.97 37.17 94.75 26.36 101.04"/><polygon class="cls-3" points="22.86 99.01 22.85 102.23 26.35 104.26 26.36 101.04 22.86 99.01"/><path class="cls-2" d="M68.84,124.89v4.35h0a1.73,1.73,0,0,0,1,1.42,5.42,5.42,0,0,0,4.93,0,1.71,1.71,0,0,0,1-1.42h0v-4.35Z" transform="translate(-35.17 -36.82)"/><path class="cls-3" d="M74.78,123.46c1.37.79,1.37,2.07,0,2.86a5.49,5.49,0,0,1-4.93,0c-1.36-.79-1.36-2.07,0-2.86A5.42,5.42,0,0,1,74.78,123.46Z" transform="translate(-35.17 -36.82)"/><path class="cls-4" d="M73.5,100.46a2.59,2.59,0,0,0-2.36,0,.81.81,0,0,0-.48.68v23.53a.82.82,0,0,0,.49.68,2.56,2.56,0,0,0,2.35,0,.82.82,0,0,0,.49-.68h0V101.14h0A.84.84,0,0,0,73.5,100.46Z" transform="translate(-35.17 -36.82)"/><polygon class="cls-3" points="38.86 84.43 61.68 71.16 61.69 66.77 38.87 80.03 38.86 84.43"/><polygon class="cls-5" points="38.87 80.03 61.69 66.77 41.37 55.04 18.55 68.3 38.87 80.03"/><polygon class="cls-2" points="14.34 34.41 10.51 32.2 15.31 70.83 17.02 71.82 19.15 73.04 38.86 84.43 38.87 80.03 18.55 68.3 14.34 34.41"/><polygon class="cls-6" points="14.34 34.41 37.16 21.15 33.33 18.94 10.51 32.2 14.34 34.41"/><polygon class="cls-3" points="18.55 68.3 41.37 55.04 37.16 21.15 14.34 34.41 18.55 68.3"/><path class="cls-7" d="M62,100.86v2.27a10.35,10.35,0,0,0,4.23,8.35l7.18,5.28,26.91-15.17L82.57,92.83Z" transform="translate(-35.17 -36.82)"/><path class="cls-8" d="M83.83,61.38l.8,8.45L87,73.51A17.35,17.35,0,0,0,83.83,61.38Z" transform="translate(-35.17 -36.82)"/><path class="cls-9" d="M87.61,78l-3,5.69v7.57l7.85-10.57a8,8,0,0,0,1.25-2.61Z" transform="translate(-35.17 -36.82)"/><path class="cls-9" d="M92.78,72.07l-9.36-15,.41,4.29A17.34,17.34,0,0,1,87,73.5l1.66,2.61-1,1.91,6.08.09A7.68,7.68,0,0,0,92.78,72.07Z" transform="translate(-35.17 -36.82)"/><path class="cls-6" d="M100.43,79.39A23.69,23.69,0,0,1,108,57.72L93.17,63.4a23.68,23.68,0,0,0-2.91,22.77Z" transform="translate(-35.17 -36.82)"/><path class="cls-2" d="M100.94,80.1A23.7,23.7,0,0,1,110,59L94.81,63.65a23.71,23.71,0,0,0-4.43,22.53Z" transform="translate(-35.17 -36.82)"/><path class="cls-10" d="M79.49,95.76l-8.24,3.39c-4.87,2-10.32-1.42-10.32-6.46V69.85A11.72,11.72,0,0,1,67,59.68l5.11-2.86c5.24-2.94,13.7,2.12,13.7,7.91v21.8A10.06,10.06,0,0,1,79.49,95.76Z" transform="translate(-35.17 -36.82)"/><path class="cls-11" d="M81.48,62.9l.34-1.41a14.94,14.94,0,0,0-7.27-6l3.18,2.19.87,1.78A28.44,28.44,0,0,1,81.48,72v6.93c1-5.88,2.12-15.68,2.12-15.68Z" transform="translate(-35.17 -36.82)"/><path class="cls-9" d="M85.85,62.84a8,8,0,0,0-8-8,8.13,8.13,0,0,0-3.26.7h0a15.09,15.09,0,0,1,7.27,6l-.34,1.41,2.12.3s-1,8.88-2,14.8l4.23-1.91V62.84Z" transform="translate(-35.17 -36.82)"/><path class="cls-8" d="M85.85,76.09,81.62,78c0,.3-.09.59-.14.87v8.74l4.37-2.08Z" transform="translate(-35.17 -36.82)"/><path class="cls-9" d="M81.48,87.62V99.73l2.27-1.09a3.69,3.69,0,0,0,2.09-3.33V85.54Z" transform="translate(-35.17 -36.82)"/><polygon class="cls-6" points="34.27 21.52 35.47 19.72 41.59 24.67 39.78 28.16 34.27 21.52"/><polygon class="cls-6" points="42.56 20.86 41.59 24.67 43.9 26.38 42.56 20.86"/><path class="cls-12" d="M71.58,55l-.81,2.92,6,3.56.65-2.56A7.25,7.25,0,0,1,71.58,55Z" transform="translate(-35.17 -36.82)"/><path class="cls-13" d="M72.12,53.06l-.54,2a7.27,7.27,0,0,0,5.83,3.92l1-3.75Z" transform="translate(-35.17 -36.82)"/><path class="cls-12" d="M74.13,44a13,13,0,0,1-.63,5.9,8.54,8.54,0,0,1-2.27,3.32,7,7,0,0,0,13.36-3.13v-5.4a6.53,6.53,0,0,0-.25-1.81A15,15,0,0,1,74.13,44Z" transform="translate(-35.17 -36.82)"/><path class="cls-14" d="M68.74,47.25a10.94,10.94,0,0,0,2.61,5.94,10.74,10.74,0,0,0,4-8.24,24.51,24.51,0,0,0,6.11.09,9.62,9.62,0,0,0,3.21-1,8.63,8.63,0,0,0-5.2-6.71,8.43,8.43,0,0,0-8.22,1.56C69,40.76,68.4,44.34,68.74,47.25Z" transform="translate(-35.17 -36.82)"/><circle class="cls-12" cx="35.57" cy="14.49" r="2.23"/><path class="cls-11" d="M70.21,60.4l-.77-2.06-.38,9.39,1.71.52-2.09,2.67,4.08,10.39V74.45A39.88,39.88,0,0,0,70.21,60.4Z" transform="translate(-35.17 -36.82)"/><path class="cls-9" d="M69.15,88.78,61.34,68.35S67.5,73.8,71,76.85l-2.33-5.93,2.09-2.67-1.71-.52.38-9.39L66.72,59.7a10.46,10.46,0,0,0-5.79,9.36v32.85L64,103.42a9.41,9.41,0,0,0,8.75-.29V91.7A4.61,4.61,0,0,1,69.15,88.78Z" transform="translate(-35.17 -36.82)"/><path class="cls-8" d="M71,76.85c-3.52-3.06-9.67-8.5-9.67-8.5l7.81,20.43a4.63,4.63,0,0,0,3.64,2.91V81.31Z" transform="translate(-35.17 -36.82)"/><path class="cls-12" d="M87.45,76.42A19.07,19.07,0,0,1,89.74,74a6.27,6.27,0,0,1,3-1.46,3.76,3.76,0,0,1,3.13.87,2.72,2.72,0,0,1,.66,3.07A4.21,4.21,0,0,1,94.8,78a18.38,18.38,0,0,1-3.87,1.73C89.74,78.73,88.63,77.46,87.45,76.42Z" transform="translate(-35.17 -36.82)"/><path class="cls-9" d="M61.6,69.13l8.21,17.12a4.13,4.13,0,0,0,5.51,2h0l15.89-7.72c1.47-4-3.29-4.85-3.29-4.85L74.55,82.24,67.63,66.4a3.32,3.32,0,0,0-4.32-1.72h0A3.33,3.33,0,0,0,61.55,69S61.58,69.1,61.6,69.13Z" transform="translate(-35.17 -36.82)"/><polygon class="cls-2" points="126.91 95.26 118.89 90.6 118.88 87.38 129.69 93.66 126.91 95.26"/><polygon class="cls-3" points="147.55 87.38 147.56 90.6 139.45 95.28 136.67 93.66 147.55 87.38"/><polygon class="cls-2" points="122.29 101.96 122.3 105.18 118.82 103.16 118.8 99.94 122.29 101.96"/><polygon class="cls-3" points="133.17 95.68 133.18 98.9 122.3 105.18 122.29 101.96 133.17 95.68"/><polygon class="cls-4" points="133.17 95.68 122.29 101.96 118.8 99.94 126.91 95.26 129.69 93.66 118.88 87.38 122.38 85.36 133.19 91.64 144.07 85.36 147.55 87.38 136.67 93.66 139.45 95.28 147.48 99.94 143.98 101.96 133.17 95.68"/><polygon class="cls-2" points="143.98 101.96 143.99 105.18 133.18 98.9 133.17 95.68 143.98 101.96"/><polygon class="cls-3" points="147.48 99.94 147.49 103.16 143.99 105.18 143.98 101.96 147.48 99.94"/><path class="cls-2" d="M171.84,125.82v4.34h0a1.76,1.76,0,0,1-1,1.43,5.49,5.49,0,0,1-4.93,0,1.72,1.72,0,0,1-1-1.43h0v-4.34Z" transform="translate(-35.17 -36.82)"/><path class="cls-3" d="M165.89,124.39c-1.36.79-1.36,2.07,0,2.86a5.44,5.44,0,0,0,4.91,0c1.37-.79,1.37-2.07,0-2.85A5.44,5.44,0,0,0,165.89,124.39Z" transform="translate(-35.17 -36.82)"/><path class="cls-4" d="M167.17,101.36a2.65,2.65,0,0,1,2.36,0,.84.84,0,0,1,.48.69v23.53a.82.82,0,0,1-.49.68,2.56,2.56,0,0,1-2.35,0,.82.82,0,0,1-.49-.68h0V102.06h0A.84.84,0,0,1,167.17,101.36Z" transform="translate(-35.17 -36.82)"/><polygon class="cls-3" points="131.48 85.36 108.66 72.09 108.65 67.69 131.47 80.96 131.48 85.36"/><polygon class="cls-5" points="131.47 80.96 108.65 67.69 128.97 55.96 151.79 69.22 131.47 80.96"/><polygon class="cls-2" points="156 35.34 159.83 33.13 155.02 71.76 153.32 72.75 151.19 73.97 131.48 85.36 131.47 80.96 151.79 69.22 156 35.34"/><polygon class="cls-6" points="156 35.34 133.18 22.08 137.01 19.87 159.83 33.13 156 35.34"/><polygon class="cls-3" points="151.79 69.22 128.97 55.96 133.18 22.08 156 35.34 151.79 69.22"/><path class="cls-7" d="M157.45,95l-12.65,7,21.34,14.48,9.44-5.22a11.41,11.41,0,0,0,5.9-10.28l0-2Z" transform="translate(-35.17 -36.82)"/><polygon class="cls-15" points="87.83 114.59 84.72 116.4 81.58 114.59 84.7 112.78 87.83 114.59"/><polygon class="cls-2" points="87.83 114.59 87.8 173.15 84.68 174.96 84.72 116.4 87.83 114.59"/><polygon class="cls-3" points="84.72 116.4 84.68 174.96 81.54 173.15 81.58 114.59 84.72 116.4"/><polygon class="cls-15" points="27.59 79.65 24.48 81.47 21.33 79.65 24.45 77.84 27.59 79.65"/><polygon class="cls-2" points="27.59 79.65 27.56 138.21 24.44 140.03 24.48 81.47 27.59 79.65"/><polygon class="cls-3" points="24.48 81.47 24.44 140.03 21.3 138.21 21.33 79.65 24.48 81.47"/><polygon class="cls-15" points="148.58 79.65 145.46 81.47 142.33 79.65 145.44 77.84 148.58 79.65"/><polygon class="cls-2" points="148.58 79.65 148.55 138.21 145.43 140.03 145.46 81.47 148.58 79.65"/><polygon class="cls-3" points="145.46 81.47 145.43 140.03 142.29 138.21 142.33 79.65 145.46 81.47"/><polygon class="cls-6" points="160.61 86.34 84.94 130.32 8.77 86.34 84.45 42.37 160.61 86.34"/><polygon class="cls-2" points="160.61 86.34 160.6 90.3 84.93 134.28 84.94 130.32 160.61 86.34"/><polygon class="cls-3" points="84.94 130.32 84.93 134.28 8.76 90.3 8.77 86.34 84.94 130.32"/><polygon class="cls-16" points="55.25 64.61 67.2 71.55 86.25 60.55 74.31 53.6 55.25 64.61"/><polygon class="cls-3" points="55.25 64.61 55.25 64.93 67.2 71.87 67.2 71.55 55.25 64.61"/><polygon class="cls-2" points="67.2 71.55 67.2 71.87 86.26 60.87 86.25 60.55 67.2 71.55"/><polygon class="cls-17" points="65.14 58.41 65.14 59.16 76.37 65.68 76.36 64.94 65.14 58.41"/><polygon class="cls-18" points="76.36 64.94 76.37 65.68 85.53 60.39 85.53 59.65 78.51 59.03 76.36 64.94"/><polygon class="cls-18" points="55.98 63.71 55.98 64.45 67.2 70.97 67.2 70.23 55.98 63.71"/><polygon class="cls-19" points="67.2 70.23 67.2 70.97 76.37 65.68 76.36 64.94 70.11 64.97 67.2 70.23"/><path class="cls-10" d="M100.31,95.23l11.22,6.53c-5,.27-9.16,5.29-9.16,5.29l-11.22-6.53S96.39,94.89,100.31,95.23Z" transform="translate(-35.17 -36.82)"/><path class="cls-20" d="M100.31,95.23l11.22,6.53c2.42-3.88,9.16-5.29,9.16-5.29L109.47,90S100.8,91.69,100.31,95.23Z" transform="translate(-35.17 -36.82)"/><polygon class="cls-21" points="105.77 63.36 105.77 63.36 104.76 63.95 104.76 63.95 105.77 63.36"/><polygon class="cls-21" points="104.41 64.15 104.41 64.15 103.96 64.42 103.96 64.42 104.41 64.15"/><polygon class="cls-21" points="103.65 64.6 103.65 64.6 103.2 64.86 103.2 64.86 103.65 64.6"/><polygon class="cls-22" points="105.77 63.36 113.2 67.65 113.2 67.65 105.77 63.36 105.77 63.36 105.77 63.36"/><polygon class="cls-8" points="105.77 63.36 104.76 63.95 112.19 68.24 113.2 67.65 105.77 63.36 105.77 63.36"/><polygon class="cls-22" points="104.41 64.15 111.84 68.44 111.84 68.44 104.41 64.15 104.41 64.15 104.41 64.15"/><polygon class="cls-8" points="104.41 64.15 104.41 64.15 103.96 64.42 111.39 68.71 111.84 68.44 104.41 64.15"/><polygon class="cls-22" points="103.65 64.6 111.08 68.89 111.08 68.89 103.65 64.6 103.65 64.6 103.65 64.6"/><polygon class="cls-8" points="103.65 64.6 103.65 64.6 103.2 64.86 110.63 69.15 111.08 68.89 103.65 64.6"/><path class="cls-9" d="M153.18,104.06,141.63,97.4,126,106.48l11.54,6.66Zm-12.26-3.88,7.43,4.29h0l-1,.59-7.41-4.29h0Zm-1.36.79,7.43,4.29h0l-.45.27-7.44-4.29h0Zm-.76.46,7.43,4.29h0l-.46.26-7.43-4.29h0Z" transform="translate(-35.17 -36.82)"/><polygon class="cls-18" points="90.86 69.65 90.85 72.76 102.4 79.43 102.41 76.31 90.86 69.65"/><polygon class="cls-10" points="102.41 76.31 102.4 79.43 118 70.36 118.01 67.24 102.41 76.31"/><polygon class="cls-8" points="91.27 70.68 91.26 72.72 91.62 72.48 92.14 73.23 92.14 71.18 91.27 70.68"/><polygon class="cls-23" points="123.95 76.03 123.95 76.03 123.95 76.02 123.95 76.03"/><path class="cls-23" d="M148.21,111Z" transform="translate(-35.17 -36.82)"/><path class="cls-23" d="M148.24,111Z" transform="translate(-35.17 -36.82)"/><path class="cls-23" d="M148.43,111Z" transform="translate(-35.17 -36.82)"/><path class="cls-23" d="M159,112.77Z" transform="translate(-35.17 -36.82)"/><path class="cls-23" d="M148.38,111Z" transform="translate(-35.17 -36.82)"/><polygon class="cls-23" points="113.31 74.18 113.31 74.18 113.31 74.18 113.31 74.18"/><path class="cls-23" d="M148.33,111Z" transform="translate(-35.17 -36.82)"/><polygon class="cls-23" points="123.95 76.03 123.95 76.03 123.95 76.03 123.95 76.03"/><path class="cls-23" d="M159.12,112.85Z" transform="translate(-35.17 -36.82)"/><path class="cls-23" d="M143.94,119.63Z" transform="translate(-35.17 -36.82)"/><path class="cls-23" d="M143.94,119.61Z" transform="translate(-35.17 -36.82)"/><path class="cls-23" d="M148.18,111.07Z" transform="translate(-35.17 -36.82)"/><polygon class="cls-23" points="108.78 82.77 108.78 82.77 108.78 82.77 108.78 82.77"/><polygon class="cls-24" points="113.31 74.18 123.78 75.94 123.78 75.94 113.31 74.18 113.31 74.18 113.31 74.18"/><path class="cls-25" d="M148.48,111Z" transform="translate(-35.17 -36.82)"/><path class="cls-26" d="M148.47,111Z" transform="translate(-35.17 -36.82)"/><path class="cls-27" d="M148.43,111Z" transform="translate(-35.17 -36.82)"/><path class="cls-27" d="M148.44,111Z" transform="translate(-35.17 -36.82)"/><path class="cls-24" d="M148.42,111Z" transform="translate(-35.17 -36.82)"/><path class="cls-28" d="M148.38,111Z" transform="translate(-35.17 -36.82)"/><path class="cls-28" d="M148.39,111Z" transform="translate(-35.17 -36.82)"/><path class="cls-29" d="M148.37,111Z" transform="translate(-35.17 -36.82)"/><polygon class="cls-30" points="113.16 74.19 113.16 74.19 113.16 74.19 113.16 74.19 113.16 74.19"/><polygon class="cls-30" points="113.11 74.2 113.11 74.2 113.11 74.2 113.11 74.2 113.11 74.2"/><path class="cls-31" d="M148.28,111Z" transform="translate(-35.17 -36.82)"/><path class="cls-31" d="M148.23,111Z" transform="translate(-35.17 -36.82)"/><path class="cls-30" d="M148.2,111.06Z" transform="translate(-35.17 -36.82)"/><path class="cls-30" d="M148.22,111Z" transform="translate(-35.17 -36.82)"/><path class="cls-29" d="M148.19,111.07Z" transform="translate(-35.17 -36.82)"/><path class="cls-29" d="M148.18,111.08Z" transform="translate(-35.17 -36.82)"/><path class="cls-28" d="M148.17,111.08Z" transform="translate(-35.17 -36.82)"/><polygon class="cls-24" points="112.99 74.28 112.99 74.28 112.99 74.28 112.99 74.28 112.99 74.28 112.99 74.28"/><polygon class="cls-32" points="123.67 76.7 123.67 76.7 123.67 76.7 123.67 76.7 123.67 76.7"/><path class="cls-33" d="M159,112.77Z" transform="translate(-35.17 -36.82)"/><path class="cls-34" d="M159,112.77h0Z" transform="translate(-35.17 -36.82)"/><path class="cls-25" d="M159,112.76Z" transform="translate(-35.17 -36.82)"/><polygon class="cls-35" points="123.39 76.19 123.39 76.19 123.39 76.19 123.39 76.19"/><polygon class="cls-36" points="108.81 82.9 108.81 82.9 108.81 82.9 108.81 82.9"/><polygon class="cls-36" points="108.78 82.77 112.99 74.28 112.99 74.28 108.78 82.77 108.78 82.77 108.78 82.77"/><path class="cls-36" d="M144.08,119.77h0Z" transform="translate(-35.17 -36.82)"/><polygon class="cls-36" points="108.79 82.88 108.79 82.88 108.79 82.88 108.79 82.88 108.79 82.88"/><path class="cls-24" d="M143.94,119.6Z" transform="translate(-35.17 -36.82)"/><polygon class="cls-24" points="108.78 82.84 108.78 82.84 108.78 82.84 108.78 82.84 108.78 82.84"/><polygon class="cls-27" points="108.77 82.84 108.77 82.84 108.78 82.85 108.78 82.85 108.77 82.84"/><polygon class="cls-27" points="108.78 82.78 108.77 82.79 108.78 82.78 108.78 82.78"/><path class="cls-27" d="M143.94,119.62Z" transform="translate(-35.17 -36.82)"/><polygon class="cls-26" points="108.77 82.81 108.77 82.81 108.77 82.81 108.77 82.81 108.77 82.81"/><polygon class="cls-26" points="108.76 82.79 108.76 82.79 108.76 82.79 108.76 82.79 108.76 82.79"/><polygon class="cls-25" points="108.77 82.81 108.77 82.81 108.77 82.81 108.77 82.81"/><polygon class="cls-37" points="108.96 82.96 108.96 82.96 108.96 82.96 108.96 82.96 108.96 82.96"/><path class="cls-38" d="M144,119.69h0v0h0Z" transform="translate(-35.17 -36.82)"/><path class="cls-38" d="M143.94,119.67h0v0h0Z" transform="translate(-35.17 -36.82)"/><path class="cls-38" d="M143.94,119.63h0v0h0Z" transform="translate(-35.17 -36.82)"/><path class="cls-36" d="M154.91,121.44Z" transform="translate(-35.17 -36.82)"/><polygon class="cls-36" points="123.39 76.19 119.33 84.39 119.33 84.39 119.33 84.39 123.39 76.19 123.39 76.19 123.39 76.19"/><polygon class="cls-24" points="109.36 82.71 109.36 82.71 119.33 84.39 119.33 84.39 109.36 82.71"/><path class="cls-9" d="M159,112.77h0L148.5,111h-.25L144,119.5h0v0h0v0h0v0h0l0,0,.06,0h.05l10,1.67.51.09a.35.35,0,0,0,.32-.09h0l.42-.87,3.78-7.62a.06.06,0,0,0,0-.08h0a.1.1,0,0,0,0,0h-.05Zm-.45.24-4.09,8.19h0l-10-1.67h0l4.09-8.2,10,1.68Z" transform="translate(-35.17 -36.82)"/><polygon class="cls-39" points="119.76 84.62 119.76 84.62 120.18 83.75 119.76 84.62 119.76 84.62"/><polygon class="cls-35" points="108.96 82.96 108.96 82.96 118.93 84.63 108.96 82.96"/><polygon class="cls-35" points="119.76 84.62 119.76 84.62 119.76 84.62 119.76 84.62"/><path class="cls-40" d="M156.2,123l5.45-11-14.77-2.49-5.45,11Zm-12.26-3.37h0l4.21-8.49h.23l10.47,1.76h.2a.12.12,0,0,1,0,0h0a0,0,0,0,1,0,.07l-3.73,7.56-.43.87h0a.34.34,0,0,1-.32.09l-.5-.08-10-1.68h0l-.06,0,0,0h0v0h0v0h0a0,0,0,0,1,0,0h0Z" transform="translate(-35.17 -36.82)"/><polygon class="cls-40" points="119.33 84.39 123.39 76.19 123.39 76.19 113.42 74.51 109.36 82.71 109.36 82.71 119.33 84.39"/><polygon class="cls-18" points="106.28 83.69 106.27 87.38 121.02 89.86 121.03 86.17 106.28 83.69"/><polygon class="cls-10" points="121.03 86.17 121.02 89.86 126.46 78.89 126.47 75.21 121.03 86.17"/><polygon class="cls-40" points="105.92 60.54 109.6 66.71 95.31 69.55 91.63 63.37 105.92 60.54"/><polygon class="cls-10" points="109.6 66.71 109.6 69.22 95.3 72.06 95.31 69.55 109.6 66.71"/><polygon class="cls-18" points="95.31 69.55 95.3 72.06 91.63 65.89 91.63 63.37 95.31 69.55"/><polygon class="cls-2" points="73.91 116.78 73.31 116.43 91.42 105.97 103.27 112.86 102.67 113.21 103.27 113.56 102.67 113.91 103.27 114.26 102.67 114.61 103.27 114.96 85.16 125.42 73.31 118.54 73.91 118.19 73.31 117.84 73.91 117.49 73.31 117.13 73.91 116.78"/><polygon class="cls-10" points="73.31 115.73 85.16 122.61 103.27 112.15 91.42 105.27 73.31 115.73"/><path class="cls-41" d="M127.67,146.41l.36-.06a.08.08,0,0,1,.09.07.06.06,0,0,1,0,0l-.25.37A.39.39,0,0,0,127.67,146.41Z" transform="translate(-35.17 -36.82)"/><path class="cls-42" d="M126.44,146.63l1.23-.22a.37.37,0,0,1,.18.42l-.68,1Z" transform="translate(-35.17 -36.82)"/><path class="cls-42" d="M115.62,153.12a.32.32,0,0,0-.46,0,.31.31,0,0,0-.07.28,1.13,1.13,0,0,0,.52.9.33.33,0,0,0,.46,0,.32.32,0,0,0,.07-.28A1.15,1.15,0,0,0,115.62,153.12Z" transform="translate(-35.17 -36.82)"/><path class="cls-41" d="M122.13,149.09l.87-.51,3.31-1.93h.33l0,0,0,0h0l0,0h0l0,0h0l0,0h0v0h0v0h0l0,.05h0v0h0v0h0v.39a.36.36,0,0,1-.15.34l-3.34,1.94-.82.45-6.91,4a.36.36,0,0,0,.15-.34v-.24h0v0h0l0-.06h0l0-.05h0l0,0h0l0-.06h0l0,0h0l0,0v0l0,0h0l0,0h0l0,0h0l-.05,0,0,0h-.3Z" transform="translate(-35.17 -36.82)"/><path class="cls-41" d="M115.61,153.58a.08.08,0,0,0-.12,0,.08.08,0,0,0,0,.09.33.33,0,0,0,.15.27.09.09,0,0,0,.13,0,.1.1,0,0,0,0-.09A.31.31,0,0,0,115.61,153.58Z" transform="translate(-35.17 -36.82)"/><ellipse class="cls-43" cx="116.81" cy="106.38" rx="2.35" ry="3.42" transform="translate(-76.18 76.93) rotate(-45)"/><path class="cls-3" d="M125.75,115.12h-10l.91,6.92h0a2.06,2.06,0,0,0,1.22,1.69,6.44,6.44,0,0,0,5.83,0,2,2,0,0,0,1.2-1.7Z" transform="translate(-35.17 -36.82)"/><path class="cls-18" d="M126.26,112.71h-.76a3.91,3.91,0,0,0-.87-.64,8.6,8.6,0,0,0-7.81,0,3.91,3.91,0,0,0-.87.64h-.74v1.62h0a2.8,2.8,0,0,0,1.63,2.27,8.66,8.66,0,0,0,7.81,0,2.78,2.78,0,0,0,1.61-2.27h0v-1.62Z" transform="translate(-35.17 -36.82)"/><path class="cls-10" d="M124.63,110.47c2.17,1.25,2.17,3.28,0,4.54a8.54,8.54,0,0,1-7.81,0c-2.16-1.25-2.18-3.27,0-4.54A8.54,8.54,0,0,1,124.63,110.47Zm-6.81,4a6.44,6.44,0,0,0,5.83,0c1.61-.93,1.6-2.45,0-3.39a6.44,6.44,0,0,0-5.83,0c-1.6.93-1.59,2.45,0,3.39" transform="translate(-35.17 -36.82)"/><path class="cls-44" d="M123.64,111c1.62.93,1.63,2.45,0,3.39a6.44,6.44,0,0,1-5.83,0c-1.62-.93-1.62-2.45,0-3.39A6.44,6.44,0,0,1,123.64,111Z" transform="translate(-35.17 -36.82)"/><path class="cls-45" d="M123.47,104.14c.1-1.91-1.12-3.57-2.73-3.57h0c-1.6,0-2.82,1.66-2.72,3.57l.45,8.39h0a1.24,1.24,0,0,0,.72,1,3.54,3.54,0,0,0,3.17,0,1.21,1.21,0,0,0,.7-1h0Z" transform="translate(-35.17 -36.82)"/><ellipse class="cls-46" cx="123.57" cy="105.26" rx="2.61" ry="1.79" transform="translate(-73.41 81.39) rotate(-45)"/><ellipse class="cls-47" cx="125.75" cy="103.24" rx="2.07" ry="1.42" transform="translate(-71.34 82.34) rotate(-45)"/><polygon class="cls-2" points="143.83 167.74 151.86 163.07 151.87 159.85 141.06 166.14 143.83 167.74"/><polygon class="cls-3" points="123.19 159.86 123.19 163.08 131.29 167.75 134.08 166.14 123.19 159.86"/><polygon class="cls-2" points="148.46 174.44 148.45 177.66 151.93 175.64 151.94 172.42 148.46 174.44"/><polygon class="cls-3" points="137.58 168.16 137.57 171.38 148.45 177.66 148.46 174.44 137.58 168.16"/><polygon class="cls-4" points="137.58 168.16 148.46 174.44 151.94 172.42 143.83 167.74 141.06 166.14 151.87 159.85 148.37 157.83 137.55 164.12 126.68 157.83 123.19 159.86 134.08 166.14 131.29 167.75 123.26 172.42 126.77 174.44 137.58 168.16"/><polygon class="cls-2" points="126.77 174.44 126.76 177.66 137.57 171.38 137.58 168.16 126.77 174.44"/><polygon class="cls-3" points="123.26 172.42 123.25 175.64 126.76 177.66 126.77 174.44 123.26 172.42"/><path class="cls-2" d="M169.24,198.29v4.35h0a1.77,1.77,0,0,0,1,1.42,5.42,5.42,0,0,0,4.93,0,1.74,1.74,0,0,0,1-1.42h0v-4.35Z" transform="translate(-35.17 -36.82)"/><path class="cls-3" d="M175.19,196.87c1.36.79,1.36,2.06,0,2.85a5.42,5.42,0,0,1-4.93,0c-1.36-.79-1.36-2.07,0-2.85A5.42,5.42,0,0,1,175.19,196.87Z" transform="translate(-35.17 -36.82)"/><path class="cls-4" d="M173.91,173.86a2.59,2.59,0,0,0-2.36,0,.84.84,0,0,0-.49.68v23.53a.84.84,0,0,0,.49.68,2.59,2.59,0,0,0,2.36,0,.84.84,0,0,0,.49-.68h0V174.54h0A.84.84,0,0,0,173.91,173.86Z" transform="translate(-35.17 -36.82)"/><path class="cls-7" d="M160.33,193.22a6.15,6.15,0,0,0,.06-7.5c-1.59,0-3.27-.14-4.86-.12-.58.72-1.82.65-2.73.5s-1.75-.56-2.65-.75a2.91,2.91,0,0,0-2.6.49,2.58,2.58,0,0,0,0,3.3,7.37,7.37,0,0,0,2.9,2.05l3.31,1.62a11,11,0,0,0,3,1.14C157.83,194.12,159.66,194.07,160.33,193.22Z" transform="translate(-35.17 -36.82)"/><path class="cls-48" d="M151.19,158.53l8.36,6,.63,7.64A25.55,25.55,0,0,1,151.19,158.53Z" transform="translate(-35.17 -36.82)"/><path class="cls-7" d="M150.6,157.66l8.89,6.07.06.8-8.36-6a25.56,25.56,0,0,0,9,13.62l1.17,14.34s-3.79,2.52-7.29.09C154.06,186.57,149.71,163.39,150.6,157.66Z" transform="translate(-35.17 -36.82)"/><path class="cls-48" d="M158.55,155.07a12,12,0,0,0-4.22-.64,4.1,4.1,0,0,0-3.46,2.18c-1,2.15.8,4.49,2.54,6.06a43.4,43.4,0,0,0,17.89,9.61l2-13.16Z" transform="translate(-35.17 -36.82)"/><polygon class="cls-3" points="114.31 138.14 137.66 124.58 158.45 136.58 135.1 150.15 114.31 138.14"/><path class="cls-7" d="M149.73,199.89a6.15,6.15,0,0,0,.06-7.5c-1.6,0-3.27-.14-4.87-.12-.57.72-1.81.65-2.72.5s-1.75-.56-2.65-.75a2.91,2.91,0,0,0-2.6.49,2.57,2.57,0,0,0,0,3.29,7.3,7.3,0,0,0,2.9,2.06l3.31,1.62a11,11,0,0,0,3,1.14C147.23,200.79,149.06,200.74,149.73,199.89Z" transform="translate(-35.17 -36.82)"/><path class="cls-7" d="M140.59,165.19l8.36,6,.62,7.64A25.6,25.6,0,0,1,140.59,165.19Z" transform="translate(-35.17 -36.82)"/><path class="cls-41" d="M140,164.31l8.88,6.07.07.79-8.36-6a25.62,25.62,0,0,0,9,13.63l1.18,14.33s-3.79,2.52-7.3.1C143.46,193.24,139.11,170.06,140,164.31Z" transform="translate(-35.17 -36.82)"/><path class="cls-41" d="M182.15,173.63c-.69-2.44-3.51-3.47-6-4.14l-28.26-7.74a12.12,12.12,0,0,0-4.22-.64,4.13,4.13,0,0,0-3.46,2.18c-.94,2.15.81,4.49,2.54,6.06a43.49,43.49,0,0,0,31.18,11,11.93,11.93,0,0,0,5.85-1.5C181.54,177.71,182.73,175.58,182.15,173.63Z" transform="translate(-35.17 -36.82)"/><polygon class="cls-10" points="118.53 130.3 102.94 102.31 118.9 93.89 134.49 121.88 118.53 130.3"/><path class="cls-9" d="M165.36,165.88l1.87-21.06-8,16.14,0-15.38a8.42,8.42,0,0,1,3.8-6.89,53.22,53.22,0,0,1,12.36-5.37,8,8,0,0,1,10.4,7.7v25.39a6.41,6.41,0,0,1-3.51,5.72l-11.3,5.73a8,8,0,0,1-10.81-3.52,8.2,8.2,0,0,1-.88-3.63v-.79C162.32,169.8,165.07,169.24,165.36,165.88Z" transform="translate(-35.17 -36.82)"/><path class="cls-8" d="M167.24,144.82l-1.88,21.06c-.3,3.36-3.05,3.92-6.1,4.06l0-9Z" transform="translate(-35.17 -36.82)"/><path class="cls-9" d="M146.74,154.59l11.45,7.31,2.58-18.09a3.28,3.28,0,0,1,3.72-2.79l.32.06h0a3.28,3.28,0,0,1,2.45,3.74L164,164.5a4.09,4.09,0,0,1-4.72,3.34,4.24,4.24,0,0,1-1.63-.67l-13.87-9.65C143.3,154.55,146.74,154.59,146.74,154.59Z" transform="translate(-35.17 -36.82)"/><path class="cls-12" d="M141.83,147.73l.55-.91,4.36,7.77s-3.41,0-3,2.93l-2-3.49A6.21,6.21,0,0,1,141.83,147.73Z" transform="translate(-35.17 -36.82)"/><path class="cls-12" d="M143.28,151.12l2-3.08a1.09,1.09,0,0,1,1.47-.46,1.08,1.08,0,0,1,.46,1.46,1,1,0,0,1-.11.17l-2,3.08a1.09,1.09,0,0,1-1.82-1.17Z" transform="translate(-35.17 -36.82)"/><path class="cls-12" d="M169.86,113.92a7.66,7.66,0,0,1,8.32,7c0,.23,0,.45,0,.68v3a8.11,8.11,0,0,1-4.17,7.09l-.56.31a7.14,7.14,0,0,1-10.61-6.24v-4.09A7.66,7.66,0,0,1,169.86,113.92Z" transform="translate(-35.17 -36.82)"/><path class="cls-12" d="M169.5,137h0a8,8,0,0,0,6.71,0h0V128.9H169.5Z" transform="translate(-35.17 -36.82)"/><path class="cls-14" d="M165.16,118.73a10.45,10.45,0,0,0,4,9.82c1.53,1.12,2.81,2.92,4.69,2.77a6.06,6.06,0,0,0,4.54-3.07,13.15,13.15,0,0,0,.49-10.75,6,6,0,0,0-4-3.34,5.14,5.14,0,0,0-2.92-2.27,11.41,11.41,0,0,0-3.72-.5,10.05,10.05,0,0,0-3.53.48,4.43,4.43,0,0,0-2.59,2.32,3.42,3.42,0,0,0,.26,3A3.75,3.75,0,0,0,165.16,118.73Z" transform="translate(-35.17 -36.82)"/><circle class="cls-12" cx="132.9" cy="89.84" r="2.77"/><path class="cls-8" d="M176.21,134.51l.71,2.46c-4.67,3-9.88.38-9.88.38l1.58-2A12.59,12.59,0,0,0,176.21,134.51Z" transform="translate(-35.17 -36.82)"/><polygon class="cls-2" points="139.6 120.56 143.52 122.82 138.39 156.55 136.64 155.54 134.47 154.29 114.3 142.65 114.31 138.14 135.1 150.15 139.6 120.56"/><polygon class="cls-6" points="139.6 120.56 162.94 106.99 166.86 109.25 143.52 122.82 139.6 120.56"/><polygon class="cls-3" points="143.52 122.82 166.86 109.25 161.74 142.99 138.39 156.55 143.52 122.82"/><path class="cls-23" d="M84.14,138.33l0,0Z" transform="translate(-35.17 -36.82)"/><path class="cls-23" d="M84.11,138.3h0l0,0Z" transform="translate(-35.17 -36.82)"/><path class="cls-23" d="M84,138.19h0v0Z" transform="translate(-35.17 -36.82)"/><path class="cls-23" d="M106,111Z" transform="translate(-35.17 -36.82)"/><path class="cls-23" d="M84.2,138.38l0,0Z" transform="translate(-35.17 -36.82)"/><path class="cls-23" d="M84.09,138.23v0Z" transform="translate(-35.17 -36.82)"/><path class="cls-23" d="M105.56,150.49Z" transform="translate(-35.17 -36.82)"/><path class="cls-23" d="M104.92,150.36l-.08,0,.08,0Z" transform="translate(-35.17 -36.82)"/><path class="cls-23" d="M105.92,111Z" transform="translate(-35.17 -36.82)"/><path class="cls-23" d="M106,111Z" transform="translate(-35.17 -36.82)"/><path class="cls-23" d="M105.77,150.48Z" transform="translate(-35.17 -36.82)"/><path class="cls-23" d="M105.46,150.49Z" transform="translate(-35.17 -36.82)"/><path class="cls-23" d="M99,129Z" transform="translate(-35.17 -36.82)"/><path class="cls-23" d="M84,138.14h0v0h0Z" transform="translate(-35.17 -36.82)"/><path class="cls-23" d="M120.25,141.13h0v0h0Z" transform="translate(-35.17 -36.82)"/><path class="cls-23" d="M90.71,135.55Z" transform="translate(-35.17 -36.82)"/><path class="cls-23" d="M99,129.13Z" transform="translate(-35.17 -36.82)"/><path class="cls-23" d="M90.72,135.52Z" transform="translate(-35.17 -36.82)"/><path class="cls-23" d="M99,129Z" transform="translate(-35.17 -36.82)"/><path class="cls-23" d="M99,129.18h0v0h0Z" transform="translate(-35.17 -36.82)"/><path class="cls-23" d="M99,129.06Z" transform="translate(-35.17 -36.82)"/><path class="cls-23" d="M84,138.05v0Z" transform="translate(-35.17 -36.82)"/><path class="cls-23" d="M120.23,141.17h0v0h0Z" transform="translate(-35.17 -36.82)"/><path class="cls-23" d="M120.21,141.21h0v0h0Z" transform="translate(-35.17 -36.82)"/><path class="cls-23" d="M120.18,141.25Z" transform="translate(-35.17 -36.82)"/><polygon class="cls-23" points="63.84 92.39 63.84 92.39 63.84 92.39 63.84 92.39"/><path class="cls-23" d="M106.16,111.11h0Z" transform="translate(-35.17 -36.82)"/><path class="cls-23" d="M127.06,123.42h0v0h0Z" transform="translate(-35.17 -36.82)"/><path class="cls-23" d="M119.74,142.43h0l0-.05h0Z" transform="translate(-35.17 -36.82)"/><path class="cls-23" d="M106.05,111.06Z" transform="translate(-35.17 -36.82)"/><polygon class="cls-23" points="69.67 113.5 64 110.22 64 110.22 69.67 113.5"/><path class="cls-23" d="M119.69,142.49h0l0-.05Z" transform="translate(-35.17 -36.82)"/><path class="cls-23" d="M119.66,142.53h0l0,0h0l0,0h0Z" transform="translate(-35.17 -36.82)"/><path class="cls-23" d="M119.76,142.37v0h0v0h0Z" transform="translate(-35.17 -36.82)"/><polygon class="cls-23" points="85.42 104.68 85.41 104.68 85.42 104.68 85.42 104.68 85.42 104.68"/><polygon class="cls-23" points="84.79 105.15 84.8 105.15 84.8 105.15 84.79 105.15"/><polygon class="cls-23" points="85.33 104.82 85.33 104.82 85.33 104.82 85.33 104.82"/><polygon class="cls-23" points="85.38 104.74 85.38 104.74 85.38 104.74 85.38 104.74"/><path class="cls-23" d="M120.45,141.69Z" transform="translate(-35.17 -36.82)"/><polygon class="cls-23" points="85.24 104.92 85.24 104.92 85.24 104.92 85.24 104.92"/><path class="cls-23" d="M119.78,142.31v0h0v0h0Z" transform="translate(-35.17 -36.82)"/><path class="cls-23" d="M126.71,123h0l-.07,0h0Z" transform="translate(-35.17 -36.82)"/><path class="cls-23" d="M127,123.33h0v0h0Z" transform="translate(-35.17 -36.82)"/><path class="cls-23" d="M126.83,123.08l0,0h0l0-.06h0Z" transform="translate(-35.17 -36.82)"/><polygon class="cls-23" points="91.51 86.14 71 74.3 71 74.3 91.51 86.14"/><path class="cls-23" d="M106.1,111.08Z" transform="translate(-35.17 -36.82)"/><path class="cls-23" d="M90.73,135.49Z" transform="translate(-35.17 -36.82)"/><path class="cls-23" d="M126.76,123h0l-.06-.05h0Z" transform="translate(-35.17 -36.82)"/><path class="cls-23" d="M119.54,142.63h0l.07,0h0Z" transform="translate(-35.17 -36.82)"/><path class="cls-23" d="M119.6,142.58h0l.05,0h0Z" transform="translate(-35.17 -36.82)"/><path class="cls-23" d="M106.16,150.4l-.08,0h0l.08,0Z" transform="translate(-35.17 -36.82)"/><path class="cls-23" d="M127,123.26h0l0-.05v0h0Z" transform="translate(-35.17 -36.82)"/><path class="cls-23" d="M126.9,123.16l0,0h0l-.05-.06h0Z" transform="translate(-35.17 -36.82)"/><path class="cls-23" d="M91.85,142.82h0l-7.53-4.35-.07,0,.07,0Z" transform="translate(-35.17 -36.82)"/><path class="cls-23" d="M126.7,124h0v0h0Z" transform="translate(-35.17 -36.82)"/><path class="cls-23" d="M98.09,131.18Z" transform="translate(-35.17 -36.82)"/><path class="cls-23" d="M98.22,131.16Z" transform="translate(-35.17 -36.82)"/><path class="cls-23" d="M98.16,131.18Z" transform="translate(-35.17 -36.82)"/><path class="cls-23" d="M126.69,124h0v0h0Z" transform="translate(-35.17 -36.82)"/><path class="cls-23" d="M126.68,124.07h0v0h0Z" transform="translate(-35.17 -36.82)"/><path class="cls-23" d="M98.28,131.16Z" transform="translate(-35.17 -36.82)"/><polygon class="cls-23" points="70.3 75.02 70.3 75.02 70.3 75.02 70.3 75.02 70.3 75.02"/><path class="cls-23" d="M98.33,131.16Z" transform="translate(-35.17 -36.82)"/><path class="cls-23" d="M90.83,135.37Z" transform="translate(-35.17 -36.82)"/><path class="cls-23" d="M97.92,131.25h0l0,0h0Z" transform="translate(-35.17 -36.82)"/><path class="cls-23" d="M98,131.2Z" transform="translate(-35.17 -36.82)"/><polygon class="cls-23" points="70.32 74.97 70.32 74.96 70.32 74.97 70.32 74.97"/><path class="cls-23" d="M98,131.22Z" transform="translate(-35.17 -36.82)"/><path class="cls-23" d="M98.53,131.19Z" transform="translate(-35.17 -36.82)"/><path class="cls-23" d="M91.88,141.9Z" transform="translate(-35.17 -36.82)"/><path class="cls-23" d="M117.26,142l0,0h0Z" transform="translate(-35.17 -36.82)"/><path class="cls-23" d="M91.9,141.88Z" transform="translate(-35.17 -36.82)"/><path class="cls-23" d="M98.61,131.22h0l.08,0h0Z" transform="translate(-35.17 -36.82)"/><path class="cls-23" d="M90.8,135.42Z" transform="translate(-35.17 -36.82)"/><path class="cls-23" d="M92,141.83Z" transform="translate(-35.17 -36.82)"/><path class="cls-23" d="M91.85,142Z" transform="translate(-35.17 -36.82)"/><path class="cls-23" d="M92,141.81Z" transform="translate(-35.17 -36.82)"/><path class="cls-23" d="M98.43,131.17Z" transform="translate(-35.17 -36.82)"/><path class="cls-23" d="M98.48,131.18Z" transform="translate(-35.17 -36.82)"/><path class="cls-23" d="M91.87,141.93Z" transform="translate(-35.17 -36.82)"/><path class="cls-23" d="M91.86,142Z" transform="translate(-35.17 -36.82)"/><path class="cls-23" d="M98.38,131.17Z" transform="translate(-35.17 -36.82)"/><path class="cls-23" d="M90.76,135.42h0v0h0Z" transform="translate(-35.17 -36.82)"/><polygon class="cls-23" points="63.86 92.12 63.86 92.12 63.86 92.12 63.86 92.12 63.86 92.12"/><path class="cls-23" d="M90.75,135.46Z" transform="translate(-35.17 -36.82)"/><path class="cls-49" d="M99,128.9Z" transform="translate(-35.17 -36.82)"/><path class="cls-50" d="M99,128.92h0v0h0Z" transform="translate(-35.17 -36.82)"/><path class="cls-51" d="M99,129Z" transform="translate(-35.17 -36.82)"/><polygon class="cls-51" points="63.86 92.11 63.86 92.11 63.86 92.11 63.86 92.11 63.86 92.11"/><path class="cls-52" d="M99,129h0v0h0v0Z" transform="translate(-35.17 -36.82)"/><path class="cls-53" d="M99,129h0v0h0Z" transform="translate(-35.17 -36.82)"/><path class="cls-54" d="M99,129Z" transform="translate(-35.17 -36.82)"/><polygon class="cls-54" points="63.84 92.21 63.84 92.21 63.84 92.21 63.84 92.21 63.84 92.21"/><path class="cls-55" d="M99,129.06h0v0h0Z" transform="translate(-35.17 -36.82)"/><path class="cls-56" d="M99,129.1Z" transform="translate(-35.17 -36.82)"/><polygon class="cls-56" points="63.83 92.25 63.83 92.25 63.83 92.24 63.83 92.24 63.83 92.25"/><path class="cls-57" d="M99,129.15Z" transform="translate(-35.17 -36.82)"/><path class="cls-57" d="M99,129.11Z" transform="translate(-35.17 -36.82)"/><path class="cls-58" d="M99,129.2Z" transform="translate(-35.17 -36.82)"/><path class="cls-58" d="M99,129.15Z" transform="translate(-35.17 -36.82)"/><polygon class="cls-59" points="63.87 92.06 63.87 92.06 63.87 92.06 70.28 75.05 70.28 75.05 63.87 92.06"/><path class="cls-60" d="M105.46,111.85Z" transform="translate(-35.17 -36.82)"/><polygon class="cls-60" points="70.3 75.01 70.3 75.01 70.3 75.01 70.3 75.01 70.3 75.01"/><path class="cls-61" d="M105.45,111.87Z" transform="translate(-35.17 -36.82)"/><polygon class="cls-49" points="70.28 75.05 70.28 75.05 70.28 75.05 70.28 75.05 70.28 75.05 70.28 75.05"/><path class="cls-62" d="M105.48,111.81Z" transform="translate(-35.17 -36.82)"/><path class="cls-63" d="M105.47,111.81Z" transform="translate(-35.17 -36.82)"/><polygon class="cls-64" points="65.23 91.78 65.23 91.78 70.99 76.53 70.99 76.53 70.98 76.53 65.23 91.78"/><path class="cls-65" d="M120.15,141.29Z" transform="translate(-35.17 -36.82)"/><path class="cls-65" d="M120.12,141.32Z" transform="translate(-35.17 -36.82)"/><polygon class="cls-65" points="84.92 104.53 84.92 104.53 84.92 104.53 84.92 104.53"/><path class="cls-65" d="M120.17,141.27Z" transform="translate(-35.17 -36.82)"/><polygon class="cls-64" points="85.08 104.31 85.08 104.31 91.49 87.3 91.49 87.3 91.49 87.3 85.08 104.31 85.08 104.31"/><polygon class="cls-64" points="85.06 104.35 85.06 104.35 85.06 104.35 85.06 104.35 85.06 104.35"/><polygon class="cls-64" points="85.04 104.39 85.04 104.39 85.04 104.39 85.04 104.39 85.04 104.39"/><path class="cls-64" d="M120.19,141.25Z" transform="translate(-35.17 -36.82)"/><path class="cls-64" d="M120.16,141.29Z" transform="translate(-35.17 -36.82)"/><path class="cls-64" d="M120.13,141.32Z" transform="translate(-35.17 -36.82)"/><path class="cls-64" d="M120.62,141.43Z" transform="translate(-35.17 -36.82)"/><path class="cls-64" d="M120.1,141.32Z" transform="translate(-35.17 -36.82)"/><path class="cls-64" d="M127.1,124.22v0a.3.3,0,0,1,0-.1v0h0Z" transform="translate(-35.17 -36.82)"/><path class="cls-64" d="M127.09,124.27v.08l-6.42,17,6.42-17,0-.1h0Z" transform="translate(-35.17 -36.82)"/><path class="cls-3" d="M126.7,124h0v0h0v-.21h0v0h0l0,0h0l0,0h0l-.07,0-20.61-12a.36.36,0,0,0-.47.15h0l-6.41,17h0v0h0v.09h0v.16h0v.09h0a.48.48,0,0,0,.21.33l20.51,11.84a.32.32,0,0,0,.36,0h0v0h0v0h0v0l6.41-17v0h0v0h0Zm-1.4.42-5.74,15.22v0l-19.16-11h0l5.75-15.26h0l0,0Z" transform="translate(-35.17 -36.82)"/><path class="cls-64" d="M127.09,123.51v0Z" transform="translate(-35.17 -36.82)"/><path class="cls-64" d="M126.55,123.52Z" transform="translate(-35.17 -36.82)"/><path class="cls-64" d="M127.1,123.57v0h0Z" transform="translate(-35.17 -36.82)"/><path class="cls-64" d="M126.58,123.55Z" transform="translate(-35.17 -36.82)"/><path class="cls-64" d="M126.61,123.59Z" transform="translate(-35.17 -36.82)"/><path class="cls-64" d="M126.63,123.61Z" transform="translate(-35.17 -36.82)"/><path class="cls-64" d="M127.13,123.67v0h0Z" transform="translate(-35.17 -36.82)"/><path class="cls-64" d="M126.66,123.67Z" transform="translate(-35.17 -36.82)"/><path class="cls-64" d="M126.67,123.71Z" transform="translate(-35.17 -36.82)"/><path class="cls-64" d="M127.14,123.78v0h0Z" transform="translate(-35.17 -36.82)"/><path class="cls-64" d="M126.68,123.75Z" transform="translate(-35.17 -36.82)"/><path class="cls-64" d="M127.15,123.88v0Z" transform="translate(-35.17 -36.82)"/><path class="cls-64" d="M126.7,123.84Z" transform="translate(-35.17 -36.82)"/><path class="cls-64" d="M126.69,123.8Z" transform="translate(-35.17 -36.82)"/><path class="cls-64" d="M126.7,123.89Z" transform="translate(-35.17 -36.82)"/><path class="cls-64" d="M127.14,124V124h0v-.09h0Z" transform="translate(-35.17 -36.82)"/><path class="cls-64" d="M126.7,123.93Z" transform="translate(-35.17 -36.82)"/><path class="cls-64" d="M126.7,124Z" transform="translate(-35.17 -36.82)"/><path class="cls-64" d="M127.13,124.09v0h0v-.06Z" transform="translate(-35.17 -36.82)"/><polygon class="cls-64" points="91.52 87.2 91.52 87.2 91.52 87.2 91.52 87.2"/><polygon class="cls-64" points="91.51 87.25 91.51 87.25 91.51 87.25 91.51 87.25 91.51 87.25"/><path class="cls-10" d="M119.47,141.81l.16.12a.8.8,0,0,0,.21,0h.46l0,0h0l0,0h0l0,0h0l0,0h0l0,0h0l0-.05h0l0-.06h0l0-.07,6.41-17,0-.1h0a.15.15,0,0,1,0-.09h0v-.09h0v-.77l0,0h0l0-.07h0l-.06-.06h0l-.06,0h0l-.07,0-20.52-11.85h-.35a.88.88,0,0,0-.82.62l-6.42,16.6a1.23,1.23,0,0,0,.23,1.27L99,130Zm.78-.68h0v0h0v0h0v0h0a.33.33,0,0,1-.36,0L99.21,129.51a.43.43,0,0,1-.2-.32h0v-.09h0v0h0V129h0v0h0v0h0l6.41-17h0a.35.35,0,0,1,.47-.17h0l20.51,11.84.07,0h0l0,0h0l0,0h0v0h0V124h0v0h0v0h0v0h0v.05h0Z" transform="translate(-35.17 -36.82)"/><path class="cls-2" d="M119.92,142h.38l0,0h0l0,0h0l0,0h0l0,0h0l0,0h0l0-.05h0l0-.06h0l0-.07,6.41-17v-.1h0v0h0v0h0v-.1h0v-.08h0v-.17h0v-.35h0v-.07h0v0h0v0h0l-.06-.42h0l0,0h-.08l-20.52-11.84h-.4l.69,0h.3l20.52,11.85h0l0,0h0l0,0h0l0,0h0v0h0l0,0h0l0,0h0l0,.07h0l0,.09h0l0,.08h0v0h0v.09h0v.09h0v.1h0V124h0v.14h0v0h0v0h0v0h0v0h0v0l-6.35,17.06h0v0h0l0,0h0l0,0h0l0,0h0l0,0h0l0,0h0l0,0h-.46l-.69,0h.08Z" transform="translate(-35.17 -36.82)"/><polygon class="cls-66" points="70.98 76.53 70.99 76.53 70.99 76.53 70.99 76.53 70.98 76.53"/><polygon class="cls-67" points="84.39 102.8 84.38 102.83 65.23 91.78 65.23 91.78 70.98 76.53 70.99 76.53 71.03 76.55 90.13 87.58 84.39 102.8"/><polygon class="cls-68" points="63.42 94.39 63.42 94.39 63.42 94.4 63.42 94.4 63.42 94.39"/><polygon class="cls-68" points="63.49 94.43 63.49 94.43 63.49 94.43 63.49 94.43"/><polygon class="cls-69" points="63.42 94.39 63.42 94.39 63.42 94.39 63.42 94.39 63.42 94.39"/><polygon class="cls-69" points="63.35 94.37 63.35 94.37 63.36 94.37 63.36 94.37 63.35 94.37"/><path class="cls-70" d="M98.47,131.18Z" transform="translate(-35.17 -36.82)"/><path class="cls-70" d="M98.51,131.19Z" transform="translate(-35.17 -36.82)"/><path class="cls-71" d="M98.46,131.18Z" transform="translate(-35.17 -36.82)"/><path class="cls-71" d="M98.42,131.17Z" transform="translate(-35.17 -36.82)"/><path class="cls-72" d="M98.41,131.17Z" transform="translate(-35.17 -36.82)"/><path class="cls-72" d="M98.37,131.16Z" transform="translate(-35.17 -36.82)"/><path class="cls-63" d="M98.36,131.16Z" transform="translate(-35.17 -36.82)"/><path class="cls-63" d="M98.32,131.16Z" transform="translate(-35.17 -36.82)"/><path class="cls-73" d="M98.3,131.16Z" transform="translate(-35.17 -36.82)"/><path class="cls-73" d="M98.26,131.16Z" transform="translate(-35.17 -36.82)"/><path class="cls-74" d="M98.2,131.17Z" transform="translate(-35.17 -36.82)"/><path class="cls-74" d="M98.25,131.16Z" transform="translate(-35.17 -36.82)"/><polygon class="cls-50" points="62.96 94.37 62.96 94.37 62.96 94.37 62.96 94.37 62.96 94.37"/><polygon class="cls-50" points="63.03 94.35 63.03 94.35 63.04 94.35 63.04 94.35 63.03 94.35"/><path class="cls-75" d="M98,131.2Z" transform="translate(-35.17 -36.82)"/><path class="cls-75" d="M98.07,131.19Z" transform="translate(-35.17 -36.82)"/><path class="cls-75" d="M98.12,131.18Z" transform="translate(-35.17 -36.82)"/><polygon class="cls-53" points="62.75 94.43 62.75 94.43 62.75 94.43 62.75 94.43"/><path class="cls-53" d="M98,131.2Z" transform="translate(-35.17 -36.82)"/><path class="cls-53" d="M98,131.22Z" transform="translate(-35.17 -36.82)"/><polygon class="cls-56" points="62.75 94.43 55.7 98.53 55.7 98.53 62.75 94.43 62.75 94.43 62.75 94.43"/><path class="cls-53" d="M90.86,135.35Z" transform="translate(-35.17 -36.82)"/><path class="cls-75" d="M90.81,135.39Z" transform="translate(-35.17 -36.82)"/><polygon class="cls-75" points="55.63 98.58 55.63 98.58 55.63 98.58 55.63 98.58 55.63 98.58"/><path class="cls-75" d="M90.85,135.37Z" transform="translate(-35.17 -36.82)"/><path class="cls-50" d="M90.79,135.42Z" transform="translate(-35.17 -36.82)"/><path class="cls-50" d="M90.77,135.71Z" transform="translate(-35.17 -36.82)"/><path class="cls-50" d="M90.76,135.44Z" transform="translate(-35.17 -36.82)"/><polygon class="cls-74" points="55.59 98.62 55.59 98.62 55.59 98.62 55.59 98.62 55.59 98.62"/><path class="cls-74" d="M90.74,135.47Z" transform="translate(-35.17 -36.82)"/><path class="cls-74" d="M90.75,135.68Z" transform="translate(-35.17 -36.82)"/><path class="cls-73" d="M90.72,135.5Z" transform="translate(-35.17 -36.82)"/><path class="cls-73" d="M90.74,135.65Z" transform="translate(-35.17 -36.82)"/><polygon class="cls-73" points="55.57 98.66 55.57 98.66 55.57 98.65 55.57 98.65 55.57 98.66"/><path class="cls-63" d="M90.71,135.53Z" transform="translate(-35.17 -36.82)"/><polygon class="cls-63" points="55.56 98.68 55.56 98.68 55.56 98.68 55.56 98.68 55.56 98.68"/><path class="cls-63" d="M90.72,135.62Z" transform="translate(-35.17 -36.82)"/><path class="cls-72" d="M90.71,135.57Z" transform="translate(-35.17 -36.82)"/><polygon class="cls-72" points="55.54 98.7 55.54 98.7 55.54 98.7 55.54 98.7 55.54 98.7"/><path class="cls-72" d="M90.71,135.59Z" transform="translate(-35.17 -36.82)"/><path class="cls-71" d="M90.71,135.57Z" transform="translate(-35.17 -36.82)"/><path class="cls-76" d="M90.76,135.69Z" transform="translate(-35.17 -36.82)"/><polygon class="cls-76" points="55.6 98.89 55.6 98.89 55.6 98.89 55.6 98.89"/><polygon class="cls-76" points="55.59 98.86 55.59 98.86 55.59 98.86 55.59 98.86"/><path class="cls-76" d="M90.75,135.67Z" transform="translate(-35.17 -36.82)"/><path class="cls-76" d="M90.73,135.64Z" transform="translate(-35.17 -36.82)"/><path class="cls-76" d="M90.71,135.58Z" transform="translate(-35.17 -36.82)"/><path class="cls-76" d="M90.72,135.61Z" transform="translate(-35.17 -36.82)"/><path class="cls-77" d="M102.73,143.38h0Z" transform="translate(-35.17 -36.82)"/><path class="cls-77" d="M96.07,139.61Z" transform="translate(-35.17 -36.82)"/><path class="cls-77" d="M95.92,139.61Z" transform="translate(-35.17 -36.82)"/><path class="cls-77" d="M96.12,139.61Z" transform="translate(-35.17 -36.82)"/><path class="cls-77" d="M95.75,139.64Z" transform="translate(-35.17 -36.82)"/><path class="cls-77" d="M96.17,139.62Z" transform="translate(-35.17 -36.82)"/><path class="cls-77" d="M95.79,139.62Z" transform="translate(-35.17 -36.82)"/><polygon class="cls-77" points="67.63 106.62 67.64 106.62 67.64 106.62 67.63 106.62"/><path class="cls-77" d="M96.22,139.63Z" transform="translate(-35.17 -36.82)"/><path class="cls-77" d="M96.28,139.66h0l.06,0h0Z" transform="translate(-35.17 -36.82)"/><path class="cls-77" d="M102.85,143.54Z" transform="translate(-35.17 -36.82)"/><path class="cls-77" d="M96,139.6Z" transform="translate(-35.17 -36.82)"/><path class="cls-77" d="M96,139.6Z" transform="translate(-35.17 -36.82)"/><path class="cls-77" d="M95.84,139.62Z" transform="translate(-35.17 -36.82)"/><path class="cls-77" d="M102.83,143.48Z" transform="translate(-35.17 -36.82)"/><polygon class="cls-77" points="67.64 106.63 67.64 106.64 67.64 106.63 67.64 106.63"/><path class="cls-77" d="M102.78,143.42Z" transform="translate(-35.17 -36.82)"/><path class="cls-77" d="M102.84,143.51Z" transform="translate(-35.17 -36.82)"/><path class="cls-77" d="M95.63,139.69h0l.05,0h0Z" transform="translate(-35.17 -36.82)"/><path class="cls-77" d="M102.85,143.56Z" transform="translate(-35.17 -36.82)"/><path class="cls-77" d="M95.69,139.66Z" transform="translate(-35.17 -36.82)"/><path class="cls-77" d="M102.75,143.39Z" transform="translate(-35.17 -36.82)"/><path class="cls-68" d="M96.27,139.65Z" transform="translate(-35.17 -36.82)"/><polygon class="cls-68" points="61.17 102.87 61.18 102.87 61.18 102.87 61.17 102.87"/><path class="cls-69" d="M96.21,139.63Z" transform="translate(-35.17 -36.82)"/><polygon class="cls-69" points="61.1 102.83 61.1 102.83 61.1 102.83 61.1 102.83 61.1 102.83"/><path class="cls-70" d="M96.16,139.62Z" transform="translate(-35.17 -36.82)"/><path class="cls-70" d="M96.19,139.63Z" transform="translate(-35.17 -36.82)"/><path class="cls-71" d="M96.11,139.61Z" transform="translate(-35.17 -36.82)"/><path class="cls-71" d="M96.14,139.62Z" transform="translate(-35.17 -36.82)"/><path class="cls-72" d="M96.06,139.61Z" transform="translate(-35.17 -36.82)"/><path class="cls-72" d="M96.09,139.61Z" transform="translate(-35.17 -36.82)"/><path class="cls-63" d="M96,139.6Z" transform="translate(-35.17 -36.82)"/><path class="cls-63" d="M96,139.61Z" transform="translate(-35.17 -36.82)"/><path class="cls-73" d="M96,139.6Z" transform="translate(-35.17 -36.82)"/><path class="cls-73" d="M96,139.6Z" transform="translate(-35.17 -36.82)"/><path class="cls-74" d="M96,139.6Z" transform="translate(-35.17 -36.82)"/><path class="cls-74" d="M95.89,139.61Z" transform="translate(-35.17 -36.82)"/><polygon class="cls-50" points="60.67 102.8 60.67 102.8 60.67 102.8 60.67 102.8 60.67 102.8"/><polygon class="cls-50" points="60.73 102.79 60.73 102.79 60.73 102.79 60.73 102.79 60.73 102.79"/><path class="cls-75" d="M95.74,139.64Z" transform="translate(-35.17 -36.82)"/><path class="cls-75" d="M95.77,139.63Z" transform="translate(-35.17 -36.82)"/><path class="cls-75" d="M95.81,139.62Z" transform="translate(-35.17 -36.82)"/><polygon class="cls-53" points="60.46 102.87 60.46 102.87 60.46 102.87 60.46 102.87 60.46 102.87"/><path class="cls-53" d="M95.67,139.67Z" transform="translate(-35.17 -36.82)"/><path class="cls-53" d="M95.73,139.64Z" transform="translate(-35.17 -36.82)"/><polygon class="cls-56" points="56.83 104.97 56.83 104.97 56.83 104.97 60.46 102.87 60.46 102.87 56.83 104.97"/><polygon class="cls-78" points="82.09 105.17 63.49 94.43 63.49 94.43 63.49 94.43 82.09 105.17 82.09 105.17"/><path class="cls-53" d="M92,141.8Z" transform="translate(-35.17 -36.82)"/><path class="cls-75" d="M92,141.82Z" transform="translate(-35.17 -36.82)"/><path class="cls-75" d="M91.93,141.85Z" transform="translate(-35.17 -36.82)"/><polygon class="cls-50" points="56.76 105.03 56.76 105.03 56.76 105.03 56.76 105.03"/><path class="cls-50" d="M91.9,141.88Z" transform="translate(-35.17 -36.82)"/><polygon class="cls-74" points="56.73 105.06 56.73 105.06 56.73 105.06 56.73 105.06"/><path class="cls-74" d="M91.88,141.91Z" transform="translate(-35.17 -36.82)"/><path class="cls-73" d="M91.86,141.94Z" transform="translate(-35.17 -36.82)"/><circle class="cls-73" cx="56.71" cy="105.08"/><path class="cls-63" d="M91.85,142Z" transform="translate(-35.17 -36.82)"/><path class="cls-63" d="M91.86,142Z" transform="translate(-35.17 -36.82)"/><path class="cls-63" d="M91.85,142v0h0v0Z" transform="translate(-35.17 -36.82)"/><path class="cls-72" d="M91.85,142v0h0Z" transform="translate(-35.17 -36.82)"/><path class="cls-72" d="M91.85,142Z" transform="translate(-35.17 -36.82)"/><polygon class="cls-72" points="56.69 105.2 56.69 105.21 56.69 105.21 56.69 105.21 56.69 105.2"/><polygon class="cls-71" points="56.68 106 56.68 106 56.68 106 56.68 106 56.68 106"/><path class="cls-71" d="M91.85,142Z" transform="translate(-35.17 -36.82)"/><polygon class="cls-68" points="82.09 105.17 82.09 105.17 82.09 105.17 82.09 105.17 82.09 105.17"/><path class="cls-76" d="M91.86,142.05Z" transform="translate(-35.17 -36.82)"/><polygon class="cls-76" points="56.69 105.24 56.69 105.24 56.69 105.24 56.69 105.24"/><path class="cls-76" d="M91.85,142Z" transform="translate(-35.17 -36.82)"/><polygon class="cls-76" points="56.83 106.09 56.83 106.09 56.68 106 56.68 106 56.83 106.09"/><polygon class="cls-78" points="67.53 106.54 61.18 102.87 61.18 102.87 61.18 102.87 67.53 106.54 67.53 106.54 67.53 106.54"/><path class="cls-68" d="M102.81,143.46h0v0h0l0-.06h0Z" transform="translate(-35.17 -36.82)"/><path class="cls-68" d="M102.76,143.4Z" transform="translate(-35.17 -36.82)"/><path class="cls-68" d="M102.78,143.42Z" transform="translate(-35.17 -36.82)"/><path class="cls-68" d="M102.84,143.52Z" transform="translate(-35.17 -36.82)"/><path class="cls-68" d="M102.7,143.36h0l0,0h0Z" transform="translate(-35.17 -36.82)"/><path class="cls-68" d="M102.85,143.56h0v0Z" transform="translate(-35.17 -36.82)"/><path class="cls-68" d="M102.85,143.59v0Z" transform="translate(-35.17 -36.82)"/><polygon class="cls-59" points="64 110.22 64 110.22 63.9 110.17 63.9 110.17 64 110.22"/><polygon class="cls-77" points="63.19 109.75 63.19 109.75 56.83 106.09 56.83 106.09 63.19 109.75"/><polygon class="cls-49" points="63.9 110.17 63.9 110.17 63.79 110.11 63.79 110.11 63.9 110.17"/><polygon class="cls-61" points="63.79 110.11 63.79 110.11 63.69 110.05 63.69 110.05 63.79 110.11"/><polygon class="cls-60" points="63.69 110.05 63.69 110.05 63.63 110.01 63.63 110.01 63.69 110.05"/><polygon class="cls-63" points="63.63 110.01 63.63 110.01 63.58 109.98 63.58 109.98 63.63 110.01"/><polygon class="cls-62" points="63.58 109.98 63.58 109.98 63.52 109.95 63.52 109.95 63.58 109.98"/><polygon class="cls-79" points="63.52 109.95 63.52 109.95 63.47 109.92 63.47 109.92 63.52 109.95"/><polygon class="cls-80" points="63.47 109.92 63.47 109.92 63.42 109.89 63.42 109.89 63.47 109.92"/><polygon class="cls-70" points="63.42 109.89 63.42 109.89 63.37 109.86 63.37 109.86 63.42 109.89"/><polygon class="cls-81" points="63.37 109.86 63.37 109.86 63.32 109.83 63.32 109.83 63.37 109.86"/><polygon class="cls-82" points="63.32 109.83 63.32 109.83 63.26 109.8 63.26 109.8 63.32 109.83"/><polygon class="cls-76" points="63.26 109.8 63.26 109.8 63.19 109.75 63.19 109.75 63.26 109.8"/><path class="cls-83" d="M91.85,142h0v0h0v0h0l3.63-2.1h0l0,0h.58l.07,0h0l6.35,3.67h0l0,0h0v0h0a.09.09,0,0,1,0,.07h0v0h0s0,0,0,0h0a0,0,0,0,1,0,0h0a.26.26,0,0,0-.14-.15l-6.35-3.67a.83.83,0,0,0-.72,0L91.82,142a.34.34,0,0,0-.14.15h0v0h0v0h0Z" transform="translate(-35.17 -36.82)"/><path class="cls-2" d="M92,141.91l3.63-2.1a.76.76,0,0,1,.72,0l6.36,3.66a.4.4,0,0,1,.14.15.29.29,0,0,1-.14.15l-3.64,2.09a.83.83,0,0,1-.72,0L92,142.19a.31.31,0,0,1-.15-.15A.37.37,0,0,1,92,141.91Z" transform="translate(-35.17 -36.82)"/><path class="cls-49" d="M110.16,146.54h0Z" transform="translate(-35.17 -36.82)"/><path class="cls-49" d="M110.1,146.56h0Z" transform="translate(-35.17 -36.82)"/><path class="cls-61" d="M110.07,146.58Z" transform="translate(-35.17 -36.82)"/><path class="cls-61" d="M110,146.58Z" transform="translate(-35.17 -36.82)"/><path class="cls-60" d="M109.93,146.6h0Z" transform="translate(-35.17 -36.82)"/><path class="cls-63" d="M109.88,146.6Z" transform="translate(-35.17 -36.82)"/><path class="cls-62" d="M109.82,146.6Z" transform="translate(-35.17 -36.82)"/><path class="cls-79" d="M109.77,146.6Z" transform="translate(-35.17 -36.82)"/><path class="cls-80" d="M109.72,146.6Z" transform="translate(-35.17 -36.82)"/><path class="cls-70" d="M109.67,146.59Z" transform="translate(-35.17 -36.82)"/><path class="cls-81" d="M109.62,146.58h0Z" transform="translate(-35.17 -36.82)"/><path class="cls-82" d="M109.54,146.55h0Z" transform="translate(-35.17 -36.82)"/><path class="cls-76" d="M109.47,146.52l.06,0Z" transform="translate(-35.17 -36.82)"/><path class="cls-2" d="M84,138h0v.13h0v.08h0l0,0h0l0,0h0l.06.05,7.53,4.34h0l.15.09,6.36,3.67.07,0,.06,0,.06,0,.05,0,0,0,0,0,0,0,0,0,.07,0,.09.05.11.07.1,0,5.67,3.27.07,0h0a1.28,1.28,0,0,0,.5.13h.35a1.7,1.7,0,0,0,.31-.06h0l.07,0h0l.17-.08,13.17-7.64h0l0,0h0v0h0v-.05h0v0h0v1.28h0v-.1h0v0h0l0,0h0l0,0h0l-13,7.85-.07,0h0l-.07,0H104.9l-.08,0L84.3,139.71a.5.5,0,0,1-.3-.45V138Z" transform="translate(-35.17 -36.82)"/><path class="cls-10" d="M119.78,142.3h0a.44.44,0,0,0-.15-.36.61.61,0,0,0-.16-.12L99,130l-.1-.05a1.65,1.65,0,0,0-1.39.05L84.3,137.61a.51.51,0,0,0-.3.43h0a0,0,0,0,0,0,.05h0v.16l0,0h0l0,0h0l0,0h0l.07,0,7.53,4.34h0l.15.09,6.35,3.67.08,0,.06,0,0,0,.05,0,0,0,0,0,0,0,.06,0,.06,0,.1.05.11.07.09,0,5.67,3.28.08,0a1.41,1.41,0,0,0,.49.12h.35a1.55,1.55,0,0,0,.31-.06l.08,0,.17-.07,13.16-7.65.07,0h0l.06,0h0l0-.05h0l0,0h0l0,0h0v-.05h0A.37.37,0,0,0,119.78,142.3ZM91.85,142h0v0h0v0h0l3.63-2.1,0,0h.56l.06,0,6.36,3.67h0v0h0v0h0v0h0v0h0a.34.34,0,0,1-.14.15l-3.34,2.08a.83.83,0,0,1-.72,0L92,142.19a.31.31,0,0,1-.15-.15h0v0h0Zm6.81-10.75L117.28,142l0,0a.22.22,0,0,1,.09.3.23.23,0,0,1-.12.1l-7.06,4.09h-.62l-.07,0h0L90.91,135.73l-.09-.07h0v-.06h0v0h0v0h0l7.05-4.09,0,0h.67Z" transform="translate(-35.17 -36.82)"/><path class="cls-2" d="M90.71,135.55h0v0h0v0h0l7.06-4.09h0l0,0h.77l.07,0h0l18.62,10.74h0a.22.22,0,0,1,.08.3.18.18,0,0,1-.11.1l-7.06,4.09h-.63l-.07,0h0L90.91,135.88l-.1-.07h0v-.08h0Z" transform="translate(-35.17 -36.82)"/><polygon class="cls-2" points="25.55 167.74 17.52 163.07 17.52 159.85 28.33 166.14 25.55 167.74"/><polygon class="cls-3" points="46.19 159.86 46.2 163.08 38.09 167.75 35.31 166.14 46.19 159.86"/><polygon class="cls-2" points="20.92 174.44 20.93 177.66 17.45 175.64 17.44 172.42 20.92 174.44"/><polygon class="cls-3" points="31.8 168.16 31.81 171.38 20.93 177.66 20.92 174.44 31.8 168.16"/><polygon class="cls-4" points="31.8 168.16 20.92 174.44 17.44 172.42 25.55 167.74 28.33 166.14 17.52 159.85 21.02 157.83 31.83 164.12 42.71 157.83 46.19 159.86 35.31 166.14 38.09 167.75 46.12 172.42 42.62 174.44 31.8 168.16"/><polygon class="cls-2" points="42.62 174.44 42.63 177.66 31.81 171.38 31.8 168.16 42.62 174.44"/><polygon class="cls-3" points="46.12 172.42 46.13 175.64 42.63 177.66 42.62 174.44 46.12 172.42"/><path class="cls-2" d="M70.47,198.29v4.35h0a1.76,1.76,0,0,1-1,1.42,5.42,5.42,0,0,1-4.93,0,1.72,1.72,0,0,1-1-1.42h0v-4.35Z" transform="translate(-35.17 -36.82)"/><path class="cls-3" d="M64.53,196.87c-1.36.79-1.36,2.06,0,2.85a5.42,5.42,0,0,0,4.93,0c1.36-.79,1.36-2.07,0-2.85A5.42,5.42,0,0,0,64.53,196.87Z" transform="translate(-35.17 -36.82)"/><path class="cls-4" d="M65.81,173.86a2.59,2.59,0,0,1,2.36,0,.81.81,0,0,1,.48.68v23.53a.82.82,0,0,1-.49.68,2.56,2.56,0,0,1-2.35,0,.82.82,0,0,1-.49-.68h0V174.54h0A.84.84,0,0,1,65.81,173.86Z" transform="translate(-35.17 -36.82)"/><polygon class="cls-3" points="55.07 138.14 31.72 124.58 10.93 136.58 34.28 150.15 55.07 138.14"/><path class="cls-13" d="M88.84,190.39a18.37,18.37,0,0,0-.45-9.33c-.87-2.53-2.09-4.9-2.83-7.45a11.16,11.16,0,0,1,.17-7.79c-1.58,1-3.41,2.05-5,3a46.26,46.26,0,0,0-3.85-8.22l5.25-2a19.64,19.64,0,0,1,4.5-1.36A6.08,6.08,0,0,1,94,162.37a20.51,20.51,0,0,1,.26,5.25l-.83,22.1C92.85,190.35,89.36,191,88.84,190.39Z" transform="translate(-35.17 -36.82)"/><path class="cls-7" d="M90.74,193.5a7.54,7.54,0,0,0-.46,3.36,1.69,1.69,0,0,1-1.17.16,11.41,11.41,0,0,1-1-3.93A4,4,0,0,0,90.74,193.5Z" transform="translate(-35.17 -36.82)"/><path class="cls-13" d="M96.08,192a1.6,1.6,0,0,1-1.43.77,5.92,5.92,0,0,1-1.67-.35,16.38,16.38,0,0,0-5.16-.62,6.81,6.81,0,0,1,1.51-2.7l3.23-.77a11.65,11.65,0,0,0,3.37,2.17.83.83,0,0,1,.09.16A1.54,1.54,0,0,1,96.08,192Z" transform="translate(-35.17 -36.82)"/><path class="cls-7" d="M87.82,191.81a16.28,16.28,0,0,1,5.15.62,6,6,0,0,0,1.67.35,1.63,1.63,0,0,0,1.44-.77,1.55,1.55,0,0,0-.06-1.36l-.09-.16a11.72,11.72,0,0,0,5.45.95.62.62,0,0,1,.69.53,1.66,1.66,0,0,1-.54,1.12,7.6,7.6,0,0,1-7.3,2.15c-.86-.23-1.68-.61-2.56-.78a3.88,3.88,0,0,0-1.36-.06,2.18,2.18,0,0,1-2.5-1.81,1.75,1.75,0,0,1,0-.51,1.26,1.26,0,0,1,0-.28h0Z" transform="translate(-35.17 -36.82)"/><path class="cls-12" d="M95.39,194.77a18.48,18.48,0,0,0-.46-9.33c-.86-2.52-2.09-4.89-2.83-7.45a11.21,11.21,0,0,1,.17-7.79c-1.57,1-3.4,2.05-5,3A47.71,47.71,0,0,0,83.45,165l5.24-2a19.64,19.64,0,0,1,4.5-1.36,6.1,6.1,0,0,1,7.32,5.13,20.09,20.09,0,0,1,.26,5.25L100,194.11C99.39,194.71,95.89,195.42,95.39,194.77Z" transform="translate(-35.17 -36.82)"/><path class="cls-41" d="M97.28,197.88a7.54,7.54,0,0,0-.46,3.36,1.7,1.7,0,0,1-1.17.16,11.41,11.41,0,0,1-1-3.93A4,4,0,0,0,97.28,197.88Z" transform="translate(-35.17 -36.82)"/><path class="cls-12" d="M102.62,196.39a1.6,1.6,0,0,1-1.44.76,6,6,0,0,1-1.67-.34,16,16,0,0,0-5.15-.63,6.84,6.84,0,0,1,1.51-2.69l3.23-.77a11.65,11.65,0,0,0,3.37,2.17.83.83,0,0,1,.09.16A1.57,1.57,0,0,1,102.62,196.39Z" transform="translate(-35.17 -36.82)"/><path class="cls-41" d="M94.36,196.19a16.34,16.34,0,0,1,5.16.62,5.66,5.66,0,0,0,1.67.35,1.6,1.6,0,0,0,1.44-.77,1.55,1.55,0,0,0-.06-1.36l-.09-.16a11.74,11.74,0,0,0,5.45.95.62.62,0,0,1,.69.53,1.64,1.64,0,0,1-.54,1.12,7.58,7.58,0,0,1-7.3,2.15c-.86-.22-1.68-.61-2.56-.78a3.87,3.87,0,0,0-1.36-.06,2.17,2.17,0,0,1-2.5-1.81,1.75,1.75,0,0,1,0-.51,2.33,2.33,0,0,1,0-.28h0Z" transform="translate(-35.17 -36.82)"/><path class="cls-8" d="M62.49,178.92a23.76,23.76,0,0,1-5.48-4.6,9.48,9.48,0,0,1-2.31-6.62c.25-2.73,2-5.12,4.15-6.91,2.86-2.43,6.63-4.09,10.34-3.51a19.68,19.68,0,0,1,5.1,1.82l5.77,2.72A26.94,26.94,0,0,1,85.64,165,8.75,8.75,0,0,1,89,170.34a4.58,4.58,0,0,1-.7,3.43,7.14,7.14,0,0,1-2.76,1.94L76.2,180.2A14.71,14.71,0,0,1,70.84,182C67.82,182.23,65,180.6,62.49,178.92Z" transform="translate(-35.17 -36.82)"/><path class="cls-84" d="M76.88,155.89l-3.63-13.42,6.14.9a47.43,47.43,0,0,0,1.91,5.84,3.06,3.06,0,0,1-1.36,3.89l-.17.09a2.46,2.46,0,0,0-1.18,2.48,50.14,50.14,0,0,0,2.27,6.4A12.41,12.41,0,0,1,76.88,155.89Z" transform="translate(-35.17 -36.82)"/><path class="cls-10" d="M60.48,158.24a17.13,17.13,0,0,0,.64-9.54l-1.65-7.53a6.21,6.21,0,0,1,8.49-7l7.32,3.11a6.14,6.14,0,0,1,3.63,4.28c.15.63.3,1.26.46,1.89l-6.14-.91,3.63,13.42a12.35,12.35,0,0,0,4,6.21c.65,1.69,1.3,3.43,1.72,4.92-6.62,6.3-16.54,1.5-23.57-4.69Z" transform="translate(-35.17 -36.82)"/><polygon class="cls-2" points="47.99 100.36 55.34 92.61 60.52 95.37 53.18 103.12 47.99 100.36"/><polygon class="cls-41" points="59.53 95.53 55.46 93.36 48.98 100.2 53.06 102.37 59.53 95.53"/><polygon class="cls-3" points="60.52 95.37 60.52 96.44 53.18 104.2 47.99 101.44 47.99 100.36 53.18 103.12 60.52 95.37"/><path class="cls-12" d="M90,143.47a19.59,19.59,0,0,1-.68-4.5c1.36-1.48,2.72-2.87,4.11-4.35a3.23,3.23,0,0,1,2.22,2.27,5.34,5.34,0,0,1-.23,3.28,15.79,15.79,0,0,1-1.58,3A8.77,8.77,0,0,1,90,143.47Z" transform="translate(-35.17 -36.82)"/><path class="cls-10" d="M83.28,151l-4.64-10.5A2.82,2.82,0,0,0,74.91,139l-.07,0h0a2.83,2.83,0,0,0-1.36,3.74l6.1,13.12a3.82,3.82,0,0,0,6.54.67l8.2-11a2.8,2.8,0,0,0-.57-3.92,3.31,3.31,0,0,0-.47-.29h0a2.82,2.82,0,0,0-3.45.85Z" transform="translate(-35.17 -36.82)"/><path class="cls-12" d="M89.38,140.51a12,12,0,0,1-1-4.62.6.6,0,0,1,.45-.6h0a.6.6,0,0,1,.73.35l1.48,3.44Z" transform="translate(-35.17 -36.82)"/><path class="cls-12" d="M66.11,134.55l.41-4.21,1,.25a6.49,6.49,0,0,0,4.77,3,17.94,17.94,0,0,1-.45,2.32,5.17,5.17,0,0,1-4.24.68,1.93,1.93,0,0,1-1.37-1.06A2.34,2.34,0,0,1,66.11,134.55Z" transform="translate(-35.17 -36.82)"/><path class="cls-13" d="M67.47,130.59c1.63.43,3.39.8,4.94,1.26a16.42,16.42,0,0,1-.17,1.72A6.5,6.5,0,0,1,67.47,130.59Z" transform="translate(-35.17 -36.82)"/><circle class="cls-12" cx="35.6" cy="86.43" r="9.44"/><path class="cls-14" d="M73,128.5a18.14,18.14,0,0,0,5.53-2.8c3.08-2.48,5.13-7.66,2.09-11a6.09,6.09,0,0,0-6.59-1.48,9.56,9.56,0,0,0-9.89,1.23,10.41,10.41,0,0,0-3.68,9.16,8.83,8.83,0,0,0,4.58,7A6.67,6.67,0,0,0,73,128.5Z" transform="translate(-35.17 -36.82)"/><circle class="cls-12" cx="38.23" cy="91.45" r="2.62"/><path class="cls-41" d="M63.31,129.84a8.74,8.74,0,0,0,1-6.32,11.93,11.93,0,0,1-.63-3.35c.1-1.5,1.14-2.75,1.65-4.16a6.31,6.31,0,0,0-1.81-6.66A5,5,0,0,1,67,112.13a5.68,5.68,0,0,1,.45,2.19,8.11,8.11,0,0,1-.25,2.08c-.34,1.36-1.33,2.69-1.23,4.14.12,1.63.43,3.25.49,4.9a10.47,10.47,0,0,1-1.07,5.61,6.84,6.84,0,0,1-7.18,3.22,6,6,0,0,1-1.77-.68,5.3,5.3,0,0,0,.69,0A7.66,7.66,0,0,0,63.31,129.84Z" transform="translate(-35.17 -36.82)"/><path class="cls-14" d="M53,128.38c.08.75,1.29,1.15,2,1a2.15,2.15,0,0,0,1.47-1.55,4.94,4.94,0,0,0,0-2.23c-.45-2.55-1.47-5-1.46-7.61a9.13,9.13,0,0,1,2.53-6.36c1.33-1.28,3.55-2.5,5.42-2.33a5,5,0,0,1,.56.09A6.3,6.3,0,0,1,65.38,116c-.51,1.41-1.55,2.66-1.66,4.16a11.89,11.89,0,0,0,.64,3.35,8.69,8.69,0,0,1-1,6.32,7.66,7.66,0,0,1-6.13,3.77,5.3,5.3,0,0,1-.69,0A6.87,6.87,0,0,1,53,128.38Z" transform="translate(-35.17 -36.82)"/><polygon class="cls-2" points="29.79 120.56 25.87 122.82 31 156.55 32.74 155.54 34.91 154.29 55.09 142.65 55.07 138.14 34.28 150.15 29.79 120.56"/><polygon class="cls-6" points="29.79 120.56 6.44 106.99 2.52 109.25 25.87 122.82 29.79 120.56"/><polygon class="cls-3" points="25.87 122.82 2.52 109.25 7.64 142.99 31 156.55 25.87 122.82"/><path class="cls-41" d="M156.91,67.21c.86-2.49,2.75-4.43,4.74-6.2a29.18,29.18,0,0,1,0-3.24c-1.57.21-2.58,1.72-3.38,3.09l-6.81,11.59c-5.28-.74-10.56-1.78-15.84-2.52-1.94,1.92-2.92,5.09-1.62,7.48,5.45,1.06,11.06,2,16.57,3.06A6.56,6.56,0,0,0,156,79l.21-6.61A17.57,17.57,0,0,1,156.91,67.21Z" transform="translate(-35.17 -36.82)"/><path class="cls-7" d="M156.91,67.21a17.58,17.58,0,0,0-.69,5.22L156,79a6.53,6.53,0,0,0,1.54-1.81,48.38,48.38,0,0,0,3.63-8.12c.83-2.41.6-5.32.49-8.08A15.13,15.13,0,0,0,156.91,67.21Z" transform="translate(-35.17 -36.82)"/><path class="cls-12" d="M136.27,74A2.38,2.38,0,0,1,133.68,76c-.65-.08-1.3-.2-2-.33L128.25,75c-1-.2-2.08-.43-2.48-1.66a2.33,2.33,0,0,1,.11-1.74,4.11,4.11,0,0,1,3.69-2.08,8,8,0,0,1,6.09,2.45,2.37,2.37,0,0,1,.61,2.06v0Z" transform="translate(-35.17 -36.82)"/><path class="cls-10" d="M171.87,59.94a3.11,3.11,0,0,0-1.17-1,10.67,10.67,0,0,0-2.23-1.14,3.87,3.87,0,0,0-2.47-.07,2.4,2.4,0,0,0-1.64,1.74,130.87,130.87,0,0,0-2.11,13.49L160.7,90.69a63.66,63.66,0,0,0-.35,9,17.41,17.41,0,0,0,3.8,2.43,18.5,18.5,0,0,0,3.22,1.17c0-2.73,0-5.41.06-8.11A131.1,131.1,0,0,1,170,69.05c.37-1.66.79-3.31,1.14-5a19.13,19.13,0,0,1,.46-2.51C171.83,61,172.24,60.6,171.87,59.94Z" transform="translate(-35.17 -36.82)"/><path class="cls-7" d="M180.84,73.11l-.21-.84-6.42.91L172,91l-4.6,4.22c0,2.73-.06,5.41-.06,8.12l.52.13a17.39,17.39,0,0,0,14.55-3.38c-.23-4.62-.06-10-.28-14.6A73.48,73.48,0,0,0,180.84,73.11Z" transform="translate(-35.17 -36.82)"/><path class="cls-41" d="M175.56,62A16.85,16.85,0,0,0,166.88,57a6.71,6.71,0,0,0-7.43,3,16.67,16.67,0,0,0-2,7.57c-.16,4.36.84,8.67,1,13a34.3,34.3,0,0,1-2.27,13.78,16.12,16.12,0,0,0,4.14,5.31,63.6,63.6,0,0,1,.35-9L162,75.36c-.61-2.57-1.28-5.25-1.81-7.72.56-.45,1.36-.87,1.9-1.32-.38-.59-.72-1.06-1.09-1.66l3.26-4.85.07-.37A2.45,2.45,0,0,1,166,57.69a3.94,3.94,0,0,1,2.47.07,11,11,0,0,1,2.24,1.13,3,3,0,0,1,1.17,1c.37.65,0,1.05-.23,1.61L173,66.71,171.23,68l1.16,2.52a37.48,37.48,0,0,0-3.63,5.68,155.17,155.17,0,0,0-1.32,19L172,91l2.19-17.85,6.42-.91A24.64,24.64,0,0,0,175.56,62Z" transform="translate(-35.17 -36.82)"/><path class="cls-85" d="M162.11,66.36c-.56.45-1.37.88-1.9,1.32.55,2.46,1.22,5.14,1.81,7.72l.22-2.44a126.17,126.17,0,0,1,2-13.11L161,64.7C161.39,65.29,161.72,65.76,162.11,66.36Z" transform="translate(-35.17 -36.82)"/><path class="cls-85" d="M171.23,68,173,66.74l-1.36-5.18h0a19.29,19.29,0,0,0-.46,2.5c-.35,1.66-.77,3.31-1.14,5-.52,2.37-.94,4.76-1.28,7.16a39.75,39.75,0,0,1,3.63-5.69Z" transform="translate(-35.17 -36.82)"/><path class="cls-41" d="M178.76,95.53l-12.85,8.14a3.81,3.81,0,0,1-3.15-2c-.6-1.15-.95-2.91.15-3.6,3.56-2.22,6.74-4.19,10.3-6.42l1-19a3.68,3.68,0,0,1,2.58-3.4c1.93-.54,3.56.91,4.18,2.62a11.29,11.29,0,0,1,.4,4.3c-.2,5.17-.48,11.42-1,16.8A3.43,3.43,0,0,1,178.76,95.53Z" transform="translate(-35.17 -36.82)"/><path class="cls-12" d="M159.81,107a10.8,10.8,0,0,0,4.76-3,3.91,3.91,0,0,0,1.21-2.57,3.22,3.22,0,0,0-2.62-2.77,9.33,9.33,0,0,0-4.06.25,3.2,3.2,0,0,0-1.61.67,1.11,1.11,0,0,0-.11,1.56c.45.38,1.19.14,1.78-.07s1.43-.23,1.64.36a6.14,6.14,0,0,1-3.08,1.33c-1.09.3-2.27.91-2.49,2.05a2.27,2.27,0,0,0,1.56,2.37A4.74,4.74,0,0,0,159.81,107Z" transform="translate(-35.17 -36.82)"/><path class="cls-14" d="M159.64,47.64a3.36,3.36,0,0,1-.3-3.89,4.29,4.29,0,0,1-1.1-3,3.52,3.52,0,0,1,1.21-2.6,4.63,4.63,0,0,1,3.76-.84,11.56,11.56,0,0,1,3.65,1.51,6.2,6.2,0,0,1,6.9.91,8.41,8.41,0,0,1,2.68,6.49,7.79,7.79,0,0,1-1.22,4.27,7.09,7.09,0,0,1-5.17,2.92A9.9,9.9,0,0,1,164.19,52,20.89,20.89,0,0,1,159.64,47.64Z" transform="translate(-35.17 -36.82)"/><path class="cls-6" d="M167.14,61.72c2.27-.32,3.67-1.56,4-2.52l.42.7a1.53,1.53,0,0,1,0,1.57,7.12,7.12,0,0,1-3.12,2.65Z" transform="translate(-35.17 -36.82)"/><path class="cls-6" d="M165.73,58.73v1.63c.21,1,1.41,1.36,1.41,1.36l-2,1.32C164.08,60.92,164.66,59.49,165.73,58.73Z" transform="translate(-35.17 -36.82)"/><polygon class="cls-8" points="131.97 24.9 130.41 25.94 130.69 28.11 131.79 28.6 133.03 26.91 131.97 24.9"/><polygon class="cls-8" points="130.69 28.11 126.33 46.05 128.1 49.5 131.44 47.33 131.79 28.6 130.69 28.11"/><path class="cls-12" d="M165.73,59.44v.91h0a1.36,1.36,0,0,0,.79,1.1,4.19,4.19,0,0,0,3.78,0,1.34,1.34,0,0,0,.79-1.1h0v-4.2A9.6,9.6,0,0,1,165.73,59.44Z" transform="translate(-35.17 -36.82)"/><path class="cls-13" d="M171.09,56.15V53.94h0a1.36,1.36,0,0,0-.79-1.1,4.22,4.22,0,0,0-3.79,0,1.33,1.33,0,0,0-.78,1.1v5.5A9.56,9.56,0,0,0,171.09,56.15Z" transform="translate(-35.17 -36.82)"/><circle class="cls-12" cx="138.06" cy="14.9" r="2.14"/><path class="cls-12" d="M171,50.56A7.64,7.64,0,0,1,169,46a12.56,12.56,0,0,1-9-1.55,6.77,6.77,0,0,0-.45,2.4v4a6.76,6.76,0,0,0,6.77,6.75h0A6.75,6.75,0,0,0,173,51.84,7.37,7.37,0,0,1,171,50.56Z" transform="translate(-35.17 -36.82)"/><path class="cls-9" d="M94.91,111.18a.41.41,0,0,1,.26.52.4.4,0,0,1-.26.25l-5.81,3.38a1.48,1.48,0,0,1-1.33,0L81.92,112a.41.41,0,0,1-.26-.52.43.43,0,0,1,.26-.25l5.81-3.38a1.48,1.48,0,0,1,1.33,0Z" transform="translate(-35.17 -36.82)"/><path class="cls-8" d="M95.19,111.6v.13l0,0h0l0,0h0l0,0,0,0H95l0,0-5.81,3.38-.09,0h0l-.07,0H88l-.1,0h-.07l-.07,0L81.9,111.9a.45.45,0,0,1-.27-.39V112a.45.45,0,0,0,.27.39l5.85,3.38.07,0h.07l.1,0h1l.07,0h0l.1,0,5.81-3.38H95l0,0h0l0,0h0v0h0v0h0v0h0v0h0v-.45Z" transform="translate(-35.17 -36.82)"/><polygon class="cls-17" points="50.13 73.42 50.63 73.13 50.63 73.56 50.12 73.85 50.13 73.42"/><path class="cls-10" d="M84.69,109.31l-.07,0h0l-.07,0h0l-.06-.06h0l-.06,0h0l-.06-.07h0l-.06-.08h0l0-.07,0,0,0,0h0l0-.07h0l0-.09h0l0-.08h0l0-.09h0v-.08h0v-.08h0v-.09h0v-2.72h0v-.07h0v-.06h0v0h0l0-.06h0l0,0h0l0,0h0l0,0-.5.29,0,0h0l0,0h0l0,0h0l0,0h0v.29h0v2.73h0v.06h0v.07h0v.07h0v.07h0V109h0v0l0,0h0l.05.06h0l0,0,0,0h0l0,0,0,0h0l0,0h0l0,0h0l.26.24h.08l1.11.64.5-.29Z" transform="translate(-35.17 -36.82)"/><path class="cls-10" d="M84.7,104.66h-.43l-.18-.12H84l-.5.29h.62l.05,0,1.11.64.5-.29Z" transform="translate(-35.17 -36.82)"/><polygon class="cls-17" points="50.14 68.78 50.64 68.48 50.64 68.91 50.14 69.2 50.14 68.78"/><path class="cls-18" d="M85.31,105.6V106l-1.11-.64a.46.46,0,0,0-.64.09.47.47,0,0,0-.09.33v2.56a1.58,1.58,0,0,0,.73,1.24l1.1.64v.43L84.2,110a2.39,2.39,0,0,1-1.09-1.89v-2.56c0-.69.49-1,1.09-.62Z" transform="translate(-35.17 -36.82)"/><path class="cls-18" d="M91.86,104.51H85v6.73h0a1.75,1.75,0,0,0,1,1.42,5.36,5.36,0,0,0,4.87,0,1.74,1.74,0,0,0,1-1.42h0v-6.73Z" transform="translate(-35.17 -36.82)"/><path class="cls-10" d="M90.85,103.1c1.36.78,1.36,2.05,0,2.83a5.38,5.38,0,0,1-4.88,0c-1.36-.78-1.36-2.05,0-2.83A5.38,5.38,0,0,1,90.85,103.1Z" transform="translate(-35.17 -36.82)"/><path class="cls-18" d="M88.41,104.63a4.72,4.72,0,0,1,2.27.54,2.08,2.08,0,0,1,.34.24,1.19,1.19,0,0,0,.51-.91,1.44,1.44,0,0,0-.86-1.13,5,5,0,0,0-4.54,0,1.42,1.42,0,0,0-.83,1.12,1.17,1.17,0,0,0,.5.91l.33-.23A4.65,4.65,0,0,1,88.41,104.63Z" transform="translate(-35.17 -36.82)"/><path class="cls-41" d="M88.43,106.18a4.61,4.61,0,0,0,2.27-.54,3.29,3.29,0,0,0,.33-.23l-.35-.23a5,5,0,0,0-4.54,0,3.15,3.15,0,0,0-.33.22,2.71,2.71,0,0,0,.35.24A4.58,4.58,0,0,0,88.43,106.18Z" transform="translate(-35.17 -36.82)"/><path class="cls-9" d="M129.29,125.35a.41.41,0,0,0-.25.52.4.4,0,0,0,.25.26l5.81,3.37a1.42,1.42,0,0,0,1.33,0l5.86-3.37a.42.42,0,0,0,.25-.52.46.46,0,0,0-.25-.26L136.48,122a1.44,1.44,0,0,0-1.34,0Z" transform="translate(-35.17 -36.82)"/><path class="cls-8" d="M129,125.77v.13l0,0h0l0,0h0l0,0,0,0h.06l0,0,5.81,3.38.09.05h0l.07,0h.91l.09,0h.07l.07,0,5.85-3.38a.46.46,0,0,0,.28-.39v.46a.46.46,0,0,1-.28.39L136.43,130l-.07,0h-.06l-.1,0h-.9l-.08,0h0l-.1,0-5.81-3.38h-.08l0,0h0l0,0h0v0h0v0h0v0h0v0h0V126Z" transform="translate(-35.17 -36.82)"/><polygon class="cls-17" points="103.74 87.6 103.24 87.31 103.24 87.73 103.74 88.03 103.74 87.6"/><path class="cls-10" d="M139.51,123.49l.08,0h0l.06,0h0l.06,0h0l.06-.06h0l.06-.07h0l.06-.08h0l.05-.06,0,0,0,0h0l0-.07h0l0-.08h0l0-.08h0l0-.09h0v-.08h0v-.09h0v-.08h0v-2.72h0v-.07h0v-.06h0v0h0l0-.06h0l0,0h0l0,0h0l0,0,.5.29,0,0h0l0,0h0l0,0h0l0,.05h0v.29h0v2.62h0v.17h0v.07h0V123h0v.07h0v.07h0v0l0,0h0l0,.06h0l0,0,0,0h0l0,0,0,0h0l0,0h0l0,0h0l0,0h-.08l-1.11.64-.5-.29Z" transform="translate(-35.17 -36.82)"/><path class="cls-10" d="M139.5,118.84h.61l.5.29H140l-.05,0-1.11.64-.5-.29Z" transform="translate(-35.17 -36.82)"/><polygon class="cls-17" points="103.72 82.95 103.23 82.66 103.23 83.09 103.72 83.38 103.72 82.95"/><path class="cls-18" d="M138.9,119.77v.43l1.1-.64a.45.45,0,0,1,.64.08.49.49,0,0,1,.09.33v2.56a1.62,1.62,0,0,1-.72,1.25l-1.11.64v.43l1.11-.64a2.43,2.43,0,0,0,1.09-1.89v-2.56c0-.7-.5-1-1.1-.63Z" transform="translate(-35.17 -36.82)"/><path class="cls-18" d="M132.34,118.69h6.89v6.74h0a1.72,1.72,0,0,1-1,1.41,5.36,5.36,0,0,1-4.87,0,1.71,1.71,0,0,1-1-1.41h0v-6.74Z" transform="translate(-35.17 -36.82)"/><path class="cls-10" d="M133.36,117.28c-1.37.78-1.37,2,0,2.83a5.36,5.36,0,0,0,4.87,0c1.36-.78,1.36-2,0-2.83A5.36,5.36,0,0,0,133.36,117.28Z" transform="translate(-35.17 -36.82)"/><path class="cls-18" d="M135.79,118.81a4.72,4.72,0,0,0-2.27.54,2.62,2.62,0,0,0-.34.24,1.16,1.16,0,0,1-.5-.91,1.41,1.41,0,0,1,.85-1.13,5,5,0,0,1,4.54,0,1.38,1.38,0,0,1,.83,1.12,1.17,1.17,0,0,1-.5.91,2.75,2.75,0,0,0-.33-.23A4.62,4.62,0,0,0,135.79,118.81Z" transform="translate(-35.17 -36.82)"/><path class="cls-41" d="M135.77,120.36a4.72,4.72,0,0,1-2.27-.54,3.88,3.88,0,0,1-.33-.23,2.16,2.16,0,0,1,.35-.24,5,5,0,0,1,4.54,0l.33.23a2.71,2.71,0,0,1-.35.24A4.72,4.72,0,0,1,135.77,120.36Z" transform="translate(-35.17 -36.82)"/><path class="cls-9" d="M123.28,94.73a.41.41,0,0,0,0,.77l5.81,3.38a1.5,1.5,0,0,0,1.34,0l5.85-3.38a.41.41,0,0,0,.25-.52.39.39,0,0,0-.25-.25l-5.81-3.38a1.44,1.44,0,0,0-1.34,0Z" transform="translate(-35.17 -36.82)"/><path class="cls-8" d="M123,95.14v.14l0,0h0l0,0h0l0,0,0,0h.06l0,0L129,98.82l.09.05h0l.07,0h.91l.1,0h.07l.06,0,5.86-3.38a.43.43,0,0,0,.27-.39v.46a.45.45,0,0,1-.27.39l-5.86,3.38-.06,0h-.07l-.1,0h-.9l-.07,0h0l-.09,0-5.81-3.38h0l0,0h0l0,0h0l0,0h0v0h0v0h0v0h0v0h0v-.46A.9.9,0,0,0,123,95.14Z" transform="translate(-35.17 -36.82)"/><polygon class="cls-17" points="97.73 56.97 97.23 56.68 97.23 57.11 97.74 57.4 97.73 56.97"/><path class="cls-10" d="M133.51,92.86l.07,0h0l.07,0h0l.06-.05h0l.06-.06h0l.06-.07h0l.06-.07h0l.05-.07,0,0,0,0h0l0-.07h0l0-.08h0l0-.08h0l0-.09h0V92h0v-.08h0v-.09h0V89.06h0V89h0v-.06h0v-.05h0l0-.06h0l0,0h0l0,0h0l0,0,.5.29,0,0h0l0,0h0l0,0h0l0,0h0v.29h0v2.74h0v.17h0v.07h0v.06h0v.08h0v.06h0v0l0,0h0l0,.06h0l0,0,0,0h0l0,0,0,0h0l0,0h0l0,0h0l0,0h-.08l-1.11.64-.5-.29Z" transform="translate(-35.17 -36.82)"/><path class="cls-10" d="M133.5,88.2h.61l.5.29H134l-.05,0-1.11.64-.5-.3Z" transform="translate(-35.17 -36.82)"/><polygon class="cls-17" points="97.72 52.32 97.22 52.03 97.22 52.46 97.72 52.75 97.72 52.32"/><path class="cls-18" d="M132.89,89.14v.42l1.11-.64a.45.45,0,0,1,.72.41v2.56a1.56,1.56,0,0,1-.72,1.25l-1.11.64v.43l1.11-.64a2.39,2.39,0,0,0,1.09-1.89V89.12c0-.7-.49-1-1.1-.63Z" transform="translate(-35.17 -36.82)"/><path class="cls-18" d="M126.33,88.06h6.89v6.73h0a1.71,1.71,0,0,1-1,1.41,5.38,5.38,0,0,1-4.88,0,1.7,1.7,0,0,1-1-1.41h0V88.06Z" transform="translate(-35.17 -36.82)"/><path class="cls-10" d="M127.35,86.65c-1.36.78-1.36,2,0,2.82a5.38,5.38,0,0,0,4.88,0c1.36-.78,1.36-2,0-2.82A5.38,5.38,0,0,0,127.35,86.65Z" transform="translate(-35.17 -36.82)"/><path class="cls-18" d="M129.79,88.2a4.61,4.61,0,0,0-2.27.54,4,4,0,0,0-.34.23,1.18,1.18,0,0,1-.51-.9,1.41,1.41,0,0,1,.86-1.13,5,5,0,0,1,4.54,0,1.38,1.38,0,0,1,.83,1.12,1.16,1.16,0,0,1-.5.9,3.15,3.15,0,0,0-.33-.22A4.54,4.54,0,0,0,129.79,88.2Z" transform="translate(-35.17 -36.82)"/><path class="cls-41" d="M129.77,89.73a4.61,4.61,0,0,1-2.27-.54,2.75,2.75,0,0,1-.33-.23,2.62,2.62,0,0,1,.34-.24,5,5,0,0,1,4.54,0,2.75,2.75,0,0,1,.33.23,2.08,2.08,0,0,1-.34.24A4.72,4.72,0,0,1,129.77,89.73Z" transform="translate(-35.17 -36.82)"/><path class="cls-9" d="M79.35,127.08a.41.41,0,0,0-.25.52.4.4,0,0,0,.25.26l5.81,3.37a1.44,1.44,0,0,0,1.34,0l5.85-3.37a.41.41,0,0,0,.25-.52.43.43,0,0,0-.25-.26l-5.81-3.37a1.44,1.44,0,0,0-1.34,0Z" transform="translate(-35.17 -36.82)"/><path class="cls-8" d="M79.09,127.5v.13l0,0h0l0,0h0l0,0,0,0h.06l0,0,5.81,3.38.09,0h0l.07,0h.91l.1,0h.06l.07,0,5.85-3.38a.46.46,0,0,0,.28-.39v.46a.46.46,0,0,1-.28.39l-5.85,3.37-.07,0h0v.11h0l-.1,0h-.8v0h-.08l-.07,0h0l-.09,0-5.81-3.38h-.08l0,0h0l0,0h0v0h0v0h0v0h0v0h0v-.46S79.09,127.49,79.09,127.5Z" transform="translate(-35.17 -36.82)"/><polygon class="cls-17" points="53.8 89.33 53.3 89.04 53.3 89.46 53.8 89.75 53.8 89.33"/><path class="cls-10" d="M89.58,125.22l.07,0h0l.06,0h0l.06-.05h0l.06-.06h0l.06-.07h0l.06-.08h0l0-.06,0,0,0,0h0l0-.07h0l0-.08h0l0-.09h0l0-.08h0v-.08h0v-.09h0v-.09h0v-2.72h0v-.06h0v-.06h0v-.06h0l0,0h0l0,0h0l0,0h0l0,0,.5.29,0,0h0l0,0h0l0,0h0l0,0h0v.28h0v2.74h0v.17h0v.07h0v.06h0v.07h0V125h0v0l0,0h0l0,.06h0l0,0,0,0h0l0,0,0,0h0l0,0h0l0,0h0l0,0h-.09l-1.11.64-.5-.29Z" transform="translate(-35.17 -36.82)"/><path class="cls-10" d="M89.57,120.57h.61l.5.29h-.62l0,0-1.11.64-.5-.29Z" transform="translate(-35.17 -36.82)"/><polygon class="cls-17" points="53.79 84.68 53.29 84.39 53.29 84.81 53.79 85.1 53.79 84.68"/><path class="cls-18" d="M89,121.5v.43l1.11-.64a.45.45,0,0,1,.72.41v2.56a1.59,1.59,0,0,1-.72,1.25l-1.11.64v.43l1.11-.64a2.43,2.43,0,0,0,1.09-1.89v-2.56c0-.7-.5-1-1.1-.63Z" transform="translate(-35.17 -36.82)"/><path class="cls-18" d="M82.4,120.43h6.89v6.73h0a1.73,1.73,0,0,1-1,1.41,5.38,5.38,0,0,1-4.88,0,1.68,1.68,0,0,1-1-1.41h0v-6.73Z" transform="translate(-35.17 -36.82)"/><path class="cls-10" d="M83.42,119c-1.36.78-1.36,2,0,2.82a5.36,5.36,0,0,0,4.87,0c1.37-.78,1.37-2,0-2.82A5.36,5.36,0,0,0,83.42,119Z" transform="translate(-35.17 -36.82)"/><path class="cls-18" d="M85.86,120.54a4.58,4.58,0,0,0-2.27.54l-.35.23a1.17,1.17,0,0,1-.5-.9,1.4,1.4,0,0,1,.85-1.13,5,5,0,0,1,4.54,0A1.39,1.39,0,0,1,89,120.4a1.17,1.17,0,0,1-.51.9,1.9,1.9,0,0,0-.33-.22A4.5,4.5,0,0,0,85.86,120.54Z" transform="translate(-35.17 -36.82)"/><path class="cls-41" d="M85.84,122.08a4.61,4.61,0,0,1-2.27-.54,1.94,1.94,0,0,1-.33-.23,4,4,0,0,1,.34-.23,5,5,0,0,1,4.54,0,1.9,1.9,0,0,1,.33.22,2.08,2.08,0,0,1-.34.24A4.61,4.61,0,0,1,85.84,122.08Z" transform="translate(-35.17 -36.82)"/></svg>