<svg id="Слой_1" data-name="Слой 1" xmlns="http://www.w3.org/2000/svg" xmlns:xlink="http://www.w3.org/1999/xlink" viewBox="0 0 2306.2 1885.47"><defs><style>.cls-1{fill:#fafafa;}.cls-16,.cls-2,.cls-4,.cls-53,.cls-7{opacity:0.95;}.cls-2{fill:url(#linear-gradient);}.cls-3{fill:#96bfe6;}.cls-4{fill:url(#linear-gradient-2);}.cls-5{fill:#4598e6;}.cls-6{fill:url(#linear-gradient-3);}.cls-7{fill:url(#linear-gradient-4);}.cls-8{fill:url(#linear-gradient-5);}.cls-9{fill:url(#linear-gradient-6);}.cls-10{fill:url(#linear-gradient-7);}.cls-11{fill:url(#linear-gradient-8);}.cls-12{fill:url(#linear-gradient-9);}.cls-13{fill:#fff;}.cls-14{fill:url(#linear-gradient-10);}.cls-15{fill:url(#linear-gradient-11);}.cls-16{fill:url(#linear-gradient-12);}.cls-17{fill:#e65353;}.cls-18{fill:#eea987;}.cls-19{fill:#d98b52;}.cls-20{fill:#b84343;}.cls-21{fill:#c78d71;}.cls-22{fill:#eea886;}.cls-23{fill:#16202e;}.cls-24{fill:#faa146;}.cls-25{fill:#8e4f3a;}.cls-26{fill:#633029;}.cls-27{fill:#323657;}.cls-28{fill:#fccca2;}.cls-29{fill:#e55353;}.cls-30{fill:#a77860;}.cls-31{fill:#ebeeff;}.cls-32{fill:#353a3d;}.cls-33{fill:#81807e;}.cls-34{fill:#2d3133;}.cls-35{fill:#decbc4;}.cls-36{fill:#495055;}.cls-37{fill:#252e3b;}.cls-38{fill:#3c4145;}.cls-39{fill:#b3a5a0;}.cls-40{fill:#51565c;}.cls-41{fill:#f5e2d9;}.cls-42{fill:#ad9f99;}.cls-43{fill:#69737a;}.cls-44{fill:#181929;}.cls-45{fill:#22243b;}.cls-46{fill:#292c47;}.cls-47{fill:#cfbeb6;}.cls-48{fill:#3a3f47;}.cls-49{fill:#23263d;}.cls-50{fill:#d44040;}.cls-51{fill:#eddad3;}.cls-52{fill:#8f5c28;}.cls-54{fill:url(#linear-gradient-13);}.cls-55{fill:url(#linear-gradient-14);}.cls-56{fill:url(#linear-gradient-15);}.cls-57{fill:url(#linear-gradient-16);}.cls-58{fill:url(#linear-gradient-17);}.cls-59{fill:url(#linear-gradient-18);}.cls-60{fill:url(#linear-gradient-19);}.cls-61{fill:url(#linear-gradient-20);}.cls-62{fill:url(#linear-gradient-21);}.cls-63{fill:url(#linear-gradient-22);}.cls-64{fill:url(#linear-gradient-23);}</style><linearGradient id="linear-gradient" x1="1154.77" y1="1328.49" x2="1113.58" y2="581.93" gradientUnits="userSpaceOnUse"><stop offset="0" stop-color="#d1d7e0"/><stop offset="1" stop-color="#ebebff"/></linearGradient><linearGradient id="linear-gradient-2" x1="1828.55" y1="1536.62" x2="1828.55" y2="768.03" xlink:href="#linear-gradient"/><linearGradient id="linear-gradient-3" x1="92.22" y1="1758.7" x2="2073.68" y2="1758.7" gradientUnits="userSpaceOnUse"><stop offset="0.01" stop-color="#1a2257"/><stop offset="1" stop-color="#5e60f2"/></linearGradient><linearGradient id="linear-gradient-4" x1="1117.1" y1="1062" x2="1117.1" y2="500" xlink:href="#linear-gradient"/><linearGradient id="linear-gradient-5" x1="-4000.16" y1="1383.83" x2="-3872.77" y2="1383.83" gradientTransform="matrix(-1, 0, 0, 1, -3458.76, 0)" xlink:href="#linear-gradient-3"/><linearGradient id="linear-gradient-6" x1="-3901.18" y1="1488.98" x2="-3669.6" y2="1488.98" gradientTransform="matrix(-1, 0, 0, 1, -3458.76, 0)" xlink:href="#linear-gradient-3"/><linearGradient id="linear-gradient-7" x1="-3881.39" y1="1522.66" x2="-3707.56" y2="1522.66" gradientTransform="matrix(-1, 0, 0, 1, -3458.76, 0)" xlink:href="#linear-gradient-3"/><linearGradient id="linear-gradient-8" x1="-4091.5" y1="1346.08" x2="-3830.48" y2="1346.08" gradientTransform="matrix(-1, 0, 0, 1, -3458.76, 0)" xlink:href="#linear-gradient-3"/><linearGradient id="linear-gradient-9" x1="477.32" y1="1631.01" x2="325.34" y2="1175.08" xlink:href="#linear-gradient-3"/><linearGradient id="linear-gradient-10" x1="359.74" y1="1928.77" x2="435.73" y2="1601.2" gradientUnits="userSpaceOnUse"><stop offset="0" stop-color="#c9c4c1"/><stop offset="1" stop-color="#fff6de"/></linearGradient><linearGradient id="linear-gradient-11" x1="325.51" y1="1673.15" x2="512.31" y2="1673.15" gradientTransform="translate(19.53)" xlink:href="#linear-gradient-10"/><linearGradient id="linear-gradient-12" x1="1626.41" y1="586.87" x2="1626.41" y2="270.29" xlink:href="#linear-gradient"/><linearGradient id="linear-gradient-13" x1="2073.82" y1="441.63" x2="2113.19" y2="441.63" xlink:href="#linear-gradient"/><linearGradient id="linear-gradient-14" x1="2059.71" y1="441.63" x2="2076.12" y2="441.63" xlink:href="#linear-gradient"/><linearGradient id="linear-gradient-15" x1="1960.75" y1="423.62" x2="2086.85" y2="423.62" xlink:href="#linear-gradient"/><linearGradient id="linear-gradient-16" x1="1260.42" y1="115.52" x2="1312.14" y2="115.52" xlink:href="#linear-gradient"/><linearGradient id="linear-gradient-17" x1="1260.42" y1="152.89" x2="1312.14" y2="152.89" xlink:href="#linear-gradient"/><linearGradient id="linear-gradient-18" x1="1260.42" y1="190.27" x2="1312.14" y2="190.27" xlink:href="#linear-gradient"/><linearGradient id="linear-gradient-19" x1="1333.49" y1="115.52" x2="1348.21" y2="115.52" xlink:href="#linear-gradient"/><linearGradient id="linear-gradient-20" x1="1333.49" y1="152.89" x2="1348.21" y2="152.89" xlink:href="#linear-gradient"/><linearGradient id="linear-gradient-21" x1="1333.49" y1="190.27" x2="1348.21" y2="190.27" xlink:href="#linear-gradient"/><linearGradient id="linear-gradient-22" x1="1096.55" y1="990.01" x2="1167.22" y2="990.01" xlink:href="#linear-gradient"/><linearGradient id="linear-gradient-23" x1="1071.24" y1="990.01" x2="1100.69" y2="990.01" xlink:href="#linear-gradient"/></defs><rect class="cls-1" x="-406.61" y="-114.53" width="2825.56" height="2000"/><rect class="cls-2" x="853.37" y="381.94" width="527.46" height="527.46" rx="58.67"/><rect class="cls-3" x="994.99" y="789.32" width="244.21" height="12.06"/><rect class="cls-3" x="1029.58" y="827.33" width="175.03" height="12.06"/><rect class="cls-4" x="1467.6" y="564.88" width="721.89" height="847.34" rx="69.12"/><rect class="cls-5" x="1794.92" y="1064.75" width="57.25" height="10.6"/><rect class="cls-3" x="1577.55" y="1161.92" width="333.16" height="20.53"/><rect class="cls-3" x="1577.55" y="1260.49" width="269.41" height="20.53"/><rect class="cls-3" x="1577.55" y="1211.2" width="157.94" height="20.53"/><path class="cls-5" d="M1997.87,649.38v10.36h61.05V717h10.37V649.38ZM1583.28,717h10.37v-57.3h61V649.38h-71.42Zm475.64,295.66V1070h-61.05v10.37h71.42V1012.7Zm-465.27,0h-10.37v67.69h71.42V1070h-61Z"/><path class="cls-5" d="M2037,1282.53a61.06,61.06,0,1,1,61-61.06A61.13,61.13,0,0,1,2037,1282.53Zm0-110.3a49.24,49.24,0,1,0,49.24,49.24A49.3,49.3,0,0,0,2037,1172.23Z"/><polygon class="cls-5" points="2033.07 1245.5 2005.33 1217.76 2013.69 1209.4 2033.07 1228.79 2060.24 1201.62 2068.6 1209.97 2033.07 1245.5"/><path class="cls-6" d="M2073.68,1758.7c0,25.61-443.56,46.37-990.73,46.37S92.22,1784.31,92.22,1758.7s443.57-46.37,990.73-46.37S2073.68,1733.09,2073.68,1758.7Z"/><rect class="cls-7" x="939.33" y="401.66" width="355.53" height="305.04"/><path class="cls-8" d="M416.82,1623.52c29.6-20.81,64.25-165.88,66.31-252.29,1.06-44.26,14.15-62.7,25.69-79,11-15.55,20.56-29,15-59.82-10.61-58.93,17.28-84.37,17.57-84.62l-3.23-3.68c-1.24,1.08-30.29,27.32-19.16,89.17,5.19,28.81-3.36,40.86-14.18,56.12-11.36,16-25.5,35.93-26.59,81.68C476,1463.84,440.6,1600.82,414,1619.52Z"/><path class="cls-9" d="M354.78,1581.21c-2.8-6.33-5.69-12.88-9-19.79-16.91-35.7-31.89-41.58-56.7-51.31-6.07-2.38-12.94-5.08-20.48-8.47-35.55-16-28.67-39.52-22.6-60.29.85-2.91,1.7-5.8,2.43-8.67,3.13-12.22-2.88-18.35-12-27.62-6.76-6.9-15.17-15.48-21.65-29-7.1-14.84-3.48-22.79.8-26.85,9-8.55,29.82-7,49.45,3.75,6.1,3.33,11.12,8.58,16.43,14.15,12.52,13.1,28.09,29.41,67.49,29.6,22.46.1,34.76,3.2,41.14,10.37,7.23,8.12,5.87,20.29,4,37.12-.65,5.83-1.39,12.43-1.84,19.56-2.68,42.55,22.43,73.24,22.68,73.54,15,17.87,33.5,54.94,25.52,77.76-3.35,9.56-10.83,15.58-22.24,17.89a63.09,63.09,0,0,1-12.51,1.36C378.19,1634.28,368.11,1611.43,354.78,1581.21Zm-92-224c-17.53-9.57-36.33-11.5-43.73-4.49-5.62,5.33-3,14.46.25,21.18,6.13,12.82,13.88,20.74,20.73,27.72,9.51,9.71,17,17.37,13.22,32.26-.75,2.92-1.61,5.87-2.48,8.83-6.05,20.69-11.76,40.22,19.9,54.45,7.44,3.34,14.25,6,20.27,8.38,25,9.83,41.6,16.32,59.34,53.77,3.3,7,6.2,13.55,9,19.91,15.31,34.71,24.55,55.66,58,48.89,9.6-1.94,15.85-6.89,18.59-14.71,7-20.11-9.8-55.31-24.65-73-1.09-1.3-26.62-32.43-23.82-77,.46-7.25,1.2-13.91,1.86-19.79,1.75-15.58,3-26.84-2.77-33.33-5.28-5.94-16.85-8.63-37.5-8.73-41.48-.19-57.85-17.34-71-31.11-5.26-5.51-9.81-10.27-15.24-13.24Z"/><path class="cls-10" d="M417.74,1662.54l4.88-.26c-.24-4.59-6.4-112.85-49.87-144.54-47.69-34.76-62.73-72.12-69.89-97.19-8.44-29.55-51.38-37.44-53.21-37.77l-.85,4.82c.42.08,41.76,7.7,49.35,34.29,7.36,25.77,22.8,64.16,71.71,99.81C411.47,1552,417.68,1661.44,417.74,1662.54Z"/><path class="cls-11" d="M409.46,1686.89c-10.23-5.1-9.86-25.58-9.3-56.58.71-39.17,1.68-92.82-18.82-142.16-21.78-52.42-2.36-67.75,16.43-82.56,21.05-16.6,40.92-32.27,2.77-103-17.52-32.49-23.08-54.47-17.5-69.16,5.51-14.53,21-20.19,37.35-26.18,28.27-10.34,60.3-22.07,56.16-81.89-1.27-18.34.89-29.61,6.79-35.49,6.41-6.38,15.85-5.69,26.78-4.89,16.52,1.21,35.23,2.58,51.52-18.69,1.7-5.31,17.28-52.74,35.92-60.86a13.23,13.23,0,0,1,11.4.06h0c12.87,6.16,20.34,13.46,22.83,22.32,4.34,15.41-6.95,32.8-20,52.93-20.55,31.63-43.83,67.49-19.68,110.15,31.93,56.42,15.06,76.16-8.28,103.49-13.37,15.65-28.53,33.39-38.66,62.33-8.15,23.28,5.75,45.47,19.19,66.93,16.87,26.93,34.31,54.76-2.41,78.92-60.71,39.94-120.66,170.31-121.26,171.62l-.24.54-.47.37c-11.19,8.77-19.33,13-25.46,13A11.21,11.21,0,0,1,409.46,1686.89Zm149.78-188.44c32.72-21.52,18-45,1-72.23-13.41-21.39-28.6-45.65-19.67-71.14,10.43-29.81,25.91-47.92,39.56-63.9,22.87-26.78,38-44.46,7.74-97.9-25.62-45.25-.42-84,19.83-115.23,12.43-19.13,23.16-35.65,19.42-48.93-2.09-7.43-8.71-13.72-20.23-19.23h0a8.38,8.38,0,0,0-7.33,0c-17.3,7.53-33.18,57.74-33.34,58.25l-.12.41-.26.34c-18,23.73-39.07,22.19-56,20.95-10.14-.75-18.14-1.33-23,3.47s-6.5,15.1-5.35,31.68c4.39,63.49-31,76.43-59.37,86.83-15.95,5.84-29.74,10.88-34.45,23.31-5,13.27.44,34,17.23,65.11,40.1,74.37,17.66,92.07-4.05,109.18-18.15,14.32-35.3,27.84-14.94,76.84,20.9,50.29,19.92,104.53,19.2,144.13-.49,27-.88,48.39,6.58,52.1,4.37,2.18,12.72-1.5,24.83-10.92C441.32,1661,498.74,1538.25,559.24,1498.45Z"/><path class="cls-12" d="M313.64,1118.65c30.9-10.6,24.48,48.95,37.53,93s145.23,19.22,89.75,129.55,70.17,36.9,32.64,133.18-3.26,199.24-44.06,173S406.58,1500,364.15,1485.6s-49.35-31.2-7.34-70.37-110.07-78-72.54-157.12S277.94,1130.89,313.64,1118.65Z"/><path class="cls-13" d="M415.28,1641.12c3.88-16.48,37.07-161.53,6.1-179.06-27.28-15.46-26.61-75.56-22.35-132.32,3.76-50.24-60.76-73.72-63.51-74.69l-1.64,4.61c.64.23,63.75,23.21,60.26,69.72-4.37,58.28-4.84,120.14,24.83,136.94,23.51,13.31,1.87,129.88-8.46,173.67Z"/><polygon class="cls-14" points="531.85 1589.47 487.74 1756.82 389.16 1756.82 345.05 1589.47 531.85 1589.47"/><path class="cls-15" d="M531.85,1589.47s-97.11,18.23-97.11,167.35H389.16l-44.11-167.35Z"/><rect class="cls-16" x="1432.64" y="186.61" width="387.53" height="349.02" rx="48.23"/><rect class="cls-5" x="1609.57" y="469.62" width="30.73" height="5.69"/><path class="cls-5" d="M1718.52,249.77v5.57h32.77V286.1h5.57V249.77ZM1496,286.1h5.56V255.34h32.78v-5.57H1496Zm255.33,158.71v30.77h-32.77v5.57h38.34V444.81Zm-249.77,0H1496v36.34h38.34v-5.57h-32.78Z"/><rect class="cls-5" x="1096.57" y="730.38" width="41.05" height="7.6"/><path class="cls-5" d="M1240.13,436.73v7.43h43.77v41.09h7.44V436.73ZM942.86,485.25h7.43V444.16h43.78v-7.43H942.86Zm341,212v41.1h-43.77v7.43h51.21V697.25Zm-333.61,0h-7.43v48.53h51.21v-7.43H950.29Z"/><path class="cls-17" d="M2046.55,970.06h-68.48c-4.51-32.79-10-70.23-10-70.23s-2.77,30.89-6.14,70.23h-274c-2.5-35.37-5.52-61.84-6.6-62.38-1.58-.79-11.35,30.59-19.46,62.38H1587.6c19.08-82.2,54.67-214.06,75.25-222,29.28-11.27,148.72-48.07,148.72-48.07h68.16s121.11,34.55,132.38,72.12C2021.07,802.09,2040.83,900.81,2046.55,970.06Z"/><path class="cls-18" d="M1848.78,478.91s63.64,10,54,109.61-65.86,91.41-69.61,91.31-56.39,1.82-60.5-119.76C1772.62,560.07,1770.83,470.17,1848.78,478.91Z"/><path class="cls-18" d="M1878.49,650.5s-1.75,41,2.22,49.82-52.52,37.35-87,5.61c0,0,8.32-44.51,6-60.28S1878.49,650.5,1878.49,650.5Z"/><path class="cls-18" d="M1903.72,560.39s7-7.44,9.52.09-10.81,41.21-9.94,42.72c0,0-1.27,2.92-2.94,1.31S1903.72,560.39,1903.72,560.39Z"/><path class="cls-18" d="M1773.34,559.13s-6.82-7.58-9.52-.09,10,41.41,9.11,42.9c0,0,1.22,2.95,2.92,1.37S1773.34,559.13,1773.34,559.13Z"/><path class="cls-19" d="M1903.69,575.66l-9.11,12.18s.25-26.7-1.21-30.89-3.7-17-4.92-20-54.65-18-101.85,4.37c0,0,2.08,19.2-2.45,20.91s-2.3,31.27-2.3,31.27l-7.49-8.45s-11.47-76.61-8.64-84.59,11.86-56,108.68-27.5c0,0,30.19-6.39,36.25,14.45S1903.69,575.66,1903.69,575.66Z"/><path class="cls-18" d="M1880.71,700.32s14.36,3.07-45.73,60.65c0,0-42.62-47.14-41.24-55S1880.71,700.32,1880.71,700.32Z"/><polygon class="cls-20" points="1834.98 760.97 1851.38 789.01 1900.02 706.42 1878.95 691.73 1834.98 760.97"/><polygon class="cls-20" points="1834.98 760.97 1795.18 697.65 1772.62 712.15 1813.07 789.01 1834.98 760.97"/><path class="cls-20" d="M1822.64,936.4c.49,9.33.71,20.79.74,33.66h-2.26c0-12.82-.24-24.24-.73-33.55-3.69-70.25,13.33-155.73,13.44-175.76l2.2.43C1835.92,781.21,1819,866.45,1822.64,936.4Z"/><path class="cls-21" d="M1805.67,668.11s15.12,16,36.48,11.72,30.84-14,30.84-14-8.43,21.15-33.12,23.08S1805.67,668.11,1805.67,668.11Z"/><path class="cls-22" d="M1068.25,439.55l-.14,0c-1.44-.35-3.71-7.23-4.16-8.61-.1-.38-.32-1.07-.63-2-1.79-5.51-6-18.41-4.33-23.36.51-1.56,1.31-2.46,2.37-2.68,2.29-.47,4.9,2.43,5,2.55l.06.06v.09c.59,5.43,3.49,32.57,2.24,33.82A.61.61,0,0,1,1068.25,439.55Zm-6.36-36.23a2,2,0,0,0-.42,0c-.87.18-1.54,1-2,2.34-1.57,4.78,2.72,18,4.34,23,.31,1,.53,1.66.64,2,1,3.3,2.93,8.05,3.77,8.25,0,0,0,0,.08,0,.79-1.07-1-21-2.39-33.3C1065.57,405.31,1063.62,403.32,1061.89,403.32Z"/><path class="cls-23" d="M1115.56,331.33s35-3.67,47.66,30.16,24.51,44.91,26,62.68c6,71.89,39.59,55.63,30.15,97.07s-16,47.7-16,47.7l-80.26-15.73-81.3.26s31.81-15.89,24.73-49.72-24.73-89.28-14.76-127S1094.63,334.22,1115.56,331.33Z"/><path class="cls-22" d="M1158.35,439.55a.6.6,0,0,1-.43-.18c-1.25-1.25,1.65-28.39,2.24-33.82v-.09l.06-.06c.11-.12,2.72-3,5-2.55,1.07.22,1.87,1.12,2.38,2.68,1.63,5-2.54,17.85-4.33,23.36-.31,1-.53,1.65-.63,2-.45,1.39-2.72,8.27-4.16,8.62Zm2.32-33.86c-1.34,12.34-3.17,32.23-2.37,33.31,0,0,0,0,.07,0,.84-.2,2.72-4.95,3.78-8.26.1-.37.32-1.06.63-2,1.62-5,5.91-18.25,4.33-23-.45-1.37-1.11-2.16-2-2.34C1163.3,403,1161.05,405.28,1160.67,405.69Z"/><path class="cls-24" d="M1280.28,654.55h-50c-10.37-18.9-18.79-33.68-18.79-33.68s-6.74,12.3-12,33.68H1031.15a145.44,145.44,0,0,1-2.19-35.23s-9,16.26-19.43,35.23H953c15-28.11,43.13-79.28,49.52-85.95,8-8.41,54.54-40.56,87.76-51.05s52.11-.37,52.11-.37,34.12,6.15,65.66,18.66C1220.42,540.75,1254.68,604,1280.28,654.55Z"/><path class="cls-25" d="M1120.18,351.12s46.4,6.69,39.61,75.19-47.74,63.05-50.48,63-41.08,1.42-44.4-82.16C1064.91,407.15,1063.37,345.35,1120.18,351.12Z"/><path class="cls-25" d="M1140.8,477.16s-2.88,35.62,4,46.3-5.87,25.16-32.1,20.2S1088,523.84,1088,523.84s7.35-22,5.2-39.59S1140.8,477.16,1140.8,477.16Z"/><path class="cls-23" d="M1114.88,375.94s21.67,22.79,31.74,34.33,11.23,33.83,11.23,33.83,17-20.71,9.87-44.84-23.88-71.08-66.36-56.65S1057.3,420.5,1062.28,452C1062.28,452,1081.35,382.5,1114.88,375.94Z"/><path class="cls-25" d="M1157.09,520.31s-32.18,81.5-51.74,95.66c0,0-25.69-83.12-23.89-95.29C1081.46,520.68,1120.21,505.5,1157.09,520.31Z"/><path class="cls-23" d="M1089.09,500.6s-57.36,51-42.47,82.88c12.7,27.17,57.75,10.51,50.32-18S1089.09,500.6,1089.09,500.6Z"/><path class="cls-26" d="M1096.59,486.2s19.77,9.35,39-4.46a25.09,25.09,0,0,1-19.5,12.61C1101.94,495.92,1096.59,486.2,1096.59,486.2Z"/><path class="cls-27" d="M1605.7,297.68s-19,71.59-23,87.73c-1.18,4.85-5,13.25-9.83,22.83l-.12.23a18.05,18.05,0,0,0-1.78,5.81c-.77,6,1.52,10.68-2.45,17.76l-.72,3h-37.65c4.4-13.06,10-29.67,14.44-43,3.75-11.3,6.71-20.28,7.49-22.88,2.33-7.76,10.87-32.91,18.12-49.61,2.53-5.81,12.28-11.56,20.92-15.72C1598.85,300.09,1605.7,297.68,1605.7,297.68Z"/><path class="cls-28" d="M1580.51,195.41s-12-77.65,52.3-76.21,63.45,39.82,62.31,77.93-25.79,35.25,2,88.25-24.06,53-24.06,53l-40.25-55.3Z"/><path class="cls-22" d="M1625.78,126.65s-43.55,6.87-45.27,68.76,11.74,75.07,49.85,62.18,50.14-77.65,51-87.68S1684.52,119.2,1625.78,126.65Z"/><path class="cls-29" d="M1702.27,341.92c.15,21.3-24.33,72.24-28.11,88-.45,1.83-.92,3.53-1.4,5.12H1553.9c-.62-7.34-1.2-13.62-1.49-17.16-.94-11.63-12.73-36.7-12.34-48.36.41-11.89,6.25-22.16,14.41-34.85,2.53-3.94,5.2-7.94,7.85-11.84,8.66-12.69,17.29-24.22,21.54-28.19a68.6,68.6,0,0,1,8.67-6.91l0,0a39.86,39.86,0,0,1,8.93-4.7l37.43-6s23.33,8.45,36.76,11.58C1675.68,288.58,1701.87,292.41,1702.27,341.92Z"/><path class="cls-29" d="M1592.57,287.69l-21.7,34.19-20,31.56c.05-.17,1.38-4.94,3.64-18.78.43-2.63.9-5.58,1.39-8.89a24.34,24.34,0,0,1,.63-2.91h0c8.57-19.76,35.07-34.65,36-35.15Z"/><path class="cls-22" d="M1654.86,229.71c-3.77,7.13-7.76,51.39-7.76,51.39s-53.27,20.13-47.82,8.74c2.48-5.17,3.2-11.88,3.25-17.66a84,84,0,0,0-.59-10.75c-.14-1.16-.24-1.83-.24-1.83S1658.64,222.58,1654.86,229.71Z"/><path class="cls-28" d="M1608,171.06s22.35,36.39,42.7,50.71,10,25.79,10,25.79,53.08-111.74,2.62-119.48-81.41-8.31-82.84,67.33C1580.51,195.41,1603.43,170.49,1608,171.06Z"/><path class="cls-30" d="M1632.32,256.88c-8.18,12.06-29.78,15.3-29.78,15.3h0a84,84,0,0,0-.59-10.75C1615.82,264.11,1632.32,256.88,1632.32,256.88Z"/><path class="cls-31" d="M1556.59,322.62h0s-1.16,2.4-2.11,12l7.85-11.84s14-20.09,18.81-25.32a79.82,79.82,0,0,1,11.4-9.8S1565,301,1556.59,322.62Z"/><path class="cls-29" d="M1662.59,352.58s34.19-13.41,44.31-14.19c0,0-6.88-54.9-40.46-49.08S1662.59,352.58,1662.59,352.58Z"/><path class="cls-22" d="M1601.49,283s-25.1,38.6-16.61,42,54.49-4.5,74-41.16C1658.93,283.79,1629.69,268.8,1601.49,283Z"/><path class="cls-27" d="M1706.9,338.4c-1.74,30.26-10.33,59-17.41,85.31-1,3.81-2,7.59-3,11.31h-69.6c-.17-10.44-.14-19.64.18-27.32,3.51-84,30.13-128.17,30.13-128.17s8.5,2.86,33,9.79c16.76,4.73,23.09,26.07,25.4,39a.61.61,0,0,1,0,.15A91.73,91.73,0,0,1,1706.9,338.4Z"/><path class="cls-27" d="M1601.47,283a201.82,201.82,0,0,0-10.35,20.77c-8.24,18.9-18.54,48.84-19.42,81.82-.27,10.59-2.37,27.75-5.57,49.43h-13.89a220.56,220.56,0,0,0-7.65-43c-1.9-6.76-3.64-11.81-4.59-15-4.43-15.07,9.74-35.14,14.48-42.32S1570.59,294.5,1601.47,283Z"/><path class="cls-27" d="M1729.07,435h-37.38c0-2.43-.83-6.4-2.2-11.31-6.79-24.14-26.89-71.13-26.89-71.13s-30.08-49.15-1.58-61.67,40.77,22.47,44.6,37.41a.61.61,0,0,1,0,.15C1706.59,332.05,1723.57,396.75,1729.07,435Z"/><path class="cls-22" d="M1119.45,1135.78s13.07-.19,17.72-5.22,12.86-9.54,15.49-10.82c3.53-1.72,13.27-11.2,14.5-6.57s-15.52,16.37-18.71,19.53,13.91,4.55,16.42,7.63-6.22,35.42-17.61,32.91-20.72-14-22.87-14-8.42-1.44-8.42-1.44Z"/><path class="cls-22" d="M1162.45,1139s34,10.38,35.4,13.33.45,5.09-2.79,4.28-33.28-8.91-33.28-8.91,37.15,20.32,38.83,22.35c1,1.19-.65,5.44-2.45,5.19s-40.06-17.79-40.06-17.79,34.66,19,35.52,21.31c.75,2-1.57,5.63-4.26,4.43s-36.08-16.63-36.08-16.63,24.14,15.81,23.77,18.41c-.23,1.59-1.49,5.31-7.57,1s-21.67-12.63-21.67-12.63Z"/><path class="cls-32" d="M1047.93,1709.37s10.91,16.32,26.21,19.84,30.37,9.13,30.48,18.79-44.23,15.41-61.74,5.68c-26.13-14.53-28.79-10.15-31.69-17.41s3.48-26.68,3.29-29C1014.25,1704.43,1047.93,1709.37,1047.93,1709.37Z"/><path class="cls-33" d="M1046.23,1701.32s2,7.88,1.7,8-34.48,4.24-33.45-2.09c.84-5.13,2-10.71,2-10.71Z"/><path class="cls-32" d="M833.28,1708.28s7.78,15.62,21.07,20.93c14.21,5.69,25.61,12.22,25.35,21.63s-34.74,18.94-59.82.88c-15.85-11.41-20.87-11.46-23.42-18.65s4.42-25.85,4.32-28.1C800.67,1702.18,833.28,1708.28,833.28,1708.28Z"/><path class="cls-33" d="M833.67,1700.18s-.1,8-.39,8.1-33.34,2.88-32.5-3.31a51,51,0,0,1,3.21-10.86Z"/><path class="cls-34" d="M954.8,1223.31s43.39,166.24,59.92,204.67c15.3,35.61,20.35,85.41,22.46,110.42,2.65,31.46,18.43,154,20.29,163.16s-51.05,5.09-51.05,5.09S970,1494.84,954.8,1463.93c-10.1-20.63-68.74-168.56-75.45-160s-15,156.74-20,181.34-20.23,219-20.23,219-34.11,5-43.22-2.68c0,0-4.14-166-1-212.13,1.21-17.57-20.59-210.77,7.36-288.55C817.06,1159.78,954.8,1223.31,954.8,1223.31Z"/><path class="cls-35" d="M713.1,1104.1c0,1.9,3.59,9.51,9.32,20.45,8.38-16.77,15-30.53,17.12-35.59C746.6,1072.28,783,1034,783,1034a.24.24,0,0,0,0,.08s0,0,0,.05a.06.06,0,0,1,0,0,1.24,1.24,0,0,1,0,.16q0,.14.09.33a1.17,1.17,0,0,1,.06.2s0,.1,0,.15c2,7.38,14.15,53.53,14.6,76.26.49,24.74,6.95,70.51,6.95,70.51h0l7.6,1.06,16.82,2.37,2,.29,4.89.68,44.59,6.28,15.81,2.22,2.14.3,9,1.27,25,3.51,6.37.9h.05l4.77.67,6.59.92h0c.18-.25,6.41-8.78,5.45-27.72-.61-12.23-2.09-35.21-1.48-56.53,0-.11,0-.23,0-.33,0-.27,0-.54,0-.81a2.53,2.53,0,0,0,0-.27v-.05c.39-11.71,1.42-22.82,3.61-31.25a131,131,0,0,0,3.1-16.66l.09-.77c.12-1,.22-2,.31-2.91a148.41,148.41,0,0,0,.24-26.71l0,.06c.45,1,3.71,12.91,8,27.63,7.21,24.89,17.31,57.78,21.61,59.36,6.25,2.3,107.55,32.3,129.43,35.38,2.53.35,4,.34,4.14-.1s.2-.65.3-1c2.66-8.76,6.31-23.66,6.9-26.06l.08-.34-3.92-1.17-110.22-33L967.77,953.73c-1-.84-13.43-6.83-22.47-11.13-9.21-4.38-20.32-10.83-30.39-16.34-5.13-2.81-10-5.37-14.18-7.3l-.64-.29h0c-6.93-3.18-11.55-5.28-11.55-5.28h0l-3-.29c-9.68-.92-39.75-3.73-49.83-4.32-.83-.06-1.53-.09-2.06-.1s-.81,0-1,0c-1.28.08-7.47,2.24-15.62,5.34h0l-.93.36-1.15.44-2.16.83-4.47,1.75-1.59.63c-16.31,6.47-35,14.46-39.43,17.66-2.93,2.1-12.06,19.31-22.65,40.6-13.64,43.7-30.93,110.58-31.47,127.08C713.11,1103.62,713.1,1103.87,713.1,1104.1Z"/><path class="cls-36" d="M950.48,1202.31s3.35,4,4.32,21c0,0-137.93-16.09-152.52-22.43,0,0-.57-18.73,2.53-19.05C808.21,1181.47,950.48,1202.31,950.48,1202.31Z"/><path class="cls-22" d="M832.85,904c.43,21.65,42.34,33.49,42.34,33.49s17.53-22,13.35-24.08c-1.65-.83-2.32-4.11-2.52-7.79a75.24,75.24,0,0,1,.24-9.82c.12-1.53.24-2.51.24-2.51s-6-6.32-13.61-13.85c-13.31-13.16-31.61-30-31.64-23.32a6.63,6.63,0,0,0,.15,1.28C844.62,872.48,832.85,904,832.85,904Z"/><path class="cls-32" d="M836.32,1185.15s-3,19-3.27,23.93l-6.38-1.27s1.76-20.09,2.79-23.46Z"/><path class="cls-32" d="M939,1200.09s2.42,17.26,2.47,23.77l-6.75-.87s-1.38-21.55-2.15-23.8Z"/><path class="cls-30" d="M849,872.28h0c.09.13,1.86,2.79,4.9,6.6,6.43,8.1,18.53,21.39,32.13,26.73a75.24,75.24,0,0,1,.24-9.82,21,21,0,0,0,4.16-.5A129.56,129.56,0,0,0,881.31,882l-8.42-2.52Z"/><path class="cls-22" d="M841,856.41c3.62,7.88,7.06,13.6,8,15.87h0a28.22,28.22,0,0,0,4.9,6.6c6.91,7.44,19.75,17.26,32.37,16.91a21,21,0,0,0,4.16-.5c5.1-1.11,11.11-3.48,14.43-10,26.14-51.2,7.21-93.06,7.21-93.06s-71.5-20.22-82.68,1.3C821.53,808.67,832.43,837.87,841,856.41Z"/><path class="cls-37" d="M912.06,792.27s6.64-.37,8.28-13c1.63-12.44-1.65-15.88-1.65-15.88s-29.52-12.36-40.12-14-36.67-3.15-42.77,3.84c0,0-14.85-3.45-18.89,21.19-6.42,39.1,21.86,77.06,21.86,77.06s-.24-25.54,5.39-28.93,10.49,4.67,10.49,4.67l11.53,2.06s-17.5-37.79,3.49-39.18S900.05,794.46,912.06,792.27Z"/><path class="cls-22" d="M854.34,817.11c-1.1-11.26-21.45-15.55-20.08-3.76s11.38,23.13,16,22.73S855.17,825.68,854.34,817.11Z"/><path class="cls-38" d="M722.42,1124.55c8.87,16.9,22.85,41.78,36.66,65.91-1.82,3.39-3.59,6.76-5.29,10.08a201.92,201.92,0,0,0-10.46,23.32c-3.15,8.82-7.52,31.4.85,35.6l44.13,24.35s.3-.86.89-2.45c1.46-4,4.63-12.44,9-23.42.14-.36.58-1.41,1.24-3,.87-2.07,2.14-5,3.59-8.4l2-4.74,2.45-5.72c1.21-2.8,2.4-5.58,3.51-8.16l5.36-12.46.45-1c1.43-3.1,2.9-6.22,4.4-9.32,2.32-4.82,4.71-9.61,7.15-14.29l.74-1.43c.44-.82.87-1.65,1.31-2.46l.81-1.49.18-.34.33-.59c12.76-23.27,27.13-42.72,31.71-71.26q.66-4.12,1.26-8.21c.66-4.53,1.28-9,1.83-13.38.21-1.66.42-3.3.62-4.93,2.29-19,3.66-36,4.77-47.81,3.45-36.81-19.09-76.66-36.4-101.28a271.21,271.21,0,0,0-18.51-23.65L817,914l-.93.36-1.15.44-2.16.83-4.47,1.75-1.59.63c-16.76,6.57-52.06,16.28-56.5,19.46-2.56,1.84-8.3,18.63-14.92,39.85-13.64,43.69-21.73,109.57-22.13,126,0,.26,0,.51,0,.74C713.1,1106,716.69,1113.61,722.42,1124.55Zm67.05-8.23c0,8.21-2.67,17.62-6.77,27.63-.11.25-.21.51-.32.76-2.83-6-5.49-11.82-7.88-17.17v0c-6.56-14.7-11.07-26.16-11.32-30.7-1.63-29.14,19.84-62.69,19.84-62.69s0,0,0,.05a.06.06,0,0,1,0,0,1.24,1.24,0,0,1,0,.16,1.78,1.78,0,0,1,.09.33,1.17,1.17,0,0,1,.06.2s0,.1,0,.15C787.66,1052.38,789.47,1116.32,789.47,1116.32Z"/><path class="cls-39" d="M873.28,1226.14l-125.77,56a14.1,14.1,0,0,1-18.62-7.15l-34.43-77.36a14.1,14.1,0,0,1,7.15-18.61l125.77-56a14.1,14.1,0,0,1,18.62,7.14l34.43,77.36A14.1,14.1,0,0,1,873.28,1226.14Z"/><path class="cls-38" d="M900.4,919.22s5.9,19.64,13.53,68.66h0c.26,1.65.51,3.33.77,5l.09.59c.17,1.14.35,2.29.52,3.45l.06.41c.12.78.24,1.57.35,2.36.29,1.94.57,3.91.86,5.92,3.4,23.86,8.18,64.47,12.77,105.46h0c3.62,32.31,11.89,65.47,14.51,90.21,0,0,0,0,0,.05a171.49,171.49,0,0,0,3.43,18.6c.19.82.39,1.66.58,2.5,7.39,31.23,21.75,75.43,21.75,75.43l4.18-3.86,12.37-11.42a10.06,10.06,0,0,0,2.79-10.36c-6.87-22.14-30.2-100.52-34.48-155.63v-.05c2.1-19.36,7.46-45.35,6.65-49.08a2.74,2.74,0,0,1,.15.4c2.46,6.83,5.18,14.26,7.93,21.49h0c7.36,19.42,14.9,37.41,18,38.56,7,2.57,132.39,39.57,133.3,34.4.09-.52.2-1.07.32-1.65s.24-1.19.37-1.82c1.55-7.07,4.36-17.2,6.32-24,.3-1,.57-2,.81-2.8.83-2.84,1.36-4.63,1.36-4.63l-106-34.81L970.18,952.7c-1-.84-14.7-8.19-23.74-12.49-9.42-4.48-21.33-10-31.89-14.89L900.73,919Z"/><path class="cls-40" d="M828.6,967.74,849,979.23l-8.71,8.89,23.2,125.24c4.73-29.35,6.88-57.23,8.48-74.33,5.33-56.9-51.46-121.09-55-125-2.73,1-5.68,2.18-8.72,3.38Z"/><path class="cls-40" d="M900.09,918.67s7.62,24.88,16.5,87c3.4,23.86,8.18,64.47,12.77,105.46l4.75-117.3-9.72-10.52L933,972.5l-18.48-47.18L900.73,919Z"/><path class="cls-41" d="M815.83,914.44l17-10.45s.47,9.28,42.34,33.49L863.3,971Z"/><path class="cls-41" d="M886.33,908.67s-.66,10-11.14,28.81l23.21,30.26,1.69-49.07Z"/><path class="cls-24" d="M875.13,937.48s-4.5,18-2.88,23c0,0,9.89,3.6,17-.9C889.25,959.61,884.21,947,875.13,937.48Z"/><path class="cls-42" d="M898.38,1196.93c2.51-12.7.12-50.73,0-52.34l-2.16.14c0,.39,2.48,39.36,0,51.78Z"/><path class="cls-43" d="M880.77,1191.07s20.29,2.43,27,4.1l-.88,22.75-26.58-2.84Z"/><path class="cls-24" d="M885.21,958s22.64,57.17,18.94,121.15c-3.82,66.34-10.1,90.39-10.1,90.39l-14,17.51-6.16-21.52s18.73-84.57,6.64-166.87c-2.19-14.92-5.44-43.18-5.44-43.18Z"/><path class="cls-22" d="M817.19,1228s4.86,9.72,9.71,11.34,12,9.51,12,9.51l-34.21,18s-9.1-17.81-9.51-29.14S817.19,1228,817.19,1228Z"/><path class="cls-35" d="M820.44,1228.86l2.26,4.56s-21.72,15.88-27.57,16.9l-2-6.08Z"/><path class="cls-38" d="M822.7,1229.06s-16.28,13.47-30,19.67L731.26,1141l39.22-21.45S821.62,1221,822.7,1229.06Z"/><path class="cls-34" d="M960.51,1038.52c.76,15.35.64,29,.64,29v0c0,.07,0,.48.06,1.17l.09-.77c2.46,6.83,5.18,14.26,7.93,21.49a231.48,231.48,0,0,0,.61-23.42c-1.1-43-14.64-65.62-14.64-65.62C958.31,1007.88,959.8,1024,960.51,1038.52Z"/><path class="cls-22" d="M1494.49,896.62s-.64-7.91.29-11.6c1.61-6.38-.76-16.71,7.26-21.71s31.07,16,32.88,21.82-6.8,15.85-24.83,24.24S1494.49,896.62,1494.49,896.62Z"/><path class="cls-22" d="M1499.59,865.38a272.51,272.51,0,0,1,18.05-23.67c9-10.5,21.67-22.27,24.34-20,4,3.4-7.43,11.86-15.66,22.87-7.57,10.14-4.36,9.42-4.36,9.42s-.93.15,9.51-9.27c11.21-10.14,23.68-20.56,25.9-18.77,2.76,2.22,2.91,2.73-.55,7.07,2.54-2.06,3.47-1.66,4.45-.68,5,5.07-9.08,22.55-14.69,29.49,4.34-5.31,8.11-8.73,9.19-3.63,1.24,5.84-19.86,29.64-26.59,38.9C1521.84,907.16,1499.59,865.38,1499.59,865.38Z"/><path class="cls-44" d="M1230,1706.4s21.93,13,31.87,17.79,48.52,6.2,52.34,9.83,2.41,15.16-4,16.33-53.31,5.42-69,1.76-44.92,2.5-51.4.3-2.31-37.15.2-45S1230,1706.4,1230,1706.4Z"/><path class="cls-45" d="M1231.77,1692.11,1230,1706.4s-29.33,5.49-38.22,1l2.2-14.85Z"/><path class="cls-46" d="M1349.43,1204.05c-.31,9.89-2.12,31.36-4.21,53.91-.47,5-1,10.07-1.45,15.07-2.92,30.34-5.88,58.41-5.88,58.41-3.7,24.15-11.34,66.08-19.88,97.78h0c-2.47,9.15-5,17.44-7.55,24.21-2.47,6.59-5,11.74-7.36,14.83-18.18,23.21-59.85,229-59.85,229l-56.88-.43s12.51-139.37,25.08-174.7c14-39.45,38.4-92.62,32.35-130.68-3.79-23.88-8.67-99.89-8.67-99.89s-4.76-85.41,17.58-148C1258.29,1128,1349.43,1204.05,1349.43,1204.05Z"/><path class="cls-44" d="M1389.8,1711.75s21.78,13.23,31.65,18.17,48.45,6.78,52.22,10.45,2.24,15.19-4.17,16.29-53.37,4.78-69,.93-44.94,2-51.4-.32-1.86-37.17.74-45S1389.8,1711.75,1389.8,1711.75Z"/><path class="cls-45" d="M1391.8,1697.48l-2,14.27s-29.39,5.13-38.22.51l2.38-14.82Z"/><path class="cls-46" d="M1323.8,1493.38c-1.48-45.52-5.5-75.76-17.21-102.06-9.84-22.08-18.26-91.44-18.26-91.44s-26.66-81.27-21.26-147.49c1.36-16.53,104.4,25,104.4,25,2.26,9.64,9.15,40,11.6,62.48,14,128.57,8.73,212.33,8.73,212.33-8,28.39,12.16,251.74,12.16,251.74h-58s-15.2-79.45-16.8-128.87C1329.16,1575.11,1323.23,1501.25,1323.8,1493.38Z"/><path class="cls-47" d="M1322.51,904.35s27,44.3,34.92,69,1.54,96.6,2.93,111c4.33,44.82,10.64,94.17,10.64,94.17l-90.59,57.86a895.43,895.43,0,0,1-30.44-85.27c-14.18-47.29-15.32-89.87-15.19-118.31.42-89.24,48.65-139.63,48.65-139.63Z"/><path class="cls-22" d="M1355.8,785.52s18.58,19.88,13.33,25.11c-4.33,4.31,12.74,24.13,15.17,27.46s-7.58,8.84-9.23,11.83-.68,34.17-9.27,37.37-52-.18-65.81-8.6-36-57-34.44-80.32S1323.13,750.85,1355.8,785.52Z"/><path class="cls-22" d="M1338.24,880.56s-.32,2.65-.75,6.75c-.16,1.73-.37,3.69-.55,5.83-.11,1.27-.22,2.63-.35,4,0,.37-.08.74-.1,1.12-.06.63-.11,1.27-.16,1.93-.22,3-.43,6.09-.59,9.17-.39,7.92-.45,15.5.4,19.71,2.28,11.55-47.48-37.2-47.48-37.2a568.92,568.92,0,0,0,2.18-80.3C1288.77,769.07,1338.24,880.56,1338.24,880.56Z"/><path class="cls-48" d="M1359.61,789.88s8.79-20.73-18.31-35.12c-31.9-16.94-65.73,25.6-70.22,28.1s-24.88,25.46-4.92,55.89c25.19,38.39,23.86,37.11,23.86,37.11s2.52-28.33,2.36-33.79c-.3-10,25.9-11.18,25.9-11.18s-10.76-14.32,1.2-20.74S1345.44,788.48,1359.61,789.88Z"/><path class="cls-22" d="M1304.52,827.27c-1.91-2.68-8.91-14.51-17.91-4.12s15.14,29.82,17.13,29.62S1320.57,849.82,1304.52,827.27Z"/><path class="cls-49" d="M1375.94,1197.67s-4.5-21.19-5.38-24.36l-132.48,22,1.36,17.13S1334.89,1206.76,1375.94,1197.67Z"/><path class="cls-24" d="M1226.29,1104.3s20.35,87.9-11.52,190.43c-3.89,12.52,88.23-2,88.23-2Z"/><path class="cls-24" d="M1343.31,1286.35s-65.43,14.36-83.81,7.87c0,0-26.74-97.29-36.07-196q-1.08-11.45-1.83-22.85v0c-5.2-80.33,15.24-161.83,61.83-182.09,1.31.89,66.93,58.74,65.68,111.69-.09,3.58-.14,7.18-.16,10.78q-.08,9.77.14,19.54h0c.42,20.14,1.67,40.23,3.44,59.74.18,2,.38,4.07.58,6.09.32,3.28.65,6.53,1,9.77q.7,6.47,1.46,12.82C1366.17,1212,1343.31,1286.35,1343.31,1286.35Z"/><path class="cls-50" d="M1340.62,943a727.71,727.71,0,0,1,17,110.2c3.93,51.37,9.18,87.7,9.18,87.7l7.87,25.43,3.23-24.52s-2.88-66.3-6.73-93.27c-3.88-27.2-5.57-61.72-27.31-106.5Z"/><path class="cls-50" d="M1339.25,943.07a7.22,7.22,0,0,0,3.59,1.74c2.1.31,5.11-3-5.64-17.24Z"/><path class="cls-51" d="M1289.24,885.89s30.47,28.7,48.6,35l3.46,27.48-57.87-55.17Z"/><path class="cls-24" d="M1309.7,997c-12-4.27-61.93-28.5-48.65-56.78s47.5-13.24,73.26-1.73c27,12,90.57,49,95.61,45.59s27-34.95,31-42,28-51.88,30.26-55.26,37.11,26,37.11,26-62.66,111.27-79.52,129S1309.7,997,1309.7,997Z"/><path class="cls-44" d="M1318,1429.22h0c-2.47,9.15-5,17.44-7.55,24.21h0l-19.84-118.35C1295.63,1346.31,1318,1429.22,1318,1429.22Z"/><path class="cls-52" d="M1349.09,1035.24l-57.41-46.89c15.21,8.15,52.58,25.22,57.27,27.35Q1348.88,1025.47,1349.09,1035.24Z"/><path class="cls-30" d="M1337.49,887.31c-.16,1.73-.37,3.69-.55,5.83-.11,1.27-.22,2.63-.35,4-19-1.27-33.73-16.42-34.63-17.35C1309.7,885.94,1337.49,887.31,1337.49,887.31Z"/><g class="cls-53"><polygon class="cls-54" points="2083.04 451.19 2113.18 451.19 2103.96 432.06 2073.82 432.06 2083.04 451.19"/><polygon class="cls-55" points="2068.94 451.19 2076.12 451.19 2066.89 432.06 2059.71 432.06 2068.94 451.19"/><polygon class="cls-56" points="1964.8 428.4 2086.85 428.4 2082.8 418.84 1960.75 418.84 1964.8 428.4"/></g><rect class="cls-57" x="1260.42" y="107.73" width="51.72" height="15.59" rx="2.82"/><rect class="cls-58" x="1260.42" y="145.1" width="51.72" height="15.59" rx="2.82"/><rect class="cls-59" x="1260.42" y="182.48" width="51.72" height="15.59" rx="2.82"/><rect class="cls-60" x="1333.49" y="107.73" width="14.72" height="15.59" rx="2.82"/><rect class="cls-61" x="1333.49" y="145.1" width="14.72" height="15.59" rx="2.82"/><rect class="cls-62" x="1333.49" y="182.48" width="14.72" height="15.59" rx="2.82"/><polygon class="cls-63" points="1113.11 1007.18 1167.22 1007.18 1150.66 972.83 1096.55 972.83 1113.11 1007.18"/><polygon class="cls-64" points="1087.8 1007.18 1100.69 1007.18 1084.13 972.83 1071.24 972.83 1087.8 1007.18"/></svg>