<svg id="Ñëîé_1" data-name="Ñëîé 1" xmlns="http://www.w3.org/2000/svg" viewBox="0 0 334.79 259.65"><defs><style>.cls-1{fill:#efefef;}.cls-2{fill:#d4ecff;}.cls-3{fill:#5793ce;}.cls-4{fill:#396caa;}.cls-5{fill:#fff;}.cls-6{fill:#ff2c9c;}.cls-7{fill:#d3008d;}.cls-8{fill:#e573b5;}.cls-9{fill:#86b8e0;}.cls-10{fill:#173d7a;}.cls-11{fill:#274f89;}</style></defs><path class="cls-1" d="M346.2,144l-132-76.2-86,58.6,124.71,72a8.16,8.16,0,0,0,8.14,0l85.13-49.15a3,3,0,0,0,0-5.25Z" transform="translate(-17.36 -16.55)"/><path class="cls-1" d="M182.57,272.7l76.83-44.33c1.66-1,1.45-2.63-.47-3.74h0a7.22,7.22,0,0,0-6.48-.27l-76.83,44.36c-1.66,1-1.45,2.63.47,3.74h0A7.22,7.22,0,0,0,182.57,272.7Z" transform="translate(-17.36 -16.55)"/><path class="cls-2" d="M265,214.81h0a.26.26,0,0,0-.28-.13l-3.65.75,1.41,2.45,2.49-2.77A.24.24,0,0,0,265,214.81Z" transform="translate(-17.36 -16.55)"/><path class="cls-3" d="M263.55,216.59a1.81,1.81,0,0,0-.82-1.43.6.6,0,0,0-.55-.07,23.28,23.28,0,0,0-12,3.09l-.26.15,4.45,7.74,1.34-.87a23.19,23.19,0,0,0,7-7.17l.58-.93A.6.6,0,0,0,263.55,216.59Z" transform="translate(-17.36 -16.55)"/><path class="cls-2" d="M255.29,224a7,7,0,0,0-3.14-5.47c-1.74-1-3.15-.2-3.16,1.81a7,7,0,0,0,3.14,5.47C253.87,226.85,255.29,226,255.29,224Z" transform="translate(-17.36 -16.55)"/><polygon class="cls-2" points="201.69 230.74 237 209.52 232.55 201.78 196.44 221.6 201.69 230.74"/><path class="cls-2" d="M220.15,244.88a8.21,8.21,0,0,0-3.71-6.46c-2.06-1.19-3.73-.23-3.73,2.14a8.26,8.26,0,0,0,3.71,6.46C218.47,248.22,220.15,247.26,220.15,244.88Z" transform="translate(-17.36 -16.55)"/><path class="cls-2" d="M218.61,245.76a8.21,8.21,0,0,0-3.71-6.46c-2.06-1.19-3.73-.23-3.73,2.14a8.26,8.26,0,0,0,3.71,6.46C216.93,249.1,218.61,248.14,218.61,245.76Z" transform="translate(-17.36 -16.55)"/><rect class="cls-2" x="176.44" y="248.59" width="41.19" height="10.54" transform="translate(-117.64 115.35) rotate(-29.88)"/><path class="cls-2" d="M182.9,266.28a8.21,8.21,0,0,0-3.71-6.46c-2.06-1.19-3.73-.23-3.73,2.14a8.26,8.26,0,0,0,3.71,6.46C181.22,269.62,182.89,268.66,182.9,266.28Z" transform="translate(-17.36 -16.55)"/><path class="cls-4" d="M181.57,265.51a5.42,5.42,0,0,0-2.51-3.93c-1.32-.77-2.34-.25-2.27,1.16a5.48,5.48,0,0,0,2.51,3.93C180.62,267.43,181.63,266.91,181.57,265.51Z" transform="translate(-17.36 -16.55)"/><path class="cls-3" d="M220.42,244.72a8.21,8.21,0,0,0-3.71-6.46c-2.06-1.19-3.73-.23-3.73,2.14a8.25,8.25,0,0,0,3.72,6.47C218.7,248.06,220.42,247.1,220.42,244.72Z" transform="translate(-17.36 -16.55)"/><path class="cls-5" d="M220.42,244.72a8.21,8.21,0,0,0-3.71-6.46,2.88,2.88,0,0,0-2.21-.44c.68-.69,1.78-.77,3,0a8.21,8.21,0,0,1,3.71,6.46c0,1.42-.6,2.33-1.52,2.58A3,3,0,0,0,220.42,244.72Z" transform="translate(-17.36 -16.55)"/><rect class="cls-3" x="214.52" y="237.88" width="2.33" height="10.54" transform="translate(-109.82 123.22) rotate(-29.88)"/><path class="cls-2" d="M218.4,245.89a8.21,8.21,0,0,0-3.71-6.46c-2.06-1.19-3.73-.23-3.73,2.14a8.26,8.26,0,0,0,3.71,6.46C216.7,249.22,218.39,248.26,218.4,245.89Z" transform="translate(-17.36 -16.55)"/><path class="cls-6" d="M179.89,266.55l-2.27-3.94L170.05,267a2.27,2.27,0,0,0-.85,3.1h0a2.27,2.27,0,0,0,3.1.85h0Z" transform="translate(-17.36 -16.55)"/><path class="cls-6" d="M180.36,265.51a3.55,3.55,0,0,0-1.6-2.79,1,1,0,0,0-1.4.16,1,1,0,0,0-.21.77,3.58,3.58,0,0,0,1.6,2.79,1,1,0,0,0,1.61-.93Z" transform="translate(-17.36 -16.55)"/><path class="cls-3" d="M188.86,251.75l-1.12-.65a2.39,2.39,0,0,0-2.42.23l-3.89,2.23a3,3,0,0,0-1.33,2.3v1.94a1.56,1.56,0,0,1-.4,1l.14.9-1-.56h0a.49.49,0,0,1-.23-.47v-1.94a6.14,6.14,0,0,1,2.78-4.8l3.89-2.23a3.43,3.43,0,0,1,3.44-.33l1.12.65a2.39,2.39,0,0,0,2.42-.23l15.68-9a.49.49,0,0,1,.52,0h0l1,.56-.83.31a1.55,1.55,0,0,1-.65.84l-15.68,9A3.4,3.4,0,0,1,188.86,251.75Z" transform="translate(-17.36 -16.55)"/><path class="cls-3" d="M188.7,251.66a2.39,2.39,0,0,0-2.42.23l-3.89,2.23a3,3,0,0,0-1.33,2.3v1.95a1.59,1.59,0,0,1-.72,1.25.44.44,0,0,1-.62,0,.48.48,0,0,1-.1-.38v-1.94a6.14,6.14,0,0,1,2.78-4.8l3.89-2.23a3.43,3.43,0,0,1,3.44-.33l1.12.65a2.39,2.39,0,0,0,2.42-.23l15.68-9a.44.44,0,0,1,.62,0,.45.45,0,0,1,.1.38A1.59,1.59,0,0,1,209,243l-15.68,9a3.43,3.43,0,0,1-3.44.33Z" transform="translate(-17.36 -16.55)"/><path class="cls-1" d="M173.7,275.87l7.17-4.14c.86-.5.76-1.37-.24-2h0a3.74,3.74,0,0,0-3.37-.14l-7.17,4.14c-.86.5-.76,1.37.24,2h0A3.74,3.74,0,0,0,173.7,275.87Z" transform="translate(-17.36 -16.55)"/><path class="cls-6" d="M249,67.61c0-5.76-4-8.1-9-5.23l-84.8,48.86a5.49,5.49,0,0,0-2.49,4.3c0,1.58,1.11,2.23,2.48,1.44L240,68.12c2.25-1.3,4.08-.24,4.08,2.36V80c1.65-.1,3.3-.1,5-.08V67.61Z" transform="translate(-17.36 -16.55)"/><path class="cls-7" d="M155.17,134l84.8-30.9c5-2.87,9.05-9.9,9.06-15.65V79.88c-1.67,0-3.32,0-5,.08V90.37A9,9,0,0,1,240,97.43l-84.8,30.9a5.49,5.49,0,0,0-2.49,4.3C152.7,134.17,153.8,134.81,155.17,134Z" transform="translate(-17.36 -16.55)"/><polygon class="cls-7" points="135.97 117.59 239.12 177.28 326.46 125.19 333.39 114.85 332.67 118.51 330.81 108.92 168.69 115.1 140.12 113.27 135.97 117.59"/><polygon class="cls-8" points="139.39 99.57 139.36 112.27 239.06 169.95 241.75 157.85 139.39 99.57"/><polygon class="cls-6" points="332.1 104.84 229.11 45.25 136.25 99.25 136.06 100.58 239.21 160.25 332.1 104.84"/><path class="cls-5" d="M316.63,152l24.22-14.36a9.08,9.08,0,0,0,3.64-6.75V129c0-1.54-.64-2.53-1.63-2.82l-47.65,26.51-38.82,21v12.84Z" transform="translate(-17.36 -16.55)"/><path class="cls-7" d="M259.87,174.83l-102.34-59.2-2.17-1.26-2-1.15a5.09,5.09,0,0,0-.66,2.31,1.76,1.76,0,0,0,.71,1.59h0l103.12,59.66Z" transform="translate(-17.36 -16.55)"/><polygon class="cls-5" points="237.84 176.53 239.12 177.28 239.36 176.87 238.56 176.24 237.84 176.53"/><polygon class="cls-5" points="237.87 159.48 239.19 160.24 238.86 159.52 237.87 159.48"/><path class="cls-6" d="M258.35,170.91l84.8-48.86c5-2.87,9-.53,9,5.23v1.9c0,5.76-4.07,12.78-9.06,15.65l-84.8,48.86c-1.37.79-2.48.15-2.48-1.44a5.49,5.49,0,0,1,2.49-4.3l84.8-48.86a9,9,0,0,0,4.08-7.06v-1.9c0-2.6-1.83-3.65-4.08-2.36l-84.8,48.86c-1.37.79-2.48.15-2.48-1.44A5.48,5.48,0,0,1,258.35,170.91Z" transform="translate(-17.36 -16.55)"/><polygon class="cls-5" points="203.22 106.99 247.28 81.6 285.5 103.71 241.43 129.1 203.22 106.99"/><path class="cls-5" d="M255.83,192.26a5.49,5.49,0,0,1,2.49-4.3l84.8-48.86A9,9,0,0,0,347.2,132v-1.9c0-1.7-.78-2.73-2-2.89a3.35,3.35,0,0,1,.6,2.1v1.9a9,9,0,0,1-4.08,7.06l-84.8,48.86a5.49,5.49,0,0,0-2.49,4.3c0,1.2.64,1.86,1.54,1.76A2.46,2.46,0,0,1,255.83,192.26Z" transform="translate(-17.36 -16.55)"/><path class="cls-5" d="M255.86,175.2a5.49,5.49,0,0,1,2.49-4.3L343.15,122c2.15-1.24,4.12-1.5,5.67-1-1.66-1.41-4.19-1.47-7,.16L257,170.11a5.49,5.49,0,0,0-2.49,4.3c0,1.2.64,1.86,1.54,1.76A2.49,2.49,0,0,1,255.86,175.2Z" transform="translate(-17.36 -16.55)"/><path class="cls-2" d="M245.7,29.81c0-5.76-4-8.1-9-5.23L151.9,73.44a5.49,5.49,0,0,0-2.49,4.3c0,1.58,1.11,2.23,2.48,1.44l84.8-48.86c2.25-1.3,4.08-.24,4.08,2.36v9.48c1.65-.1,3.3-.1,5-.08V29.81Z" transform="translate(-17.36 -16.55)"/><path class="cls-3" d="M151.78,96.22l84.8-30.9c5-2.87,9-9.9,9.06-15.65V42.08c-1.67,0-3.32,0-5,.08V52.54a9,9,0,0,1-4.08,7.06l-84.8,30.9a5.49,5.49,0,0,0-2.49,4.3C149.29,96.37,150.41,97,151.78,96.22Z" transform="translate(-17.36 -16.55)"/><polygon class="cls-3" points="132.57 79.79 235.73 139.48 323.07 87.39 330 77.05 329.27 80.72 327.41 71.12 165.29 77.31 136.73 75.47 132.57 79.79"/><polygon class="cls-9" points="136 61.77 135.97 74.47 235.67 132.15 238.36 120.05 136 61.77"/><polygon class="cls-2" points="328.71 67.04 225.72 7.46 132.86 61.45 132.67 62.78 235.81 122.45 328.71 67.04"/><path class="cls-5" d="M313.24,114.19l24.22-14.36a9.08,9.08,0,0,0,3.64-6.75v-1.9c0-1.54-.64-2.53-1.63-2.82l-47.66,26.51-38.82,21v12.84Z" transform="translate(-17.36 -16.55)"/><path class="cls-3" d="M256.48,137,154.14,77.83,152,76.58l-2-1.15a5.09,5.09,0,0,0-.66,2.31,1.76,1.76,0,0,0,.71,1.59h0L253.14,139Z" transform="translate(-17.36 -16.55)"/><polygon class="cls-5" points="234.44 138.73 235.73 139.48 235.97 139.07 235.16 138.44 234.44 138.73"/><polygon class="cls-5" points="234.48 121.68 235.79 122.44 235.46 121.72 234.48 121.68"/><path class="cls-2" d="M255,133.11l84.8-48.86c5-2.87,9-.53,9,5.23v1.9c0,5.76-4.07,12.78-9.06,15.65l-84.8,48.86c-1.37.79-2.48.15-2.48-1.44a5.49,5.49,0,0,1,2.49-4.3L339.7,101.3a9,9,0,0,0,4.08-7.06v-1.9c0-2.6-1.83-3.65-4.08-2.36l-84.8,48.86c-1.37.79-2.48.15-2.48-1.44A5.5,5.5,0,0,1,255,133.11Z" transform="translate(-17.36 -16.55)"/><polygon class="cls-5" points="199.82 69.19 243.89 43.8 282.11 65.91 238.04 91.3 199.82 69.19"/><path class="cls-5" d="M252.44,154.46a5.49,5.49,0,0,1,2.49-4.3L339.7,101.3a9,9,0,0,0,4.08-7.06v-1.9c0-1.7-.78-2.73-2-2.89a3.35,3.35,0,0,1,.6,2.1v1.9a9,9,0,0,1-4.08,7.06l-84.73,48.86a5.49,5.49,0,0,0-2.49,4.3c0,1.2.64,1.86,1.54,1.76A2.49,2.49,0,0,1,252.44,154.46Z" transform="translate(-17.36 -16.55)"/><path class="cls-5" d="M252.47,137.37a5.49,5.49,0,0,1,2.49-4.3l84.8-48.86c2.15-1.24,4.12-1.5,5.67-.95-1.66-1.41-4.19-1.47-7,.16l-84.83,49a5.49,5.49,0,0,0-2.49,4.3c0,1.2.64,1.86,1.54,1.76A2.4,2.4,0,0,1,252.47,137.37Z" transform="translate(-17.36 -16.55)"/><path class="cls-1" d="M139.37,264.08,19.7,195c-3.39-2-3-5.37.95-7.63l81.52-47c3.91-2.26,9.83-2.5,13.21-.55L235.1,208.9c3.39,2,3,5.37-.95,7.63l-81.52,47C148.7,265.79,142.76,266,139.37,264.08Z" transform="translate(-17.36 -16.55)"/><path class="cls-10" d="M263.09,86.37,143.37,17.29a4.84,4.84,0,0,0-4.06-.5h0l-.22.08H139l-4.34,1.67,3.88,1.9a.29.29,0,0,1-.06.21l-19.47,88.72c-1,4.44,1,9.63,4.37,11.58l116.84,67.46-.42,5,4.73-1.83a6.65,6.65,0,0,0,3.39-4.82L267.46,98C268.43,93.55,266.48,88.37,263.09,86.37Z" transform="translate(-17.36 -16.55)"/><path class="cls-4" d="M263.09,86.37,143.37,17.29a4.84,4.84,0,0,0-4.06-.5h0l-.22.08H139l-4.34,1.67,3.88,1.9a.29.29,0,0,1-.06.21L125.7,79.15l58.58,45.64,82.59-33.61A9.28,9.28,0,0,0,263.09,86.37Z" transform="translate(-17.36 -16.55)"/><path class="cls-11" d="M258.57,100.05l9.13-3.88A11.39,11.39,0,0,0,264,87l-14.43,6.07Z" transform="translate(-17.36 -16.55)"/><path class="cls-2" d="M235.7,192.93,116,123.81c-3.39-2-5.34-7.14-4.37-11.58L131.1,23.47c1-4.44,4.51-6.46,7.9-4.5L258.7,88.08c3.39,2,5.34,7.14,4.37,11.58l-19.5,88.76C242.6,192.87,239.07,194.89,235.7,192.93Z" transform="translate(-17.36 -16.55)"/><path class="cls-5" d="M259.86,87.66,140.15,18.54a4.75,4.75,0,0,0-4.71-.21A4.93,4.93,0,0,1,139,19L258.7,88.08c3.39,2,5.34,7.14,4.37,11.58l-19.5,88.76a6.71,6.71,0,0,1-3.19,4.71c2-.44,3.71-2.27,4.33-5.13l19.5-88.76C265.2,94.8,263.25,89.62,259.86,87.66Z" transform="translate(-17.36 -16.55)"/><path class="cls-5" d="M233.08,186.37l-112.59-65c-3.1-1.79-4.89-6.54-4-10.6l17.84-81.23c.89-4.06,4.13-5.91,7.23-4.12l112.59,65c3.1,1.79,4.89,6.54,4,10.6l-17.84,81.23C239.42,186.28,236.18,188.12,233.08,186.37Z" transform="translate(-17.36 -16.55)"/><path class="cls-10" d="M233.08,186.37l-112.59-65c-3.1-1.79-4.89-6.54-4-10.6l17.84-81.23c.89-4.06,4.13-5.91,7.23-4.12l112.59,65c3.1,1.79,4.89,6.54,4,10.6l-17.84,81.23C239.42,186.28,236.18,188.12,233.08,186.37Z" transform="translate(-17.36 -16.55)"/><path class="cls-3" d="M234.07,185.93l-112.59-65c-3.1-1.79-4.89-6.54-4-10.6L135.32,29.1a6.23,6.23,0,0,1,2.84-4.28c-1.78.46-3.26,2.13-3.82,4.68L116.5,110.76c-.89,4.07.9,8.81,4,10.6l112.59,65a4.32,4.32,0,0,0,4.39.16A4.49,4.49,0,0,1,234.07,185.93Z" transform="translate(-17.36 -16.55)"/><path class="cls-10" d="M237.33,195.94,221,193.78l-105.64-61c-3.39-2-9.3-1.71-13.21.55l-74.85,43.2-9.9-1.31v5.61h0a3.86,3.86,0,0,0,2.27,3.47l119.72,69.12c3.39,2,9.3,1.71,13.21-.55l81.52-47c2.2-1.27,3.3-2.91,3.23-4.44h0v-5.49Z" transform="translate(-17.36 -16.55)"/><path class="cls-4" d="M158,157.37,150.45,153H67.94L27.26,176.51l-9.9-1.31v5.61h0a3.86,3.86,0,0,0,2.27,3.47L139.35,253.4a12.39,12.39,0,0,0,6.82,1.28Z" transform="translate(-17.36 -16.55)"/><path class="cls-3" d="M21.76,175.82l-4.39-.58v5.61h0a3.86,3.86,0,0,0,2.27,3.47l2.11,1.22v-9.72Z" transform="translate(-17.36 -16.55)"/><path class="cls-11" d="M140.57,254a15.31,15.31,0,0,0,11.23-.7V240.78H140.57Z" transform="translate(-17.36 -16.55)"/><path class="cls-2" d="M139.37,247.83,19.7,178.71c-3.39-2-3-5.37.95-7.63l81.52-47c3.91-2.26,9.83-2.5,13.21-.55L235.1,192.65c3.39,2,3,5.37-.95,7.63l-81.52,47C148.7,249.54,142.76,249.79,139.37,247.83Z" transform="translate(-17.36 -16.55)"/><path class="cls-5" d="M234.1,198.18l-81.52,47c-3.91,2.26-9.83,2.5-13.21.55L19.7,176.66a4.51,4.51,0,0,1-2.11-2.3c-.53,1.6.15,3.22,2.11,4.35l119.72,69.12c3.39,2,9.3,1.71,13.21-.55l81.52-47c2.63-1.52,3.67-3.56,3-5.33A6.38,6.38,0,0,1,234.1,198.18Z" transform="translate(-17.36 -16.55)"/><path class="cls-3" d="M70.57,155.83l-5.42-3.13c-.43-.25-.38-.69.12-1L71.66,148a1.89,1.89,0,0,1,1.7-.07l5.42,3.13c.43.25.38.69-.12,1l-6.39,3.69A1.89,1.89,0,0,1,70.57,155.83Z" transform="translate(-17.36 -16.55)"/><path class="cls-3" d="M78.93,160.66l-5.42-3.13c-.43-.25-.38-.69.12-1L80,152.84a1.89,1.89,0,0,1,1.7-.07l5.42,3.13c.43.25.38.69-.12,1l-6.39,3.69A1.89,1.89,0,0,1,78.93,160.66Z" transform="translate(-17.36 -16.55)"/><path class="cls-3" d="M87.3,165.49l-5.42-3.12c-.43-.25-.38-.69.12-1l6.39-3.69a1.89,1.89,0,0,1,1.7-.07l5.42,3.13c.43.25.38.69-.12,1L89,165.37A1.89,1.89,0,0,1,87.3,165.49Z" transform="translate(-17.36 -16.55)"/><path class="cls-3" d="M98.87,161.5l-5.42-3.13c-.43-.25-.38-.69.12-1l5.37-3.1a1.89,1.89,0,0,1,1.7-.07l5.42,3.13c.43.25.38.69-.12,1l-5.37,3.1A1.89,1.89,0,0,1,98.87,161.5Z" transform="translate(-17.36 -16.55)"/><path class="cls-3" d="M107.23,166.37l-5.42-3.13c-.43-.25-.38-.69.12-1l5.37-3.1a1.89,1.89,0,0,1,1.7-.07l5.42,3.13c.43.25.38.69-.12,1l-5.37,3.1A1.89,1.89,0,0,1,107.23,166.37Z" transform="translate(-17.36 -16.55)"/><path class="cls-3" d="M115.6,171.16,110.18,168c-.43-.25-.38-.69.12-1l5.37-3.1a1.89,1.89,0,0,1,1.7-.07l5.42,3.13c.43.25.38.69-.12,1l-5.37,3.1A1.89,1.89,0,0,1,115.6,171.16Z" transform="translate(-17.36 -16.55)"/><path class="cls-3" d="M124,176l-5.42-3.13c-.43-.25-.38-.69.12-1l5.37-3.1a1.89,1.89,0,0,1,1.7-.07l5.42,3.13c.43.25.38.69-.12,1l-5.37,3.1A1.89,1.89,0,0,1,124,176Z" transform="translate(-17.36 -16.55)"/><path class="cls-3" d="M132.33,180.82l-5.42-3.13c-.43-.25-.38-.69.12-1l5.37-3.1a1.89,1.89,0,0,1,1.7-.07l5.42,3.13c.43.25.38.69-.12,1l-5.37,3.1A1.89,1.89,0,0,1,132.33,180.82Z" transform="translate(-17.36 -16.55)"/><path class="cls-3" d="M140.7,185.65l-5.42-3.13c-.43-.25-.38-.69.12-1l5.37-3.1a1.89,1.89,0,0,1,1.7-.07l5.42,3.13c.43.25.38.69-.12,1l-5.37,3.1A1.89,1.89,0,0,1,140.7,185.65Z" transform="translate(-17.36 -16.55)"/><path class="cls-3" d="M149.06,190.48l-5.42-3.11c-.43-.25-.38-.69.12-1l5.37-3.1a1.89,1.89,0,0,1,1.7-.07l5.42,3.13c.43.25.38.69-.12,1l-5.37,3.1A1.88,1.88,0,0,1,149.06,190.48Z" transform="translate(-17.36 -16.55)"/><path class="cls-3" d="M157.42,195.31,152,192.18c-.43-.25-.38-.69.12-1l5.37-3.1a1.89,1.89,0,0,1,1.7-.07l5.42,3.13c.43.25.38.69-.12,1l-5.37,3.1A1.89,1.89,0,0,1,157.42,195.31Z" transform="translate(-17.36 -16.55)"/><path class="cls-3" d="M165.79,200.14,160.37,197c-.43-.25-.38-.69.12-1l5.37-3.1a1.89,1.89,0,0,1,1.7-.07L173,196c.43.25.38.69-.12,1l-5.37,3.1A1.89,1.89,0,0,1,165.79,200.14Z" transform="translate(-17.36 -16.55)"/><path class="cls-3" d="M174.15,205l-5.45-3.13c-.43-.25-.38-.69.12-1l5.37-3.1a1.89,1.89,0,0,1,1.7-.07l5.42,3.13c.43.25.38.69-.12,1l-5.37,3.1A1.89,1.89,0,0,1,174.15,205Z" transform="translate(-17.36 -16.55)"/><path class="cls-3" d="M111.19,159.21l-5.42-3.13c-.43-.25-.38-.69.12-1l5.37-3.1a1.89,1.89,0,0,1,1.7-.07l5.42,3.13c.43.25.38.69-.12,1l-5.37,3.1A1.89,1.89,0,0,1,111.19,159.21Z" transform="translate(-17.36 -16.55)"/><path class="cls-3" d="M102.7,154.31l-5.42-3.13c-.43-.25-.38-.69.12-1l5.37-3.1a1.89,1.89,0,0,1,1.7-.07l5.42,3.13c.43.25.38.69-.12,1l-5.37,3.1A1.89,1.89,0,0,1,102.7,154.31Z" transform="translate(-17.36 -16.55)"/><path class="cls-3" d="M94.2,149.37l-11.67-6.74c-.43-.25-.38-.69.12-1l5.37-3.1a1.89,1.89,0,0,1,1.7-.07l11.67,6.74c.44.25.38.69-.12,1l-5.37,3.17A1.89,1.89,0,0,1,94.2,149.37Z" transform="translate(-17.36 -16.55)"/><path class="cls-3" d="M100.14,143.43,90.7,138c-.43-.25-.38-.69.12-1l5.37-3.1a1.89,1.89,0,0,1,1.7-.07l9.47,5.47c.43.25.38.69-.12,1l-5.37,3.1A1.89,1.89,0,0,1,100.14,143.43Z" transform="translate(-17.36 -16.55)"/><path class="cls-3" d="M119.56,164l-5.42-3.13c-.43-.25-.38-.69.12-1l5.37-3.1a1.89,1.89,0,0,1,1.7-.07l5.42,3.13c.43.25.38.69-.12,1l-5.37,3.1A1.89,1.89,0,0,1,119.56,164Z" transform="translate(-17.36 -16.55)"/><path class="cls-3" d="M127.92,168.87l-5.42-3.13c-.43-.25-.38-.69.12-1l5.37-3.1a1.89,1.89,0,0,1,1.7-.07l5.42,3.13c.44.25.38.69-.12,1l-5.37,3.1A1.89,1.89,0,0,1,127.92,168.87Z" transform="translate(-17.36 -16.55)"/><path class="cls-3" d="M136.29,173.7l-5.42-3.13c-.43-.25-.38-.69.12-1l5.37-3.1a1.89,1.89,0,0,1,1.7-.07l5.42,3.13c.44.25.38.69-.12,1l-5.37,3.1A1.89,1.89,0,0,1,136.29,173.7Z" transform="translate(-17.36 -16.55)"/><path class="cls-3" d="M144.7,178.53l-5.46-3.16c-.44-.25-.38-.69.12-1l5.34-3a1.89,1.89,0,0,1,1.7-.07l5.42,3.13c.44.25.38.69-.12,1l-5.37,3.1A1.86,1.86,0,0,1,144.7,178.53Z" transform="translate(-17.36 -16.55)"/><path class="cls-3" d="M153,183.37l-5.42-3.13c-.44-.25-.38-.69.12-1l5.37-3.1a1.89,1.89,0,0,1,1.7-.07l5.42,3.13c.43.25.38.69-.12,1l-5.37,3.1A1.89,1.89,0,0,1,153,183.37Z" transform="translate(-17.36 -16.55)"/><path class="cls-3" d="M161.38,188.19,156,185.06c-.44-.25-.38-.69.12-1l5.37-3.1a1.89,1.89,0,0,1,1.7-.07l5.42,3.13c.43.25.38.69-.12,1l-5.37,3.1A1.89,1.89,0,0,1,161.38,188.19Z" transform="translate(-17.36 -16.55)"/><path class="cls-3" d="M169.7,193l-5.42-3.13c-.43-.25-.38-.69.12-1l5.37-3.1a1.89,1.89,0,0,1,1.7-.07l5.42,3.13c.43.25.38.69-.12,1L171.4,193A1.89,1.89,0,0,1,169.7,193Z" transform="translate(-17.36 -16.55)"/><path class="cls-3" d="M178.11,197.85l-5.41-3.13c-.43-.25-.38-.69.12-1l5.37-3.1a1.89,1.89,0,0,1,1.7-.07l5.42,3.13c.43.25.38.69-.12,1l-5.37,3.1A1.88,1.88,0,0,1,178.11,197.85Z" transform="translate(-17.36 -16.55)"/><path class="cls-3" d="M186.48,202.68l-5.42-3.13c-.43-.25-.38-.69.12-1l5.37-3.1a1.89,1.89,0,0,1,1.7-.07l5.42,3.13c.43.25.38.69-.12,1l-5.37,3.1A1.89,1.89,0,0,1,186.48,202.68Z" transform="translate(-17.36 -16.55)"/><path class="cls-3" d="M201.35,211.27l-11.82-6.82c-.43-.25-.38-.69.12-1l5.37-3.1a1.89,1.89,0,0,1,1.7-.07l11.82,6.82c.43.25.38.69-.12,1l-5.37,3.1A1.89,1.89,0,0,1,201.35,211.27Z" transform="translate(-17.36 -16.55)"/><path class="cls-3" d="M217.64,201.86l-10-5.76c-.43-.25-.38-.69.12-1l5.37-3.1a1.89,1.89,0,0,1,1.7-.07l10,5.76c.43.25.38.69-.12,1l-5.37,3.1A1.89,1.89,0,0,1,217.64,201.86Z" transform="translate(-17.36 -16.55)"/><path class="cls-3" d="M134.21,163.1,128.79,160c-.43-.25-.38-.69.12-1l5.37-3.1a1.89,1.89,0,0,1,1.7-.07l5.42,3.13c.43.25.38.69-.12,1l-5.37,3.1A1.89,1.89,0,0,1,134.21,163.1Z" transform="translate(-17.36 -16.55)"/><path class="cls-3" d="M125.63,158.15,120.21,155c-.43-.25-.38-.69.12-1l5.37-3.1a1.89,1.89,0,0,1,1.7-.07l5.42,3.13c.44.25.38.69-.12,1l-5.37,3.1A1.89,1.89,0,0,1,125.63,158.15Z" transform="translate(-17.36 -16.55)"/><path class="cls-3" d="M117.06,153.2l-5.42-3.13c-.44-.25-.38-.69.12-1l5.37-3.1a1.89,1.89,0,0,1,1.7-.07l5.42,3.13c.44.25.38.69-.12,1l-5.37,3.1A1.89,1.89,0,0,1,117.06,153.2Z" transform="translate(-17.36 -16.55)"/><path class="cls-3" d="M108.49,148.25l-5.42-3.13c-.44-.25-.38-.69.12-1l5.37-3.1a1.89,1.89,0,0,1,1.7-.07l5.42,3.13c.43.25.38.69-.12,1l-5.37,3.1A1.89,1.89,0,0,1,108.49,148.25Z" transform="translate(-17.36 -16.55)"/><path class="cls-3" d="M142.57,167.93l-5.42-3.13c-.43-.25-.38-.69.12-1l5.37-3.1a1.89,1.89,0,0,1,1.7-.07l5.42,3.13c.44.25.38.69-.12,1l-5.37,3.1A1.89,1.89,0,0,1,142.57,167.93Z" transform="translate(-17.36 -16.55)"/><path class="cls-3" d="M150.94,172.76l-5.42-3.13c-.43-.25-.38-.69.12-1l5.37-3.1a1.89,1.89,0,0,1,1.7-.07l5.42,3.13c.44.25.38.69-.12,1l-5.37,3.1A1.89,1.89,0,0,1,150.94,172.76Z" transform="translate(-17.36 -16.55)"/><path class="cls-3" d="M159.3,177.59l-5.42-3.13c-.44-.25-.38-.69.12-1l5.37-3.1a1.89,1.89,0,0,1,1.7-.07l5.42,3.13c.44.25.38.69-.12,1l-5.37,3.1A1.89,1.89,0,0,1,159.3,177.59Z" transform="translate(-17.36 -16.55)"/><path class="cls-3" d="M167.7,182.37l-5.42-3.13c-.44-.25-.38-.69.12-1l5.37-3.1a1.89,1.89,0,0,1,1.7-.07l5.42,3.13c.43.25.38.69-.12,1l-5.37,3.1A1.89,1.89,0,0,1,167.7,182.37Z" transform="translate(-17.36 -16.55)"/><path class="cls-3" d="M176,187.25l-5.42-3.13c-.43-.25-.38-.69.12-1l5.37-3.1a1.89,1.89,0,0,1,1.7-.07l5.42,3.13c.43.25.38.69-.12,1l-5.37,3.1A1.89,1.89,0,0,1,176,187.25Z" transform="translate(-17.36 -16.55)"/><path class="cls-3" d="M184.4,192.08,179,189c-.43-.25-.38-.69.12-1l5.37-3.1a1.89,1.89,0,0,1,1.7-.07l5.42,3.13c.43.25.38.69-.12,1L186.1,192A1.89,1.89,0,0,1,184.4,192.08Z" transform="translate(-17.36 -16.55)"/><path class="cls-3" d="M192.76,196.91l-5.42-3.13c-.43-.25-.38-.69.12-1l5.37-3.1a1.89,1.89,0,0,1,1.7-.07l5.42,3.13c.43.25.38.69-.12,1l-5.37,3.1A1.89,1.89,0,0,1,192.76,196.91Z" transform="translate(-17.36 -16.55)"/><path class="cls-3" d="M201.13,201.73l-5.43-3.12c-.43-.25-.38-.69.12-1l5.37-3.1a1.89,1.89,0,0,1,1.7-.07l5.42,3.13c.43.25.38.69-.12,1l-5.37,3.1A1.87,1.87,0,0,1,201.13,201.73Z" transform="translate(-17.36 -16.55)"/><path class="cls-3" d="M209.49,206.56l-5.42-3.13c-.43-.25-.38-.69.12-1l5.37-3.1a1.89,1.89,0,0,1,1.7-.07l5.44,3.11c.43.25.38.69-.12,1l-5.37,3.1A1.9,1.9,0,0,1,209.49,206.56Z" transform="translate(-17.36 -16.55)"/><path class="cls-3" d="M129.8,151.15,124.38,148c-.43-.25-.38-.69.12-1l5.37-3.1a1.89,1.89,0,0,1,1.7-.07L137,147c.43.25.38.69-.12,1l-5.37,3.1A1.89,1.89,0,0,1,129.8,151.15Z" transform="translate(-17.36 -16.55)"/><path class="cls-3" d="M121.48,146.37l-5.42-3.13c-.43-.25-.38-.69.12-1l5.37-3.1a1.89,1.89,0,0,1,1.7-.07l5.42,3.13c.43.25.38.69-.12,1l-5.37,3.1A1.89,1.89,0,0,1,121.48,146.37Z" transform="translate(-17.36 -16.55)"/><path class="cls-3" d="M113.16,141.54l-5.46-3.17c-.43-.25-.38-.69.12-1l5.37-3.1a1.89,1.89,0,0,1,1.7-.07l5.42,3.13c.43.25.38.69-.12,1l-5.37,3.1A1.9,1.9,0,0,1,113.16,141.54Z" transform="translate(-17.36 -16.55)"/><path class="cls-3" d="M104.83,136.74l-5.42-3.13c-.43-.25-.38-.69.12-1l5.37-3.1a1.89,1.89,0,0,1,1.7-.07l5.42,3.13c.43.25.38.69-.12,1l-5.37,3.1A1.89,1.89,0,0,1,104.83,136.74Z" transform="translate(-17.36 -16.55)"/><path class="cls-3" d="M113.39,131.79,108,128.66c-.43-.25-.38-.69.12-1l1.77-1a1.89,1.89,0,0,1,1.7-.07l5.42,3.13c.43.25.38.69-.12,1l-1.77,1A1.89,1.89,0,0,1,113.39,131.79Z" transform="translate(-17.36 -16.55)"/><path class="cls-3" d="M124.25,138.07l-5.42-3.13c-.43-.25-.38-.69.12-1l1.77-1a1.89,1.89,0,0,1,1.7-.07l5.42,3.13c.43.25.38.69-.12,1L126,138A1.89,1.89,0,0,1,124.25,138.07Z" transform="translate(-17.36 -16.55)"/><path class="cls-3" d="M132.54,142.85l-5.42-3.13c-.44-.25-.38-.69.12-1l1.77-1a1.89,1.89,0,0,1,1.7-.07l5.42,3.13c.43.25.38.69-.12,1l-1.77,1A1.89,1.89,0,0,1,132.54,142.85Z" transform="translate(-17.36 -16.55)"/><path class="cls-3" d="M140.83,147.64l-5.42-3.13c-.44-.25-.38-.69.12-1l1.77-1a1.89,1.89,0,0,1,1.7-.07l5.42,3.13c.43.25.38.69-.12,1l-1.77,1A1.89,1.89,0,0,1,140.83,147.64Z" transform="translate(-17.36 -16.55)"/><path class="cls-3" d="M149.12,152.42l-5.42-3.13c-.44-.25-.38-.69.12-1l1.77-1a1.89,1.89,0,0,1,1.7-.07l5.41,3.15c.43.25.38.69-.12,1l-1.77,1A1.9,1.9,0,0,1,149.12,152.42Z" transform="translate(-17.36 -16.55)"/><path class="cls-3" d="M195.39,179.14,190,176c-.43-.25-.38-.69.12-1l1.77-1a1.89,1.89,0,0,1,1.7-.07l5.42,3.13c.43.25.38.69-.12,1l-1.77,1A1.89,1.89,0,0,1,195.39,179.14Z" transform="translate(-17.36 -16.55)"/><path class="cls-3" d="M203.7,183.92l-5.42-3.13c-.43-.25-.38-.69.12-1l1.77-1a1.89,1.89,0,0,1,1.7-.07l5.42,3.13c.43.25.38.69-.12,1l-1.77,1A1.89,1.89,0,0,1,203.7,183.92Z" transform="translate(-17.36 -16.55)"/><path class="cls-3" d="M212,188.71l-5.42-3.13c-.43-.25-.38-.69.12-1l1.77-1a1.89,1.89,0,0,1,1.7-.07l5.42,3.13c.43.25.38.69-.12,1l-1.77,1A1.89,1.89,0,0,1,212,188.71Z" transform="translate(-17.36 -16.55)"/><path class="cls-3" d="M220.26,193.5l-5.42-3.13c-.43-.25-.38-.69.12-1l1.77-1a1.89,1.89,0,0,1,1.7-.07l5.42,3.13c.43.25.38.69-.12,1l-1.77,1A1.89,1.89,0,0,1,220.26,193.5Z" transform="translate(-17.36 -16.55)"/><path class="cls-3" d="M138.17,156l-5.42-3.13c-.43-.25-.38-.69.12-1l5.37-3.1a1.89,1.89,0,0,1,1.7-.07l5.42,3.13c.43.25.38.69-.12,1l-5.37,3.1A1.89,1.89,0,0,1,138.17,156Z" transform="translate(-17.36 -16.55)"/><path class="cls-3" d="M146.53,160.81l-5.42-3.13c-.43-.25-.38-.69.12-1l5.37-3.1a1.89,1.89,0,0,1,1.7-.07l5.42,3.13c.43.25.38.69-.12,1l-5.37,3.1A1.89,1.89,0,0,1,146.53,160.81Z" transform="translate(-17.36 -16.55)"/><path class="cls-3" d="M154.9,165.64l-5.42-3.13c-.43-.25-.38-.69.12-1l5.37-3.1a1.89,1.89,0,0,1,1.73,0l5.42,3.13c.43.25.38.69-.12,1l-5.37,3.1A1.89,1.89,0,0,1,154.9,165.64Z" transform="translate(-17.36 -16.55)"/><path class="cls-3" d="M163.26,170.47l-5.41-3.1c-.43-.25-.38-.69.12-1l5.37-3.1a1.89,1.89,0,0,1,1.7-.07l5.42,3.13c.43.25.38.69-.12,1l-5.37,3.1A1.88,1.88,0,0,1,163.26,170.47Z" transform="translate(-17.36 -16.55)"/><path class="cls-3" d="M171.63,175.3l-5.42-3.13c-.43-.25-.38-.69.12-1l5.37-3.1a1.89,1.89,0,0,1,1.7-.07l5.42,3.13c.43.25.38.69-.12,1l-5.37,3.1A1.89,1.89,0,0,1,171.63,175.3Z" transform="translate(-17.36 -16.55)"/><path class="cls-3" d="M180,180.13,174.57,177c-.43-.25-.38-.69.12-1l5.37-3.1a1.89,1.89,0,0,1,1.7-.07l5.42,3.13c.43.25.38.69-.12,1l-5.37,3.1A1.89,1.89,0,0,1,180,180.13Z" transform="translate(-17.36 -16.55)"/><path class="cls-3" d="M188.36,185l-5.42-3.13c-.43-.25-.38-.69.12-1l5.37-3.1a1.89,1.89,0,0,1,1.7-.07l5.42,3.13c.43.25.38.69-.12,1l-5.37,3.1A1.89,1.89,0,0,1,188.36,185Z" transform="translate(-17.36 -16.55)"/><path class="cls-3" d="M196.7,189.79l-5.42-3.13c-.43-.25-.38-.69.12-1l5.37-3.1a1.89,1.89,0,0,1,1.7-.07l5.42,3.13c.43.25.38.69-.12,1l-5.37,3.1A1.89,1.89,0,0,1,196.7,189.79Z" transform="translate(-17.36 -16.55)"/><path class="cls-3" d="M205.09,194.62l-5.39-3.13c-.43-.25-.38-.69.12-1l5.37-3.1a1.89,1.89,0,0,1,1.7-.07l5.42,3.13c.43.25.38.69-.12,1l-5.37,3.1A1.89,1.89,0,0,1,205.09,194.62Z" transform="translate(-17.36 -16.55)"/><path class="cls-3" d="M90.34,156.58l-16-9.21c-.43-.25-.38-.69.12-1l5.37-3.1a1.89,1.89,0,0,1,1.7-.07l16,9.21c.43.25.38.69-.12,1L92,156.51A1.89,1.89,0,0,1,90.34,156.58Z" transform="translate(-17.36 -16.55)"/><path class="cls-3" d="M193.11,215.91l-16-9.21c-.43-.25-.38-.69.12-1l5.37-3.1a1.89,1.89,0,0,1,1.7-.07l16,9.21c.43.25.38.69-.12,1l-5.37,3.1A1.89,1.89,0,0,1,193.11,215.91Z" transform="translate(-17.36 -16.55)"/><path class="cls-3" d="M159.7,207.26l-5.42-3.13c-.44-.25-.38-.69.12-1l6.39-3.69a1.89,1.89,0,0,1,1.7-.07l5.42,3.13c.43.25.38.69-.12,1l-6.39,3.69A1.89,1.89,0,0,1,159.7,207.26Z" transform="translate(-17.36 -16.55)"/><path class="cls-3" d="M98.91,172.19l-8.66-5c-.43-.25-.38-.69.12-1l6.39-3.69a1.89,1.89,0,0,1,1.7-.07l8.66,5c.43.25.38.69-.12,1l-6.39,3.69A1.89,1.89,0,0,1,98.91,172.19Z" transform="translate(-17.36 -16.55)"/><path class="cls-3" d="M151.6,202.61l-8.66-5c-.43-.25-.38-.69.12-1l6.39-3.69a1.89,1.89,0,0,1,1.7-.07l8.66,5c.43.25.38.69-.12,1l-6.39,3.69A1.89,1.89,0,0,1,151.6,202.61Z" transform="translate(-17.36 -16.55)"/><path class="cls-3" d="M111,179.16l-8.66-5c-.44-.25-.38-.69.12-1l6.39-3.69a1.89,1.89,0,0,1,1.7-.07l8.66,5c.44.25.38.69-.12,1l-6.37,3.69A1.9,1.9,0,0,1,111,179.16Z" transform="translate(-17.36 -16.55)"/><path class="cls-3" d="M110.59,169.45l37.66,21.75a.52.52,0,0,1,.36.64.5.5,0,0,1-.36.36l-6.55,3.74a1.86,1.86,0,0,1-1.69,0l-37.66-21.75Z" transform="translate(-17.36 -16.55)"/><path class="cls-3" d="M183,216l6,3.48c.36.21.31.57-.1.8l-2.62,1.51a1.55,1.55,0,0,1-1.39.06l-6-3.48c-.36-.21-.31-.57.1-.8l2.62-1.51A1.55,1.55,0,0,1,183,216Z" transform="translate(-17.36 -16.55)"/><path class="cls-3" d="M174.6,211.15l6,3.48c.36.21.31.57-.1.8l-2.62,1.51a1.55,1.55,0,0,1-1.39.06l-6-3.48c-.36-.21-.31-.57.1-.8l2.62-1.51A1.55,1.55,0,0,1,174.6,211.15Z" transform="translate(-17.36 -16.55)"/><path class="cls-3" d="M166.24,206.37l6,3.48c.36.21.31.57-.1.8l-2.62,1.51a1.55,1.55,0,0,1-1.39.06l-6-3.48c-.36-.21-.31-.57.1-.8l2.62-1.51A1.55,1.55,0,0,1,166.24,206.37Z" transform="translate(-17.36 -16.55)"/><path class="cls-3" d="M179.22,208.48l6,3.48c.36.21.31.57-.1.8l-2.62,1.51a1.55,1.55,0,0,1-1.39.06l-6-3.48c-.36-.21-.31-.57.1-.8l2.62-1.51A1.55,1.55,0,0,1,179.22,208.48Z" transform="translate(-17.36 -16.55)"/><polygon class="cls-2" points="194.9 97.7 149.84 71.68 150.42 68.75 195.48 94.77 194.9 97.7"/><polygon class="cls-2" points="178.76 102.64 147.31 84.48 147.89 81.55 179.34 99.71 178.76 102.64"/><polygon class="cls-5" points="175.79 93.79 148.57 78.08 149.16 75.15 176.37 90.86 175.79 93.79"/><polygon class="cls-6" points="193.63 104.1 180.03 96.24 180.61 93.31 194.21 101.17 193.63 104.1"/><polygon class="cls-2" points="145.04 46.13 131.44 38.27 132.02 35.34 145.62 43.2 145.04 46.13"/><polygon class="cls-5" points="143.57 52.93 129.96 45.08 130.54 42.15 144.15 50.01 143.57 52.93"/><polygon class="cls-2" points="210.34 147.36 196.74 139.5 197.32 136.57 210.92 144.43 210.34 147.36"/><polygon class="cls-2" points="140.61 66.55 127.01 58.69 127.59 55.77 141.19 63.62 140.61 66.55"/><path class="cls-6" d="M187.37,85.21a1.7,1.7,0,0,1-2.24.86l-.21-.11a2.13,2.13,0,0,1-.88-2.67,1.71,1.71,0,0,1,2.25-.86l.2.11A2.13,2.13,0,0,1,187.37,85.21Z" transform="translate(-17.36 -16.55)"/><path class="cls-5" d="M193.24,88.59a1.7,1.7,0,0,1-2.24.86l-.21-.11a2.13,2.13,0,0,1-.88-2.67,1.71,1.71,0,0,1,2.25-.86l.2.11A2.13,2.13,0,0,1,193.24,88.59Z" transform="translate(-17.36 -16.55)"/><path class="cls-2" d="M199.1,92a1.7,1.7,0,0,1-2.24.86l-.21-.11a2.13,2.13,0,0,1-.88-2.67,1.71,1.71,0,0,1,2.25-.86l.2.11A2.13,2.13,0,0,1,199.1,92Z" transform="translate(-17.36 -16.55)"/><path class="cls-6" d="M205,95.37a1.7,1.7,0,0,1-2.24.86l-.21-.11a2.13,2.13,0,0,1-.88-2.67,1.71,1.71,0,0,1,2.25-.86l.2.11A2.13,2.13,0,0,1,205,95.37Z" transform="translate(-17.36 -16.55)"/><path class="cls-7" d="M136.24,62.49l-27.8-16a1.67,1.67,0,0,0-1.58-.12h0l-3.31,1.56,2,.69-4,20.24a4.24,4.24,0,0,0,1.65,4.27l26.5,15.24-.47,2.37,3.35-1.57h0a2.4,2.4,0,0,0,1.2-1.78l4.1-20.66A4.21,4.21,0,0,0,136.24,62.49Z" transform="translate(-17.36 -16.55)"/><path class="cls-6" d="M127.59,90.69l-27.8-16a4.24,4.24,0,0,1-1.65-4.27l4.1-20.66c.33-1.65,1.59-2.4,2.83-1.69l27.8,16a4.22,4.22,0,0,1,1.65,4.27L130.42,89C130.09,90.65,128.82,91.37,127.59,90.69Z" transform="translate(-17.36 -16.55)"/><path class="cls-5" d="M111.62,67.53A1.47,1.47,0,0,1,110,68.87a1.65,1.65,0,0,1-.71-.26,3.27,3.27,0,0,1-1.45-3.25,1.46,1.46,0,0,1,1.6-1.33,1.48,1.48,0,0,1,.7.25A3.24,3.24,0,0,1,111.62,67.53Z" transform="translate(-17.36 -16.55)"/><path class="cls-5" d="M117.3,70.81a1.47,1.47,0,0,1-1.59,1.34,1.65,1.65,0,0,1-.71-.26,3.27,3.27,0,0,1-1.45-3.25,1.46,1.46,0,0,1,1.6-1.33,1.48,1.48,0,0,1,.7.25A3.24,3.24,0,0,1,117.3,70.81Z" transform="translate(-17.36 -16.55)"/><path class="cls-5" d="M123,74.09a1.47,1.47,0,0,1-1.59,1.34,1.65,1.65,0,0,1-.71-.26,3.27,3.27,0,0,1-1.45-3.25,1.46,1.46,0,0,1,1.6-1.33,1.48,1.48,0,0,1,.7.25A3.24,3.24,0,0,1,123,74.09Z" transform="translate(-17.36 -16.55)"/><path class="cls-3" d="M123.76,36.51,96,20.51a1.67,1.67,0,0,0-1.58-.12h0L91.07,22l2,.69-4,20.24a4.24,4.24,0,0,0,1.65,4.27l26.57,15.33-.47,2.37,3.35-1.57h0a2.4,2.4,0,0,0,1.2-1.78l4.1-20.66A4.21,4.21,0,0,0,123.76,36.51Z" transform="translate(-17.36 -16.55)"/><path class="cls-2" d="M115.11,64.71l-27.8-16a4.24,4.24,0,0,1-1.61-4.34l4.1-20.66c.33-1.65,1.59-2.4,2.83-1.69l27.8,16a4.22,4.22,0,0,1,1.65,4.27L118,63C117.61,64.67,116.34,65.43,115.11,64.71Z" transform="translate(-17.36 -16.55)"/><path class="cls-5" d="M99.14,41.55a1.47,1.47,0,0,1-1.59,1.34,1.65,1.65,0,0,1-.71-.26,3.27,3.27,0,0,1-1.45-3.25A1.46,1.46,0,0,1,97,38.05a1.48,1.48,0,0,1,.7.25A3.24,3.24,0,0,1,99.14,41.55Z" transform="translate(-17.36 -16.55)"/><path class="cls-5" d="M104.82,44.83a1.47,1.47,0,0,1-1.59,1.34,1.65,1.65,0,0,1-.71-.26,3.27,3.27,0,0,1-1.45-3.25,1.46,1.46,0,0,1,1.6-1.33,1.48,1.48,0,0,1,.7.25A3.24,3.24,0,0,1,104.82,44.83Z" transform="translate(-17.36 -16.55)"/><path class="cls-5" d="M110.5,48.11a1.47,1.47,0,0,1-1.59,1.34,1.65,1.65,0,0,1-.71-.26,3.27,3.27,0,0,1-1.45-3.25,1.46,1.46,0,0,1,1.6-1.33,1.48,1.48,0,0,1,.7.25A3.24,3.24,0,0,1,110.5,48.11Z" transform="translate(-17.36 -16.55)"/></svg>