<svg xmlns="http://www.w3.org/2000/svg" xmlns:xlink="http://www.w3.org/1999/xlink" viewBox="0 0 500 280.31"><defs><style>.cls-1{isolation:isolate;}.cls-10,.cls-2{fill:#fff;}.cls-3{fill:#f0f5f9;}.cls-4,.cls-6,.cls-9{fill:#5c9bff;}.cls-5{fill:url(#Degradado_sin_nombre_15);}.cls-6{opacity:0.8;}.cls-29,.cls-6{mix-blend-mode:multiply;}.cls-7{fill:url(#Degradado_sin_nombre_15-2);}.cls-8{fill:url(#Degradado_sin_nombre_14);}.cls-9{opacity:0.5;}.cls-10,.cls-29{opacity:0.4;}.cls-11{fill:#0059f0;}.cls-12{fill:#e7afa7;}.cls-13{fill:#0051c7;}.cls-14{fill:#1b3874;}.cls-15{fill:#006cff;}.cls-16{fill:#ffcb4c;}.cls-17{fill:#003aa7;}.cls-18{fill:#0055d6;}.cls-19{fill:#0070ff;}.cls-20{fill:#001868;}.cls-21{fill:#006efd;}.cls-22{fill:#c8987e;}.cls-23{fill:#ddd;}.cls-24{fill:#f5f5f5;}.cls-25{fill:#006dff;}.cls-26{fill:#0c277b;}.cls-27{fill:#0037a2;}.cls-28{fill:#1a55b5;}.cls-30{fill:#81acea;}.cls-31{fill:#e8e8e8;}.cls-32{fill:#6dacfa;}.cls-33{fill:#a2dfff;}.cls-34{fill:#d1d5d8;}.cls-35{fill:#45a0ff;}.cls-36{fill:#f6c157;}.cls-37{fill:#389dff;}.cls-38,.cls-39,.cls-41{fill:none;stroke-linecap:round;stroke-linejoin:round;}.cls-38{stroke:#fff;stroke-width:0.29px;}.cls-39,.cls-41{stroke:#1a55b5;}.cls-39{stroke-width:0.35px;}.cls-40{fill:#7aa9fe;}.cls-41{stroke-width:0.5px;}</style><linearGradient id="Degradado_sin_nombre_15" x1="157.1" y1="112.33" x2="342.9" y2="298.13" gradientUnits="userSpaceOnUse"><stop offset="0" stop-color="#d8e7fd"/><stop offset="1" stop-color="#539dff"/></linearGradient><linearGradient id="Degradado_sin_nombre_15-2" x1="128.5" y1="-15.84" x2="371.5" y2="227.15" xlink:href="#Degradado_sin_nombre_15"/><linearGradient id="Degradado_sin_nombre_14" x1="137.89" y1="-2.68" x2="362.11" y2="221.54" gradientUnits="userSpaceOnUse"><stop offset="0.23" stop-color="#e5f2ff"/><stop offset="1" stop-color="#b5d7fd"/></linearGradient></defs><g class="cls-1"><g id="BACKGROUND"><rect class="cls-2" y="-129.72" width="500" height="500"/></g><g id="OBJECTS"><path class="cls-3" d="M469.1,158.63c-6.19-.6-11.13,3.09-17.32,2.5-6.65-.63-11.87-6.07-15.16-11.88s-5.34-12.33-9.18-17.79a32,32,0,0,0-55.2,5.06v81H486V182.93C486.08,172.3,479.68,159.66,469.1,158.63Z"/><path class="cls-3" d="M17.05,217.56c3.54-7.3,4.12-15.63,6.26-23.45S30,178.22,37.68,175.73c6.56-2.12,13.83.4,19.44,4.41,4.59,3.27,9.46,7.78,15,6.58,4.69-1,7.45-5.83,9.15-10.32,6.84-18.13,6.34-39.61,18.69-54.55,10.18-12.33,28-17.25,43.46-13.34s25,15.92,31.44,30.54,6,78.51,6,78.51Z"/><rect class="cls-4" x="99.62" y="197" width="300.76" height="5"/><path class="cls-5" d="M67.42,202A15.55,15.55,0,0,0,83,217.56H417A15.55,15.55,0,0,0,432.58,202Z"/><path class="cls-6" d="M280.36,206.9H219.64A14.45,14.45,0,0,1,208.79,202h82.42A14.45,14.45,0,0,1,280.36,206.9Z"/><rect class="cls-7" x="96.82" y="13.16" width="306.36" height="185" rx="4.59"/><rect class="cls-8" x="105.24" y="29.97" width="289.53" height="158.92"/><rect class="cls-9" x="105.24" y="29.97" width="1.6" height="158.88"/><path class="cls-10" d="M245.13,21.72a2.88,2.88,0,1,1-2.88-2.87A2.88,2.88,0,0,1,245.13,21.72Z"/><path class="cls-11" d="M148.42,160.17c-2.85-3.25.79-6.31,1.2-6.93l0-.07c2.08-2.86,3.09-7.31.42-10.17a10.79,10.79,0,0,0-11.42-2.77c-4.68,1.7-6.69,6.06-7.31,10.69a11.63,11.63,0,0,0,1.09,6.23Z"/><path class="cls-12" d="M147.36,146.59c.3,2.1.77,3,.48,4.55l-.25.67a.56.56,0,0,1-.05.08h0l-.76,2a5,5,0,1,1-9.28-3.49l.86-2.28C139.85,146.17,145,149.18,147.36,146.59Z"/><path class="cls-12" d="M139.5,149.2a1.87,1.87,0,1,1-1.1-2.4A1.88,1.88,0,0,1,139.5,149.2Z"/><path class="cls-12" d="M137.48,153.94c-.55.53-7,8.47-7,8.47l9.43,1.43.55-7Z"/><path class="cls-12" d="M152.62,182.63a3,3,0,1,1-4.22,0A3,3,0,0,1,152.62,182.63Z"/><path class="cls-12" d="M153.36,183.79,148,186.37l-9.7-18.58a3.84,3.84,0,0,1,1.54-5.6h0c2.11-1,6.36.71,7.05,2.94Z"/><path class="cls-13" d="M181.2,201.52H141.34l-1.78-10.31,35,2.4A8,8,0,0,1,181.2,201.52Z"/><polygon class="cls-12" points="183.54 239.19 186.16 239.19 184.27 230.39 180.44 230.39 183.54 239.19"/><polygon class="cls-12" points="163.68 238.43 166.29 238.43 168.29 230.39 164.46 230.39 163.68 238.43"/><path class="cls-14" d="M166.93,237.57l-2.09.92-2-.92-1.75,5.7h16.2c0-2.85-6.09-2.85-6.09-2.85Z"/><path class="cls-14" d="M186.56,237.57l-2.1.92-1.94-.92-1.75,5.7H197c0-2.85-6.09-2.85-6.09-2.85Z"/><polygon class="cls-13" points="185.01 233.16 181.18 233.16 168.64 201.52 181.2 201.52 185.01 233.16"/><path class="cls-15" d="M174.31,203l-12.26,2.55L126.83,188l40.88,7.14A8,8,0,0,1,174.31,203Z"/><path class="cls-15" d="M127.41,186.57c-.29,2.07-3.09,4.73-3,10.91.06,3.71,2.5,6,5.27,7.25,2.32,1.05,5.48.86,7.44.86h24.92l-14.63-14.38Z"/><polygon class="cls-15" points="167.79 233.16 163.97 233.16 162.05 205.59 174.31 203.04 167.79 233.16"/><polygon class="cls-12" points="168.99 190.17 150.8 187.72 149.38 181.77 168.99 187.25 168.99 190.17"/><path class="cls-16" d="M126.83,188l1.14-5.24-3.45-20.28a3.43,3.43,0,0,1,4-3.16l13.8,1.31a3.43,3.43,0,0,1,2.69,4.37l-3.53,24.69Z"/><path class="cls-16" d="M150.61,174.23l-7,3L138,168a4.94,4.94,0,0,1,2.67-7.16h0a5,5,0,0,1,6.22,2.93Z"/><polygon class="cls-17" points="173.43 193.55 144.94 192.08 144.94 191.21 173.43 192.68 173.43 193.55"/><polygon class="cls-17" points="174.37 192.91 155.36 192.1 160.52 178.3 179.56 178.3 174.37 192.91"/><polygon class="cls-12" points="141.22 191.27 122.21 188.85 121.61 182.87 141.22 188.35 141.22 191.27"/><path class="cls-12" d="M125.57,185.45a3,3,0,1,1-3.37-2.55A3,3,0,0,1,125.57,185.45Z"/><path class="cls-12" d="M141.22,188.35l2.46-.62A6.49,6.49,0,0,1,149.4,189l3.21,2.61-11.39-.36Z"/><rect class="cls-18" x="109.12" y="205.59" width="38.4" height="37.68"/><rect class="cls-19" x="94.14" y="205.59" width="14.99" height="37.68"/><path class="cls-11" d="M137.53,150.4l-5.08.45v6.3c4.33,3,7.88-1.56,7.88-1.56-3.51-2.53-3.07-4.47-2.81-5.17"/><path class="cls-12" d="M125.47,186.82l-5.81-1.39,4.24-21.15c.13-2.34,1.42-3.33,3.71-2.87h0c2.29.46,4.65,4.38,3.87,6.59Z"/><path class="cls-16" d="M129.2,176.1l-7.28-2.35,1.8-10.64a5,5,0,0,1,6.72-3.65h0a4.94,4.94,0,0,1,2.76,6.29Z"/><polygon class="cls-12" points="130.44 159.46 139.94 169.04 141.03 160.42 130.44 159.46"/><circle class="cls-20" cx="345.64" cy="136.58" r="9.32" transform="translate(4.66 284.4) rotate(-45)"/><path class="cls-21" d="M360.77,235.34H349.62a7.07,7.07,0,0,0-7.06,7.07.87.87,0,0,0,1.73,0,5.34,5.34,0,0,1,5.33-5.34h.61a7,7,0,0,0-2.45,5.34.87.87,0,0,0,1.74,0,5.35,5.35,0,0,1,5.35-5.34h.68a5.34,5.34,0,0,1,5.33,5.34.87.87,0,0,0,1.73,0,7,7,0,0,0-2.45-5.34h.61a5.34,5.34,0,0,1,5.33,5.34.87.87,0,0,0,1.74,0A7.08,7.08,0,0,0,360.77,235.34Z"/><rect class="cls-21" x="353.67" y="206.79" width="3.05" height="31"/><path class="cls-16" d="M368.63,208.06H341.76a2,2,0,0,1-2-2h0a2,2,0,0,1,2-2h26.87a2,2,0,0,1,2,2h0A2,2,0,0,1,368.63,208.06Z"/><path class="cls-14" d="M320.92,243.22h0a.79.79,0,0,0,.77-1l-14.25-59.84h-3.13l15.85,60.23A.78.78,0,0,0,320.92,243.22Z"/><polygon class="cls-22" points="345.42 153.93 354.34 154.65 350.02 144.13 343.43 145.59 345.42 153.93"/><path class="cls-22" d="M349,138.87a1.52,1.52,0,1,0,1.23-1.76A1.52,1.52,0,0,0,349,138.87Z"/><path class="cls-22" d="M341.25,133.53a4.7,4.7,0,0,0-2.65,2.24,4.59,4.59,0,0,0-.48,3h0l.16.89a.56.56,0,0,1,0,.12l0,0,.44,2.49c.62,3.44,3.69,5.94,7,5.41a6.17,6.17,0,0,0,4.89-7.29l-.55-3.05h0S348.93,131.32,341.25,133.53Z"/><path class="cls-20" d="M342.46,133.18a10.44,10.44,0,0,1,2.37-.19,5.09,5.09,0,0,1,1.73.31c1.8.71,1.5,3.71,1.51,5.22,0,.36,0,.8.31,1a.77.77,0,0,0,1-.36,3.68,3.68,0,0,0,.3-1.15,1.21,1.21,0,0,1,.62-1l-2.4-6s-3.86,1.24-4.16,1.33A5.07,5.07,0,0,0,342.46,133.18Z"/><path class="cls-22" d="M331.73,174.7a3,3,0,1,0,4.19-.5A3,3,0,0,0,331.73,174.7Z"/><path class="cls-22" d="M331.12,175.94l5.66,1.93,7.48-19.57a3.85,3.85,0,0,0-2.18-5.39h0c-2.21-.75-6.22,1.44-6.66,3.74Z"/><path class="cls-23" d="M313.5,200h36.05l-3.34-10.09L320.1,192A8,8,0,0,0,313.5,200Z"/><polygon class="cls-22" points="302.02 239.14 299.4 239.14 303.57 230.35 307.41 230.35 302.02 239.14"/><polygon class="cls-22" points="331.02 238.38 328.4 238.38 326.4 230.35 330.24 230.35 331.02 238.38"/><path class="cls-14" d="M327.76,237.52l2.1.92,1.95-.92,1.75,5.7h-16.2c0-2.85,6.09-2.85,6.09-2.85Z"/><path class="cls-14" d="M299,237.52l2.09.92,2-.92,1.75,5.7h-16.2c0-2.85,6.09-2.85,6.09-2.85Z"/><polygon class="cls-23" points="299.02 236.92 305.14 238.45 326.82 199.94 314.06 197 299.02 236.92"/><path class="cls-24" d="M320.39,201.47,332.65,204l32.84-14.17H346.21L327,193.56A8,8,0,0,0,320.39,201.47Z"/><path class="cls-24" d="M365.49,189.85a16.48,16.48,0,0,1,1,6.06c-.06,3.71-2.5,6-5.27,7.25-2.32,1-5.48.86-7.44.86H332.65l13.56-14.16Z"/><polygon class="cls-24" points="326.9 236.92 333.02 237.69 332.65 204.02 320.39 201.47 326.9 236.92"/><polygon class="cls-22" points="315.81 180.98 333.75 179.52 335.41 172.58 315.81 178.06 315.81 180.98"/><path class="cls-16" d="M365.49,189.85l-5.77-40.1-20.5,1.91-1,5.66c-.15,10.11,10.61,27.5,8,32.54Z"/><path class="cls-16" d="M332.19,169.62l8.1,2.18,4.32-13.3a4.93,4.93,0,0,0-3.48-6.8h0a4.94,4.94,0,0,0-5.84,3.62Z"/><polygon class="cls-22" points="345.1 182.08 363.65 180.43 364.71 173.68 345.1 179.16 345.1 182.08"/><path class="cls-22" d="M360.31,176.59a3.37,3.37,0,1,0,3.81-2.88A3.37,3.37,0,0,0,360.31,176.59Z"/><path class="cls-22" d="M345.1,179.16l-2.46-.63a6.52,6.52,0,0,0-5.72,1.26l-3.22,2.62,11.4-.36Z"/><path class="cls-22" d="M360.32,176.89l6.71-.19-2.84-21.56c0-2.34-2.05-3.32-4.36-2.94h0c-2.31.38-4.81,4.2-4.11,6.44Z"/><path class="cls-16" d="M358.16,171l8.28-1.47-1.89-15.07a4.94,4.94,0,0,0-6.21-4.45h0a4.94,4.94,0,0,0-3.52,5.9Z"/><path class="cls-14" d="M375.34,183.17h-93A1.37,1.37,0,0,1,281,181.8h0a1.37,1.37,0,0,1,1.37-1.37h93a1.37,1.37,0,0,1,1.38,1.37h0A1.37,1.37,0,0,1,375.34,183.17Z"/><path class="cls-14" d="M275.08,243.22h0a.79.79,0,0,1-.77-1l14.24-59.84h3.13l-15.84,60.23A.79.79,0,0,1,275.08,243.22Z"/><path class="cls-14" d="M385.1,243.22h0a.79.79,0,0,0,.77-1l-14.24-59.84H368.5l15.84,60.23A.78.78,0,0,0,385.1,243.22Z"/><path class="cls-14" d="M339.26,243.22h0a.79.79,0,0,1-.77-1l14.24-59.84h3.13L340,242.64A.78.78,0,0,1,339.26,243.22Z"/><path class="cls-22" d="M343.41,151.27l.16.54a5.21,5.21,0,0,0,5,3.69h0a5.19,5.19,0,0,0,5.17-4.71l0-.46Z"/><polygon class="cls-25" points="325.76 179.7 303.57 179.7 296.71 165.9 318.9 165.9 325.76 179.7"/><rect class="cls-25" x="305.28" y="179.32" width="28.57" height="1.11"/><path class="cls-24" d="M259.25,119.63l5.12-6.26L247.2,98.23a3.76,3.76,0,0,0-5.63.86h0c-1.23,1.94-.17,6.06,2.33,8.38S259.25,119.63,259.25,119.63Z"/><rect class="cls-12" x="235.63" y="218.25" width="3.23" height="3.98"/><polygon class="cls-12" points="208.83 222.23 212.06 222.23 213.55 218.25 210.32 218.25 208.83 222.23"/><polygon class="cls-12" points="237.96 98.72 229.24 99.42 231.98 89.13 236.98 89.92 237.96 98.72"/><path class="cls-24" d="M223.77,136.33l-5.06-34.56a3.2,3.2,0,0,1,2.67-3.94l23.13-.58a3.19,3.19,0,0,1,3.62,3.08l-1.7,34.33Z"/><polygon class="cls-26" points="223.77 136.33 232.44 147.95 234.1 220.06 240.75 220.06 246.43 134.66 223.77 136.33"/><path class="cls-27" d="M242.25,135l-2.06,11.2a5.41,5.41,0,0,1-5.32,4.44h0l-21.34,69.45h-5.45l15.69-83.73Z"/><path class="cls-28" d="M224,84a8.31,8.31,0,0,0,16.08-2.24c.18-2.32,1.58-4.38,1.64-6.73.07-2.66-2.28-4-4.74-3.6-1.33.23-2.58.81-3.9,1.09-1.14.25-2.32.27-3.47.46a6.38,6.38,0,0,0-3.48,1.78,8.49,8.49,0,0,0-2.4,4.3A8.65,8.65,0,0,0,224,84Z"/><path class="cls-12" d="M229.54,83.8a1.58,1.58,0,1,1-1.65-1.52A1.58,1.58,0,0,1,229.54,83.8Z"/><path class="cls-12" d="M236.23,76.61a5,5,0,0,1,3.21,1.67,4.82,4.82,0,0,1,1.15,2.92h0l0,.94a.69.69,0,0,1,0,.13l0,0,.11,2.63c.15,3.64-2.42,6.87-5.86,7.07a6.41,6.41,0,0,1-6.62-6.31l-.13-3.22h0S227.91,76.09,236.23,76.61Z"/><path class="cls-28" d="M234.78,76.2a10.45,10.45,0,0,0-2.3.32,5.08,5.08,0,0,0-1.59.67c-1.57,1-.65,3.86-.33,5.3.07.35.16.77-.09,1a.75.75,0,0,1-1-.12,3.3,3.3,0,0,1-.53-1,1.23,1.23,0,0,0-.8-.79l1-6.23s3.95.36,4.26.39A4.54,4.54,0,0,1,234.78,76.2Z"/><polygon class="cls-2" points="236.79 120.45 220.79 128.06 219.42 120.45 235.79 115.89 236.79 120.45"/><path class="cls-2" d="M221.65,121.27a4,4,0,1,1-5.69.57A4,4,0,0,1,221.65,121.27Z"/><path class="cls-24" d="M264.37,113.37a4,4,0,1,1-5.69.57A4,4,0,0,1,264.37,113.37Z"/><polygon class="cls-24" points="278.5 107.89 264.37 119.63 259.89 112.95 277.37 102.75 278.5 107.89"/><path class="cls-2" d="M223,125.29l-8-1.29,2.22-22.18a4.49,4.49,0,0,1,5.32-4.23h0c2.69.5,5.44,4.77,5.44,8.83S223,125.29,223,125.29Z"/><polygon class="cls-16" points="249.21 130.06 234.06 130.06 241.68 108.34 256.82 108.34 249.21 130.06"/><path class="cls-12" d="M245.09,116.12h0a1.9,1.9,0,0,1-1.63,2.28l-4.34.56-2.33,1.49-1-3.8,1-.75a6.33,6.33,0,0,1,3.84-1.3h2.61A1.91,1.91,0,0,1,245.09,116.12Z"/><path class="cls-12" d="M288.09,100.94h-5.87a6.33,6.33,0,0,0-3.85,1.31l-1,.75.68,4,2.64-1.68,2.48.81a2.61,2.61,0,0,0,3.54-2.45,2.7,2.7,0,0,0-.41-1.41h1.76a.66.66,0,0,0,0-1.32Z"/><path class="cls-25" d="M212.66,220.43l-2.1.92-1.95-.92-1.74,5.7h16.2c0-2.85-6.09-2.85-6.09-2.85Z"/><path class="cls-25" d="M239.43,220.43l-2.1.92-1.94-.92-1.75,5.7h16.2c0-2.85-6.09-2.85-6.09-2.85Z"/><g class="cls-29"><rect class="cls-30" x="126.22" y="54.98" width="71.74" height="71.74" rx="6.88"/></g><rect class="cls-2" x="124.51" y="53.26" width="71.74" height="71.74" rx="6.88"/><path class="cls-31" d="M188.55,67.27H132.21a1.89,1.89,0,0,1-1.89-1.89h0a1.89,1.89,0,0,1,1.89-1.89h56.34a1.89,1.89,0,0,1,1.89,1.89h0A1.89,1.89,0,0,1,188.55,67.27Z"/><path class="cls-31" d="M188.55,74.07H132.21a1.88,1.88,0,0,1-1.89-1.88h0a1.89,1.89,0,0,1,1.89-1.89h56.34a1.89,1.89,0,0,1,1.89,1.89h0A1.89,1.89,0,0,1,188.55,74.07Z"/><path class="cls-32" d="M136.76,114.74h-6.44V100a3.22,3.22,0,0,1,3.22-3.22h0a3.22,3.22,0,0,1,3.22,3.22Z"/><path class="cls-33" d="M150.18,114.74h-6.44v-21A3.22,3.22,0,0,1,147,90.47h0a3.22,3.22,0,0,1,3.22,3.22Z"/><path class="cls-34" d="M163.6,114.74h-6.44v-8.5a3.22,3.22,0,0,1,3.22-3.22h0a3.22,3.22,0,0,1,3.22,3.22Z"/><path class="cls-33" d="M177,114.74h-6.44v-21a3.22,3.22,0,0,1,3.22-3.22h0A3.22,3.22,0,0,1,177,93.69Z"/><path class="cls-35" d="M190.44,114.74H184V87.42a3.22,3.22,0,0,1,3.22-3.22h0a3.22,3.22,0,0,1,3.22,3.22Z"/><g class="cls-29"><rect class="cls-30" x="306.06" y="50.52" width="68.4" height="12.93" rx="6.47"/></g><path class="cls-36" d="M367.14,61.74H311.67a6.47,6.47,0,0,1-6.47-6.47h0a6.47,6.47,0,0,1,6.47-6.46h55.47a6.46,6.46,0,0,1,6.46,6.46h0A6.47,6.47,0,0,1,367.14,61.74Z"/><g class="cls-29"><path class="cls-30" d="M368,105.69H312.53a6.47,6.47,0,0,1-6.47-6.47h0a6.46,6.46,0,0,1,6.47-6.46H368a6.46,6.46,0,0,1,6.46,6.46h0A6.47,6.47,0,0,1,368,105.69Z"/></g><path class="cls-2" d="M367.14,104H311.67a6.47,6.47,0,0,1-6.47-6.47h0A6.47,6.47,0,0,1,311.67,91h55.47a6.47,6.47,0,0,1,6.46,6.47h0A6.47,6.47,0,0,1,367.14,104Z"/><g class="cls-29"><path class="cls-30" d="M350.3,84.57H294.83a6.46,6.46,0,0,1-6.46-6.47h0a6.46,6.46,0,0,1,6.46-6.46H350.3a6.47,6.47,0,0,1,6.47,6.46h0A6.47,6.47,0,0,1,350.3,84.57Z"/></g><path class="cls-37" d="M349.45,82.86H294a6.47,6.47,0,0,1-6.46-6.47h0A6.46,6.46,0,0,1,294,69.93h55.48a6.46,6.46,0,0,1,6.46,6.46h0A6.47,6.47,0,0,1,349.45,82.86Z"/><path class="cls-2" d="M352.86,56.56H317.31a1.61,1.61,0,0,1-1.6-1.61h0a1.61,1.61,0,0,1,1.6-1.61h35.55a1.6,1.6,0,0,1,1.6,1.61h0A1.6,1.6,0,0,1,352.86,56.56Z"/><circle class="cls-2" cx="360.07" cy="54.95" r="1.61"/><path class="cls-36" d="M337.56,78H302a1.61,1.61,0,0,1-1.61-1.61h0A1.61,1.61,0,0,1,302,74.78h35.54a1.61,1.61,0,0,1,1.61,1.61h0A1.61,1.61,0,0,1,337.56,78Z"/><path class="cls-36" d="M346.38,76.39a1.61,1.61,0,1,1-1.6-1.61A1.61,1.61,0,0,1,346.38,76.39Z"/><rect class="cls-32" x="316.42" y="96.22" width="38.76" height="3.21" rx="1.61"/><path class="cls-32" d="M362.39,97.83a1.61,1.61,0,1,1-1.61-1.61A1.61,1.61,0,0,1,362.39,97.83Z"/><path class="cls-28" d="M396.08,228.82c2-2.31,4.54-4.31,5.34-7.23.58-2.13.12-4.38-.11-6.58s-.14-4.63,1.28-6.32a8.37,8.37,0,0,1,4.8-2.39,17.57,17.57,0,0,0,5.22-1.53c2.57-1.47,2.05-4,3.43-6.17,1.55-2.46,5.14-5.6,8.23-4,3.26,1.74,2.74,7,.57,9.32-1.44,1.54-3.28,3-3.49,5.11-.32,3.16,3.3,6,2.3,9-.73,2.23-3.54,3-4.93,4.89s-1.09,4.49-.29,6.67,2.08,4.18,2.59,6.45c1,4.63-2.61,7.83-6.76,8.87-3.8.95-12,.5-12,.5a15.74,15.74,0,0,1-7.79-6.41A8.19,8.19,0,0,1,394,232,11.69,11.69,0,0,1,396.08,228.82Z"/><path class="cls-38" d="M420.62,199.63s-14,21.66-15.55,45.71"/><path class="cls-16" d="M406.84,230.45c1.83,4,1.14,13-2.87,14.88s-9.8-4.23-11.63-8.23-7.85-25.7-3.84-27.54S405,226.45,406.84,230.45Z"/><line class="cls-39" x1="389.63" y1="212.2" x2="404.12" y2="244.85"/><path class="cls-14" d="M410.83,260.28h-7.91a1.67,1.67,0,0,1-1.61-1.22l-4-14.21H416.4l-4,14.21A1.67,1.67,0,0,1,410.83,260.28Z"/><path class="cls-40" d="M84.74,197a3,3,0,0,1,1.94.7l.15.11c2.18,1.67,3.3,4.73,3.33,9.09A41.74,41.74,0,0,1,88.9,217.1a19,19,0,0,0-1-4.09,49.19,49.19,0,0,0-2.58-5.49c-.72-1.37-1.46-2.79-2.07-4.22a7.36,7.36,0,0,1-.79-3.86A2.8,2.8,0,0,1,84.74,197Z"/><path class="cls-40" d="M69.4,209.51a3.05,3.05,0,0,1,2.06-.2l.18,0c2.69.57,5,2.86,6.89,6.79a41.62,41.62,0,0,1,3.25,9.8,18.23,18.23,0,0,0-2.68-3.27,48.41,48.41,0,0,0-4.67-3.85c-1.24-.94-2.51-1.9-3.68-2.94a7.41,7.41,0,0,1-2.37-3.15A2.79,2.79,0,0,1,69.4,209.51Z"/><path class="cls-40" d="M67.4,222.51a2.13,2.13,0,0,1,.93-1.06l.11-.07c1.6-1,3.82-.92,6.61.15a28.27,28.27,0,0,1,6.2,3.35,12.85,12.85,0,0,0-2.86-.37,33.31,33.31,0,0,0-4.13.28c-1.05.11-2.14.23-3.21.26a5.07,5.07,0,0,1-2.65-.45A1.92,1.92,0,0,1,67.4,222.51Z"/><path class="cls-41" d="M82.86,239.55s10.93-14.4,2.75-40"/><path class="cls-41" d="M82.86,239.55s3.46-15.65-11.12-26.83"/><path class="cls-41" d="M81.31,225.15s-2.67-2.37-12-2.45"/><path class="cls-40" d="M103.36,215.76a5.31,5.31,0,0,1-1.89,2.07c-.9.66-1.87,1.26-2.81,1.83a38,38,0,0,0-3.57,2.42A13.37,13.37,0,0,0,93,224.22a29.87,29.87,0,0,1,3-6.73c1.61-2.66,3.4-4.12,5.34-4.35l.14,0a2.22,2.22,0,0,1,1.44.28A2,2,0,0,1,103.36,215.76Z"/><path class="cls-40" d="M107.12,229a5.28,5.28,0,0,1-2.59,1.06c-1.1.21-2.23.34-3.32.46a35,35,0,0,0-4.27.66,12.53,12.53,0,0,0-2.82,1,29.51,29.51,0,0,1,5.55-4.82c2.59-1.71,4.83-2.27,6.69-1.64l.12,0a2.2,2.2,0,0,1,1.19.87A2,2,0,0,1,107.12,229Z"/><path class="cls-40" d="M102.79,236.26a3.62,3.62,0,0,1-1.79-.69c-.64-.41-1.26-.87-1.87-1.33a24.13,24.13,0,0,0-2.42-1.67,8.75,8.75,0,0,0-1.89-.81,20.23,20.23,0,0,1,5,.2c2.09.36,3.47,1.14,4.1,2.32l0,.08a1.49,1.49,0,0,1,.18,1A1.36,1.36,0,0,1,102.79,236.26Z"/><path class="cls-41" d="M88.5,240.15s-1.45-12.79,12.88-25.49"/><path class="cls-41" d="M88.5,240.15a19.79,19.79,0,0,1,16.57-12.37"/><path class="cls-41" d="M94.69,231.9s2.5-.48,8.22,2.86"/><path class="cls-14" d="M92.71,256H83a2,2,0,0,1-2-1.49l-4.86-17.41H99.53l-4.86,17.41A2,2,0,0,1,92.71,256Z"/></g></g></svg>